<?xml version="1.0" encoding="utf-8"?>
<!-- Generator: Adobe Illustrator 28.3.0, SVG Export Plug-In . SVG Version: 6.00 Build 0)  -->
<svg version="1.1" id="Layer_1" xmlns="http://www.w3.org/2000/svg" xmlns:xlink="http://www.w3.org/1999/xlink" x="0px" y="0px"
	 viewBox="0 0 500 328" style="enable-background:new 0 0 500 328;" xml:space="preserve">
<path id="text2453" d="M168.8,126.9L132.3,64L23.6,126.9L0,86.4L149.9,0L186,62.9L295.1,0l36.1,62.9L440.3,0L500,103.3l-40.9,23.6
	L422.6,64L314,126.9L277.5,64L168.8,126.9 M168.8,328l-36.5-62.9L23.6,328L0,287.5l149.9-86.4L186,264l109.1-62.9l36.1,62.9
	l109.1-62.9L500,304.5L459.1,328l-36.5-62.9L314,328l-36.5-62.9L168.8,328"/>
</svg>
