<?xml version="1.0" encoding="utf-8"?>
<!-- Generator: Adobe Illustrator 28.3.0, SVG Export Plug-In . SVG Version: 6.00 Build 0)  -->
<svg version="1.1" id="Layer_1" xmlns="http://www.w3.org/2000/svg" xmlns:xlink="http://www.w3.org/1999/xlink" x="0px" y="0px"
	 viewBox="0 0 800 800" style="enable-background:new 0 0 800 800;" xml:space="preserve">
<path id="text2453" d="M318.8,362.9l-36.5-62.9l-108.7,62.9L150,322.4L299.9,236l36.1,62.9L445.1,236l36.1,62.9L590.3,236L650,339.3
	l-40.9,23.6l-36.5-62.9L464,362.9l-36.5-62.9L318.8,362.9 M318.8,564l-36.5-62.9L173.6,564L150,523.5l149.9-86.4l36.1,62.9
	l109.1-62.9l36.1,62.9l109.1-62.9L650,540.5L609.1,564l-36.5-62.9L464,564l-36.5-62.9L318.8,564"/>
</svg>
