<?xml version="1.0" encoding="utf-8"?>
<!-- Generator: Adobe Illustrator 28.3.0, SVG Export Plug-In . SVG Version: 6.00 Build 0)  -->
<svg version="1.1" id="Layer_1" xmlns="http://www.w3.org/2000/svg" xmlns:xlink="http://www.w3.org/1999/xlink" x="0px" y="0px"
	 viewBox="0 0 502 479.5" style="enable-background:new 0 0 502 479.5;" xml:space="preserve">
<path id="text2421" d="M226.4,477.5v-38c0-29.9-6.5-83.3-19.5-160.2c-5.9-36.2-15.5-73.9-28.9-113.1c-13.6-39.8-27.8-71-42.7-93.6
	c-11.5-17.2-25.2-25.8-41.1-25.8c-18,0-30.6,6.9-37.7,20.7c-6.5,12.8-9.7,26.7-9.7,41.8c0,31.8,11.4,60.6,34.2,86.4H27.6
	C9.2,167.4,0,137.6,0,106.2c0-32.9,8.8-58.6,26.4-77.3C44.6,9.6,66.7,0,92.7,0c33.5,0,59.7,13.8,78.5,41.5
	c21.4,31.2,39.2,69.1,53.4,113.7c10.1,32.5,18.5,68.4,25.4,107.7c6.9-39.4,15.4-75.3,25.4-107.7c13.4-43.6,31.2-81.4,53.4-113.7
	C347.6,13.9,373.8,0,407.3,0c26,0,48.1,9.6,66.3,28.9c17.6,18.6,26.4,44.4,26.4,77.3c0,31.4-9.2,61.2-27.6,89.5H419
	c22.8-25.8,34.2-54.5,34.2-86.4c0-15.1-3.2-29-9.7-41.8c-7.1-13.8-19.7-20.7-37.7-20.7c-15.9,0-29.6,8.6-41.1,25.8
	c-14.9,22.6-29.1,53.8-42.7,93.6c-13.4,39.2-23,76.8-28.9,113.1c-13,76.8-19.5,130.2-19.5,160.2v38L226.4,477.5"/>
</svg>
