<svg width="42" height="42" viewBox="0 0 42 42" fill="none" xmlns="http://www.w3.org/2000/svg">
<mask id="path-1-inside-1_82_113" fill="white">
<path d="M19.799 1.41421C20.58 0.633165 21.8464 0.633165 22.6274 1.41421L41.0122 19.799C41.7932 20.58 41.7932 21.8464 41.0122 22.6274L22.6274 41.0122C21.8464 41.7932 20.58 41.7932 19.799 41.0122L1.41421 22.6274C0.633158 21.8464 0.633158 20.58 1.41421 19.799L19.799 1.41421Z"/>
</mask>
<path d="M21.2132 0L42.4264 21.2132L21.2132 0ZM22.6274 41.0122C20.6748 42.9648 17.509 42.9648 15.5563 41.0122L-0.707114 24.7487C-2.65974 22.7961 -2.65974 19.6303 -0.707114 17.6777L4.24263 21.2132L21.9203 38.8909C22.7014 39.6719 23.3345 40.3051 23.3345 40.3051L22.6274 41.0122ZM-0.707114 24.7487C-2.65974 22.7961 -2.65974 19.6303 -0.707114 17.6777L15.5563 1.41421C17.509 -0.538408 20.6748 -0.538408 22.6274 1.41421L23.3345 2.12132C23.3345 2.12132 22.7014 2.75449 21.9203 3.53553L4.24263 21.2132L-0.707114 24.7487ZM42.4264 21.2132L21.2132 42.4264L42.4264 21.2132Z" fill="white" mask="url(#path-1-inside-1_82_113)"/>
</svg>
