<?xml version="1.0" encoding="utf-8"?>
<!-- Generator: Adobe Illustrator 28.3.0, SVG Export Plug-In . SVG Version: 6.00 Build 0)  -->
<svg version="1.1" id="Layer_1" xmlns="http://www.w3.org/2000/svg" xmlns:xlink="http://www.w3.org/1999/xlink" x="0px" y="0px"
	 viewBox="0 0 500 398.4" style="enable-background:new 0 0 500 398.4;" xml:space="preserve">
<path id="text2445" d="M0,282c21,13.4,41.1,24.2,60.5,32.5c49.3,21.4,104,32.1,164.1,32.1c37.8,0,73.6-4.3,107.5-12.8
	c-3-2.5-5.8-5.1-8.3-7.6c-10.4-10.6-18-21.9-22.8-33.9c-5.1-12.4-7.6-25.7-7.6-39.7c0-13.8,2.5-27,7.6-39.4
	c5.3-13.1,12.9-24.4,22.8-33.9c10.8-10.4,22-18,33.5-22.8c12-5.1,25.1-7.6,39.4-7.6c15,0,28.1,2.5,39.4,7.6
	c13.4,6,24.5,13.6,33.5,22.8c10.4,10.6,18,21.9,22.8,33.9c5.1,12.4,7.6,25.6,7.6,39.4s-2.5,27.1-7.6,39.7
	c-5.5,13.8-14.3,25.7-26.3,35.6c-16.8,13.8-36.1,25.3-57.7,34.6c-56.2,24-117.5,35.9-183.8,35.9c-68,0-129.2-12-183.8-35.9
	c-14.1-6.2-27.6-12.8-40.8-19.7L0,282 M377,301c6,2.5,12.6,3.8,19.7,3.8c7.1,0,13.7-1.3,19.7-3.8c6.2-2.8,11.9-6.6,16.9-11.4
	c4.6-4.6,8.4-10.3,11.4-16.9c2.5-6.2,3.8-12.9,3.8-20c0-6.9-1.3-13.5-3.8-19.7c-2.5-6-6.3-11.6-11.4-16.9c-4.4-4.4-10-8.2-16.9-11.4
	c-6-2.5-12.6-3.8-19.7-3.8c-7.1,0-13.7,1.3-19.7,3.8c-6.2,2.8-11.9,6.6-16.9,11.4c-4.6,4.6-8.4,10.3-11.4,16.9
	c-2.5,6.2-3.8,12.8-3.8,19.7c0,7.1,1.3,13.8,3.8,20c2.5,6,6.3,11.6,11.4,16.9C364.4,293.9,370.1,297.7,377,301 M500,116.4
	c-21-13.4-41.1-24.2-60.5-32.5c-49.3-21.4-104-32.1-164.1-32.1c-37.8,0-73.6,4.3-107.5,12.8c3,2.5,5.8,5.1,8.3,7.6
	c10.4,10.6,18,21.9,22.8,33.9c5.1,12.4,7.6,25.7,7.6,39.7c0,13.8-2.5,27-7.6,39.4c-5.3,13.1-12.9,24.4-22.8,33.9
	c-10.8,10.4-22,18-33.5,22.8c-12,5.1-25.1,7.6-39.4,7.6c-15,0-28.1-2.5-39.4-7.6c-13.4-6-24.5-13.6-33.5-22.8
	c-10.4-10.6-18-21.9-22.8-33.9C2.5,172.8,0,159.6,0,145.8s2.5-27.1,7.6-39.7c5.5-13.8,14.3-25.7,26.3-35.6
	C50.7,56.7,70,45.2,91.6,35.9C147.8,11.9,209.1,0,275.4,0c68,0,129.2,12,183.8,35.9c14.1,6.2,27.6,12.8,40.8,19.7V116.4 M123,97.4
	c-6-2.5-12.6-3.8-19.7-3.8c-7.1,0-13.7,1.3-19.7,3.8c-6.2,2.8-11.9,6.6-16.9,11.4c-4.6,4.6-8.4,10.3-11.4,16.9
	c-2.5,6.2-3.8,12.9-3.8,20c0,6.9,1.3,13.5,3.8,19.7c2.5,6,6.3,11.6,11.4,16.9c4.4,4.4,10,8.2,16.9,11.4c6,2.5,12.6,3.8,19.7,3.8
	s13.7-1.3,19.7-3.8c6.2-2.8,11.9-6.6,16.9-11.4c4.6-4.6,8.4-10.3,11.4-16.9c2.5-6.2,3.8-12.8,3.8-19.7c0-7.1-1.3-13.8-3.8-20
	c-2.5-6-6.3-11.6-11.4-16.9C135.6,104.5,129.9,100.7,123,97.4"/>
</svg>
