<?xml version="1.0" encoding="utf-8"?>
<!-- Generator: Adobe Illustrator 28.3.0, SVG Export Plug-In . SVG Version: 6.00 Build 0)  -->
<svg version="1.1" id="Layer_1" xmlns="http://www.w3.org/2000/svg" xmlns:xlink="http://www.w3.org/1999/xlink" x="0px" y="0px"
	 viewBox="0 0 800 800" style="enable-background:new 0 0 800 800;" xml:space="preserve">
<path id="text2461" d="M404,490.7c-3.8-5.8-7.5-11.9-10.9-18.3c-17.3-32.5-26-68.3-26-107.4v-26.9c0-38.1-2.2-66.8-6.7-86.3
	c-6.8-29.9-15.3-44.9-25.3-44.9c-10.3,0-24.5,19.1-42.7,57.4c-14.3,30.1-21.5,62.2-21.5,96.2V441h-48.1v-103
	c0-37.8-2.8-66.6-8.3-86.3c-8.6-29.9-25.6-44.9-51-44.9h-23.1V146h26.9c32.3,0,57,14.5,74.1,43.6c9.4,16,15.7,31.9,18.9,47.5
	c6.4-19,15-35.5,25.7-49.4c21.6-27.8,40.3-41.7,56.1-41.7c15.2,0,31.3,14.5,48.4,43.6c9.2,15.4,15,31.2,17.3,47.5
	c4.3,29.7,6.4,55.3,6.4,76.7v35.6c0,30.6,4.1,56.8,12.2,78.6c7.9-17.3,16.9-31.1,26.9-41.4c9.6-9.8,22.4-18,38.5-24.4
	c12.8-5.1,27.7-7.7,44.6-7.7c14.3,0,27.6,2.6,39.8,7.7c12.4,5.1,23.6,12.7,33.7,22.8c9.8,9.8,17.4,21.2,22.8,34
	c5.1,12.6,7.7,26,7.7,40.1c0,13.9-2.6,27.2-7.7,39.8c-5.3,12.8-12.9,24.2-22.8,34c-9.2,9.2-20.4,16.8-33.7,22.8
	c-11.3,5.1-25.7,7.7-43,7.7c-17.5,0-34-2.6-49.4-7.7c-15.6-5.1-30-13-43.3-23.7c-3.6,9.4-7.5,18.3-11.5,26.6
	c-9.4,18.8-20.6,33.7-33.7,44.6c-16.9,14.1-32.6,23.9-47.1,29.5c-17.5,6.8-35.9,10.3-55.2,10.3h-18v-48.1h18
	c14.3,0,26.5-2.2,36.6-6.7c12.4-5.3,22.6-11.8,30.5-19.2c9-8.1,16.5-17.6,22.5-28.5C389.4,527.7,396.5,511.3,404,490.7 M458.5,478.2
	c16,17.5,31.5,28.4,46.5,32.7c9.6,2.8,19.1,4.2,28.5,4.2c10,0,18.2-1.4,24.4-4.2c6.8-3,12.9-7.1,18.3-12.2
	c5.1-5.1,9.3-11.2,12.5-18.3c2.8-6.2,4.2-13.4,4.2-21.5c0-7.7-1.4-15-4.2-21.8c-2.6-6.4-6.7-12.5-12.5-18.3
	c-5.3-5.1-11.4-9.2-18.3-12.2c-6.4-2.8-13.5-4.2-21.2-4.2c-7.3,0-14.9,1.4-22.8,4.2c-8.8,3.2-15.4,7.3-19.9,12.2
	C478.9,436,467.1,455.8,458.5,478.2"/>
</svg>
