<svg xmlns="http://www.w3.org/2000/svg" id="レイヤ_1" data-name="レイヤ− 1" viewBox="0 0 568 66"><link xmlns="" type="text/css" rel="stylesheet" id="dark-mode-custom-link"/><link xmlns="" type="text/css" rel="stylesheet" id="dark-mode-general-link"/><style xmlns="" lang="en" type="text/css" id="dark-mode-custom-style"/><style xmlns="" lang="en" type="text/css" id="dark-mode-native-style"/><style xmlns="" lang="en" type="text/css" id="dark-mode-native-sheet"/><path d="M27.19,15c-.63-2.22-2.3-6.54-8.82-6.54C14.58,8.49,8,11.38,8,21.85,8,28.5,11.84,35.8,18.52,35.8c4.37,0,8-2.32,8.89-6.86l7.84,0c-1.57,8-7.17,13.07-16.64,13.07-10,0-18.1-7.53-18.1-20.31C.51,8.8,9,2.15,18.71,2.26,30,2.39,34,9.56,34.42,15Z"/><polygon points="114.3 40.38 107.06 40.38 107.06 16.19 106.95 16.19 99.37 40.38 91.73 40.38 84.4 16.63 84.3 16.63 84.3 40.38 76.92 40.38 76.92 2.96 88.03 2.96 95.56 28.92 95.66 28.92 103.59 2.96 114.3 2.96 114.3 40.38"/><polygon points="188.13 9.61 168.63 9.61 168.63 17.19 185.45 17.19 185.45 24.01 168.63 24.01 168.63 33.65 188.25 33.65 188.25 40.38 160.33 40.38 160.33 2.79 188.13 2.79 188.13 9.61"/><path d="M55.63,1.78c-11,0-18,9.18-18,20s7.62,20.15,18,20.15,18-7.4,18-20.15C73.65,11,65.65,1.78,55.63,1.78Zm.17,33.83c-5.89.11-10.67-6.39-10.67-13.76S49,8.24,55.8,8.24c5.89,0,10.14,6.24,10.14,13.61S62.59,35.48,55.8,35.61Z"/><polygon points="156.06 40.33 148.81 40.33 148.81 16.15 148.71 16.15 141.12 40.33 133.49 40.33 126.16 16.58 126.06 16.58 126.06 40.33 118.68 40.33 118.68 2.92 129.78 2.92 137.31 28.88 137.42 28.88 145.35 2.92 156.06 2.92 156.06 40.33"/><path d="M285.59,20.16c-.32-1.69-1.63-3.49-5-3.49-4.58,0-4.77,1.83-4.77,3,0,5,17.5.16,17.5,11.23,0,7.75-7.79,9.69-12,9.69-6.17,0-12.22-3.16-12.43-10.25h6.44c0,2.24,1.32,4.68,6.2,4.68,3.67,0,4.24-2.35,4.53-3.31,1-5.28-17-.6-17-10.61,0-4.47,2.65-9.45,11.11-9.45,4.6,0,11,1,11.57,8.53Z"/><path d="M259,31.33A6.14,6.14,0,0,1,253.77,35c-6.12,0-6.81-4.38-7-6.34h19.4l.12-1.63c0-12.54-9.61-15.08-13.29-15.11-10.91,0-13.7,10.41-13.69,13.54,0,9.78,6.64,15.69,14.77,15.69,4.93,0,11.7-4.28,12.5-9.77Zm-6-13.58c2.44,0,5.41,1.27,5.85,5.48H247.09C247.52,19.81,249.42,17.75,253,17.75Z"/><path d="M229.8,3.16V15.22h-.1c-1.12-1.7-5.46-3.17-7.72-3.13-6.22,0-11.77,5.13-11.9,13.54C210,32.92,213.94,41,222,41c3,0,4.82-.44,7.85-3.3h.1v2.46h7v-37Zm-5.93,32c-4.46,0-6.58-4.06-6.58-8.58s2.25-8.39,6.58-8.39c3.94,0,6.26,3.87,6.26,8.39S227.43,35.12,223.87,35.12Z"/><path d="M332.94,20.5h15.62V40.43h-6.07V37c-3,2.17-6,4.87-11.53,4.7-8.81-.27-17-7.17-17-20.1,0-10.06,5.7-20.1,18-20,10.57,0,15.65,7.88,16.06,13h-6.88c-.63-3.19-3.37-6.44-8.78-6.44s-10.86,4.36-10.86,13.81c0,10.06,5.73,13.53,10.93,13.53a10,10,0,0,0,9.49-9h-9.05Z"/><path d="M372.68,3h-8.2L351.2,40.61H359l2.68-8.38h13.6l2.66,8.38h7.78Zm-9.21,23.66,5-14.93.11-.53,4.94,15.35Z"/><path d="M417.48,31.78c.16-7.14-2.43-8.14-5.44-9.44,3.27-.64,7-4.37,7-8S417.46,3.27,407.72,3.27h-18.5V40.36h7.49V25.25h7.91c4,.61,6.06,2.57,6.06,7.47,0,4.59.81,7.34,1.57,7.5H419S417.35,37.35,417.48,31.78ZM405.94,19.46h-9V9.23h9.54a4.87,4.87,0,0,1,5.1,5.08C411.6,17.85,408.38,19.46,405.94,19.46Z"/><polygon points="523.49 2.67 531.11 2.67 531.11 40.05 523.37 40.05 507.78 15.67 507.67 15.67 507.67 40.05 499.69 40.05 499.69 2.67 508.29 2.67 523.37 26.98 523.49 26.98 523.49 2.67"/><path d="M541.75,29.15c0,2.06,1,6.74,8.9,6.22,3.56-.43,7.32-1.67,7.32-5.57,0-2.16-2.56-3.69-6.45-4.62l-3.94-.86c-6.51-1.24-12.74-3.18-12.74-11.3,0-4.11,3.33-11.61,15.25-11.61,11.26,0,14.21,7.43,14.26,11.94h-7c-.21-1.64-1.4-5.61-7.72-5.61-3.93,0-7,1.33-7,4.8,0,2.88,2.72,3.81,4.25,4.18l9.4,2c4,.85,9.65,3.77,9.65,9.68,0,11.82-12.25,13.35-15.48,13.35-12.69,0-16.11-7.93-16.11-12.63Z"/><polygon points="432.02 49.02 437.76 50.47 437.89 44.68 442.3 44.66 442.4 50.47 448.01 49.02 449.43 53 443.88 54.89 447.37 59.89 443.83 62.04 440.08 57.6 436.68 62.44 433.06 59.69 436.25 54.89 430.74 52.98 432.02 49.02"/><path d="M477.47,1.56C466.43,1.56,459,11.17,459,22c0,11.41,8.05,20,18.45,20s18.31-7.55,18.31-20.3C495.78,10.88,488.07,1.56,477.47,1.56Zm.17,34.12c-5.89.12-11-6.53-11-13.9S470.85,8,477.64,8c5.89,0,10.43,6.39,10.43,13.76S484.43,35.55,477.64,35.68Z"/><path d="M448.6,14.82c-.63-2.22-2.73-6.54-9.25-6.54-3.79,0-10.35,2.89-10.35,13.35,0,6.65,3.82,14,10.5,14,4.36,0,8.09-2.14,9-6.67l7.84-.15C454.8,36.8,449.05,42,439.58,42c-10,0-18.09-7.67-18.09-20.46S430.25,1.64,440,1.75c11.3.13,15.71,7.6,16.13,13.07Z"/></svg>