<?xml version="1.0" encoding="UTF-8"?>
<svg id="Layer_1" data-name="Layer 1" xmlns="http://www.w3.org/2000/svg" viewBox="0 0 1199.08 121.75">
  <defs>
    <style>
      .cls-1 {
        fill: #000;
        stroke-width: 0px;
      }
    </style>
  </defs>
  <path class="cls-1" d="M28.86.75c-6.6,1.4-14.5,5.6-17.9,9.6C3.06,19.25.86,28.15.16,53.85c-.8,29.6,1.4,44.7,8,54.6s17.3,14,34,13c15.5-.9,26.7-6.9,31.9-17,2.7-5.3,4.8-15.8,4.8-24v-6.7h-26.7l-.5,9.7c-.6,10.8-2.4,16.5-5.9,18.4-3,1.6-8.6,1.3-11.4-.5-4.5-3-5-6.9-5-40.6s.5-37.5,4.8-40.5c3.1-2.2,10.3-1.9,12.6.4s4.1,8.1,4.1,12.7c0,1.7.3,4.6.6,6.3l.7,3.1h26l-.5-9.3c-.7-12.5-3.4-19.2-9.9-25.1-2.7-2.4-7-5.2-9.7-6.1C52.46.25,35.36-.55,28.86.75Z"/>
  <path class="cls-1" d="M203.86.75c-10.6,2.3-19.2,8.8-23.1,17.5-4.2,9.5-5.1,15.5-5.6,37-.5,23,.7,35.4,4.6,45.5,5.3,13.9,17.3,20.9,35.8,21,22.4,0,34.2-8.7,39.4-29,2-7.7,2-56.2,0-64-3.4-13.4-10.3-22-20.7-26-6.7-2.5-22.8-3.6-30.4-2ZM223.16,21.65c3,3.7,4.4,11.2,5.2,28.6.7,15.9-.9,41-2.8,45.6-2.1,5-5,7.1-9.6,7.1-5.7-.1-7.7-1.5-9.8-6.9-1.6-4.3-1.8-8.1-1.8-34.3,0-16.2.4-31.2.8-33.2.4-2.1,1.9-5.1,3.3-6.8,2.2-2.6,3.3-3,7.4-3s5.2.4,7.3,2.9Z"/>
  <path class="cls-1" d="M378.36,1.05c-15,4-22.8,13.4-26.1,31.5-1.8,10.3-1.8,46,0,56.4,4.3,23.9,17.3,33.9,42.6,32.5,20.5-1,30.9-9.3,35.7-28.3,2.6-10,2.5-54.6,0-64.8-3.4-13.6-9.9-21.6-20.6-25.7-7-2.7-24.1-3.5-31.6-1.6ZM398.36,21.15c4.4,4.4,5,8.9,5,40.1s-.4,33.5-4.6,38.9c-1.7,2.2-2.9,2.6-7,2.6s-5.4-.5-7.4-2.6c-4.1-4.4-5-11.5-5-39.9s.8-34.4,5-38.9c3.3-3.6,10.5-3.7,14-.2Z"/>
  <path class="cls-1" d="M750.86,1.05c-14,3.3-21.5,11-25.6,26.2-1.3,4.6-3.3,25.3-3.3,33.5,0,1.9.5,9.1,1,16,1.5,20.1,4.7,28.9,13,36.4,7.3,6.5,12.7,8.1,27.9,8.1,10.7-.1,13.3-.4,18.4-2.4,8-3.2,14.6-9.8,17.5-17.7,4-10.6,4.6-15.9,4.5-41.4,0-21.9-.3-25.3-2.2-32.4-5.2-18.8-15.2-26.4-35.7-27.2-6-.2-12.2.1-15.5.9ZM770.06,20.75c4.6,3.6,5.3,8.9,5.3,40.5s-.5,34.5-4.8,39.2c-1.5,1.7-3.2,2.3-6.3,2.3-6,0-7.2-.7-9.6-5.4-4.9-9.5-4.8-63.8.1-73.4,2.3-4.6,3.1-5,8.7-5.1,2.7-.1,5,.6,6.6,1.9Z"/>
  <path class="cls-1" d="M89.36,2.95c-.3.7-.4,27.2-.3,58.8l.3,57.5h27l.3-24.8.2-24.7h22v50.1l13.8-.3,13.7-.3V2.25l-13.7-.3-13.8-.3v44.1h-22l-.2-21.8-.3-21.7-13.3-.3c-10-.2-13.4.1-13.7,1Z"/>
  <path class="cls-1" d="M291.86,2.85c-18.8,2.8-27.9,15.9-26.8,38.5,1.1,22.4,13.6,32.4,40.5,32.4h8.3l.2,22.7.3,22.8,13.8.3,13.7.3V1.75l-22.2.1c-12.3.1-24.8.5-27.8,1ZM313.86,38.05v15.2l-5.9-.2c-7.9-.3-11.4-2.2-13.5-7.3-3.1-7.7-1.1-17.1,4.3-20.7,2.6-1.7,4.8-2.3,9.2-2.3h5.9v15.3Z"/>
  <path class="cls-1" d="M433.56,2.45c-.2.5,5.3,26.9,12.3,58.8l12.7,58,17.5.3c17.5.2,17.6.2,18.1-2,2.8-10.9,25.7-113,25.7-114.2,0-1.4-1.9-1.6-14.4-1.6-14.1,0-14.4,0-14.9,2.2-.3,1.3-3.3,20.5-6.7,42.8s-6.5,41.3-6.9,42.4c-.4,1-3.5-16.7-7.4-41.8-3.6-24-6.9-44.1-7.2-44.6-.7-1.2-28.2-1.4-28.8-.3Z"/>
  <path class="cls-1" d="M536.46,3.45c-.3,1-4.4,17.1-9.2,35.8-4.7,18.7-11.2,44.2-14.4,56.7s-5.5,22.9-5.2,23.2,6.5.6,13.9.6c9.8,0,13.5-.3,13.8-1.3.3-.6,1.3-5.7,2.3-11.2l1.8-10,14.1-.3,14.1-.3,1.2,5.8c.6,3.2,1.6,8.3,2.3,11.3l1.2,5.5,12.9.3c7.2.1,13.5.1,14.2-.2.8-.3-3.1-17.6-13.5-58.8l-14.6-58.3-17.2-.3c-15.7-.2-17.2-.1-17.7,1.5ZM558.36,48.85c2.5,12.8,4.5,24.1,4.5,25.1,0,1.6-1,1.8-9.6,1.8-9.5,0-9.6,0-9.1-2.3.3-1.2,2.4-12.7,4.8-25.4,2.3-12.8,4.4-23.1,4.6-22.9.2.1,2.3,10.8,4.8,23.7Z"/>
  <path class="cls-1" d="M650.36,2.95c-.3.7-.4,27.2-.3,58.8l.3,57.5h67l.3-11.3.3-11.2h-40.1l-.2-47.3-.3-47.2-13.3-.3c-10-.2-13.4.1-13.7,1Z"/>
  <path class="cls-1" d="M806.86,3.05c0,2.5,19.9,114.7,20.5,115.7,1,1.6,30.5,1.4,30.5-.3,0-.6.5-4.4,1.1-8.2.5-3.9,3-21.6,5.4-39.4,2.5-17.8,4.6-32.6,4.8-32.7.2-.2,2.9,17.7,6.1,39.8,3.1,22.1,6,40.6,6.2,41,.3.4,7.2.8,15.4.8h14.8l.6-2.8c.3-1.5,3.3-18.2,6.6-37.2,3.2-19,7.5-43.7,9.4-55,2-11.3,3.6-21.1,3.6-21.8,0-1-3-1.2-13.2-1l-13.2.3-4.8,39.5c-2.6,21.7-4.8,40.2-4.8,41-.3,3.1-1.1-1.4-7-39.5-3.3-21.5-6.2-39.6-6.5-40.3-.3-.9-3.8-1.2-12.9-1.2h-12.5l-.6,3.2c-.3,1.8-3,20.1-6,40.7-3.1,20.6-5.7,37.6-5.8,37.8-.2.2-1.8-12-3.6-27-1.8-14.9-4.1-33.3-5-40.7l-1.6-13.5-13.8-.3c-10.8-.2-13.7,0-13.7,1.1Z"/>
  <path class="cls-1" d="M940.86,13.25v11.5h40v23h-38v23h38v26h-42v23l34.8-.2,34.7-.3V2.25l-33.7-.3-33.8-.2v11.5Z"/>
  <path class="cls-1" d="M1018.86,60.75v59.1l12.3-.3,12.2-.3.3-39.5.3-39.5,10,33c5.4,18.1,10.8,36,11.9,39.7l2.1,6.8h30.9V1.75h-25v37.7c0,20.7-.4,37.3-.8,36.7-.5-.5-5.3-16-10.7-34.4s-10.4-35-11.1-36.8l-1.3-3.2h-31.1v59Z"/>
  <path class="cls-1" d="M1106.66,2.25c-.2.3,6.1,26.7,14.1,58.7l14.6,58.3h34.8l14.4-57c7.8-31.4,14.4-57.7,14.5-58.5.3-1.3-1.9-1.5-13.5-1.8-15.9-.3-14.6-1.2-16.6,11.8-2,12.2-.3,11.1-15.9,10.8l-13.7-.3-2.2-10.5c-1.2-5.8-2.2-10.8-2.2-11.3-.1-.8-27.5-1-28.3-.2ZM1162.46,48.45c-.3,1.6-2.4,12.9-4.6,25.3-2.3,12.3-4.3,22.6-4.4,22.8-.4.4-9.6-46.8-9.6-49.1,0-1.5,1.3-1.7,9.6-1.7h9.6l-.6,2.7Z"/>
</svg>