<svg width="43" height="31" viewBox="0 0 43 31" fill="none" xmlns="http://www.w3.org/2000/svg">
<path d="M0 1C0 0.447715 0.447715 0 1 0H6C6.55228 0 7 0.447715 7 1V6C7 6.55228 6.55228 7 6 7H1C0.447715 7 0 6.55228 0 6V1Z" fill="white"/>
<path d="M12 1C12 0.447715 12.4477 0 13 0H18C18.5523 0 19 0.447715 19 1V6C19 6.55228 18.5523 7 18 7H13C12.4477 7 12 6.55228 12 6V1Z" fill="white"/>
<path d="M24 1C24 0.447715 24.4477 0 25 0H30C30.5523 0 31 0.447715 31 1V6C31 6.55228 30.5523 7 30 7H25C24.4477 7 24 6.55228 24 6V1Z" fill="white"/>
<path d="M36 1C36 0.447715 36.4477 0 37 0H42C42.5523 0 43 0.447715 43 1V6C43 6.55228 42.5523 7 42 7H37C36.4477 7 36 6.55228 36 6V1Z" fill="white"/>
<path d="M0 13C0 12.4477 0.447715 12 1 12H6C6.55228 12 7 12.4477 7 13V18C7 18.5523 6.55228 19 6 19H1C0.447715 19 0 18.5523 0 18V13Z" fill="white"/>
<path d="M12 13C12 12.4477 12.4477 12 13 12H18C18.5523 12 19 12.4477 19 13V18C19 18.5523 18.5523 19 18 19H13C12.4477 19 12 18.5523 12 18V13Z" fill="white"/>
<path d="M24 13C24 12.4477 24.4477 12 25 12H30C30.5523 12 31 12.4477 31 13V18C31 18.5523 30.5523 19 30 19H25C24.4477 19 24 18.5523 24 18V13Z" fill="white"/>
<path d="M36 13C36 12.4477 36.4477 12 37 12H42C42.5523 12 43 12.4477 43 13V18C43 18.5523 42.5523 19 42 19H37C36.4477 19 36 18.5523 36 18V13Z" fill="white"/>
<path d="M0 25C0 24.4477 0.447715 24 1 24H6C6.55228 24 7 24.4477 7 25V30C7 30.5523 6.55228 31 6 31H1C0.447715 31 0 30.5523 0 30V25Z" fill="white"/>
<path d="M12 25C12 24.4477 12.4477 24 13 24H18C18.5523 24 19 24.4477 19 25V30C19 30.5523 18.5523 31 18 31H13C12.4477 31 12 30.5523 12 30V25Z" fill="white"/>
<path d="M24 25C24 24.4477 24.4477 24 25 24H30C30.5523 24 31 24.4477 31 25V30C31 30.5523 30.5523 31 30 31H25C24.4477 31 24 30.5523 24 30V25Z" fill="white"/>
<path d="M36 25C36 24.4477 36.4477 24 37 24H42C42.5523 24 43 24.4477 43 25V30C43 30.5523 42.5523 31 42 31H37C36.4477 31 36 30.5523 36 30V25Z" fill="white"/>
</svg>
