<svg width="65" height="65" viewBox="0 0 65 65" fill="none" xmlns="http://www.w3.org/2000/svg">
<path d="M30.882 38.257V38.1229C30.8969 36.7 31.0459 35.5677 31.3289 34.7259C31.612 33.8841 32.0143 33.2025 32.5358 32.681C33.0572 32.1596 33.683 31.6791 34.413 31.2395C34.8526 30.9714 35.2474 30.6548 35.5975 30.2897C35.9476 29.9173 36.2233 29.4889 36.4244 29.0047C36.633 28.5205 36.7373 27.9841 36.7373 27.3956C36.7373 26.6656 36.5659 26.0323 36.2233 25.496C35.8806 24.9596 35.4224 24.5462 34.8488 24.2556C34.2752 23.9651 33.6383 23.8198 32.938 23.8198C32.3272 23.8198 31.7387 23.9465 31.1725 24.1998C30.6063 24.4531 30.1333 24.8516 29.7534 25.3954C29.3734 25.9392 29.1537 26.6507 29.0941 27.5297H26.2782C26.3378 26.2633 26.6656 25.1794 27.2615 24.278C27.8649 23.3766 28.6583 22.6875 29.6416 22.2108C30.6324 21.734 31.7312 21.4956 32.938 21.4956C34.2491 21.4956 35.3889 21.7563 36.3574 22.2778C37.3332 22.7993 38.0856 23.5144 38.6145 24.4233C39.1509 25.3321 39.4191 26.3676 39.4191 27.5297C39.4191 28.3491 39.2924 29.0904 39.0392 29.7534C38.7933 30.4164 38.4358 31.0086 37.9664 31.5301C37.5046 32.0515 36.9459 32.5134 36.2903 32.9157C35.6348 33.3254 35.1096 33.7575 34.7147 34.2119C34.3199 34.6589 34.0331 35.1915 33.8543 35.8098C33.6755 36.4281 33.5787 37.1991 33.5638 38.1229V38.257H30.882ZM32.3123 44.8721C31.761 44.8721 31.288 44.6747 30.8931 44.2799C30.4983 43.8851 30.3009 43.412 30.3009 42.8608C30.3009 42.3095 30.4983 41.8365 30.8931 41.4416C31.288 41.0468 31.761 40.8494 32.3123 40.8494C32.8635 40.8494 33.3366 41.0468 33.7314 41.4416C34.1262 41.8365 34.3236 42.3095 34.3236 42.8608C34.3236 43.2258 34.2305 43.561 34.0443 43.8664C33.8655 44.1719 33.6234 44.4177 33.318 44.6039C33.02 44.7827 32.6847 44.8721 32.3123 44.8721Z" fill="white"/>
<path d="M32.5 63.5C49.6208 63.5 63.5 49.6208 63.5 32.5C63.5 15.3792 49.6208 1.5 32.5 1.5C15.3792 1.5 1.5 15.3792 1.5 32.5C1.5 49.6208 15.3792 63.5 32.5 63.5Z" stroke="white" stroke-width="3"/>
</svg>
