<svg width="54" height="54" viewBox="0 0 54 54" fill="none" xmlns="http://www.w3.org/2000/svg">
<path d="M25.6836 31.6836V31.5745C25.6958 30.417 25.817 29.4958 26.0473 28.8109C26.2776 28.1261 26.6048 27.5715 27.0291 27.1473C27.4533 26.723 27.9624 26.3321 28.5564 25.9745C28.9139 25.7564 29.2352 25.4988 29.52 25.2018C29.8048 24.8988 30.0291 24.5503 30.1927 24.1564C30.3624 23.7624 30.4473 23.3261 30.4473 22.8473C30.4473 22.2533 30.3079 21.7382 30.0291 21.3018C29.7503 20.8655 29.3776 20.5291 28.9109 20.2927C28.4442 20.0564 27.9261 19.9382 27.3564 19.9382C26.8594 19.9382 26.3806 20.0412 25.92 20.2473C25.4594 20.4533 25.0745 20.7776 24.7655 21.22C24.4564 21.6624 24.2776 22.2412 24.2291 22.9564H21.9382C21.9867 21.9261 22.2533 21.0442 22.7382 20.3109C23.2291 19.5776 23.8745 19.017 24.6745 18.6291C25.4806 18.2412 26.3745 18.0473 27.3564 18.0473C28.423 18.0473 29.3503 18.2594 30.1382 18.6836C30.9321 19.1079 31.5442 19.6897 31.9745 20.4291C32.4109 21.1685 32.6291 22.0109 32.6291 22.9564C32.6291 23.623 32.5261 24.2261 32.32 24.7655C32.12 25.3048 31.8291 25.7867 31.4473 26.2109C31.0715 26.6352 30.617 27.0109 30.0836 27.3382C29.5503 27.6715 29.123 28.023 28.8018 28.3927C28.4806 28.7564 28.2473 29.1897 28.1018 29.6927C27.9564 30.1958 27.8776 30.823 27.8655 31.5745V31.6836H25.6836ZM26.8473 37.0655C26.3988 37.0655 26.0139 36.9048 25.6927 36.5836C25.3715 36.2624 25.2109 35.8776 25.2109 35.4291C25.2109 34.9806 25.3715 34.5958 25.6927 34.2745C26.0139 33.9533 26.3988 33.7927 26.8473 33.7927C27.2958 33.7927 27.6806 33.9533 28.0018 34.2745C28.323 34.5958 28.4836 34.9806 28.4836 35.4291C28.4836 35.7261 28.4079 35.9988 28.2564 36.2473C28.1109 36.4958 27.9139 36.6958 27.6655 36.8473C27.423 36.9927 27.1503 37.0655 26.8473 37.0655Z" fill="white"/>
<path d="M27 52.5C41.0833 52.5 52.5 41.0833 52.5 27C52.5 12.9167 41.0833 1.5 27 1.5C12.9167 1.5 1.5 12.9167 1.5 27C1.5 41.0833 12.9167 52.5 27 52.5Z" stroke="white" stroke-width="3"/>
</svg>
