<?xml version="1.0" standalone="no"?>
<!DOCTYPE svg PUBLIC "-//W3C//DTD SVG 20010904//EN"
 "http://www.w3.org/TR/2001/REC-SVG-20010904/DTD/svg10.dtd">
<svg version="1.0" xmlns="http://www.w3.org/2000/svg"
 width="600.000000pt" height="200.000000pt" viewBox="0 0 600.000000 200.000000"
 preserveAspectRatio="xMidYMid meet">

<g transform="translate(0.000000,200.000000) scale(0.100000,-0.100000)"
fill="#000000" stroke="none">
<path d="M405 1328 c-87 -30 -130 -96 -123 -186 8 -90 43 -123 197 -182 121
-46 141 -61 141 -106 0 -45 -38 -74 -97 -74 -72 0 -113 29 -113 81 0 17 -8 19
-76 19 l-76 0 7 -37 c21 -116 113 -183 249 -183 164 0 277 109 247 239 -19 85
-64 122 -211 171 -107 36 -130 52 -130 90 0 41 33 65 92 65 42 0 53 -4 74 -28
13 -15 24 -35 24 -43 0 -11 16 -14 70 -14 77 0 77 0 59 63 -15 54 -62 103
-116 121 -52 18 -172 20 -218 4z"/>
<path d="M985 1324 c-74 -27 -115 -85 -115 -164 0 -97 48 -145 202 -201 109
-41 138 -63 138 -109 0 -43 -41 -70 -105 -70 -61 0 -105 31 -105 75 0 25 -1
25 -76 25 l-76 0 6 -37 c12 -64 55 -124 111 -152 65 -34 171 -41 245 -16 104
35 165 133 139 228 -23 87 -63 118 -208 166 -106 34 -131 52 -131 92 0 49 55
78 120 64 30 -7 70 -47 70 -71 0 -11 18 -14 71 -14 l71 0 -7 37 c-14 76 -59
127 -134 152 -47 15 -168 13 -216 -5z"/>
<path d="M0 1005 l0 -325 75 0 75 0 0 325 0 325 -75 0 -75 0 0 -325z"/>
<path d="M1470 1005 l0 -325 195 0 195 0 0 55 0 55 -130 0 -130 0 0 80 0 80
125 0 126 0 -3 58 -3 57 -122 3 -123 3 0 74 0 75 130 0 130 0 0 55 0 55 -195
0 -195 0 0 -325z"/>
<path d="M1940 1323 c0 -5 47 -91 105 -193 l105 -184 0 -133 0 -133 70 0 70 0
0 133 0 132 109 193 110 192 -77 0 -77 0 -63 -120 c-35 -66 -67 -120 -71 -120
-5 0 -37 54 -72 120 l-64 120 -72 0 c-40 0 -73 -3 -73 -7z"/>
<path d="M2780 1005 l0 -325 70 0 70 0 2 212 3 212 61 -210 61 -209 59 0 59 0
60 205 c34 113 64 212 67 220 4 8 7 -85 7 -207 l1 -223 65 0 65 0 0 325 0 325
-98 0 -97 0 -59 -192 c-32 -106 -61 -199 -65 -206 -4 -7 -23 39 -45 110 -21
68 -49 160 -63 206 l-25 82 -99 0 -99 0 0 -325z"/>
<path d="M3590 1005 l0 -325 70 0 70 0 0 325 0 325 -70 0 -70 0 0 -325z"/>
<path d="M3822 1308 c8 -13 58 -100 111 -193 l97 -171 0 -132 0 -132 70 0 70
0 0 134 0 134 105 183 c58 101 105 187 105 192 0 4 -33 7 -73 7 l-73 0 -64
-120 c-35 -66 -67 -120 -71 -120 -4 0 -36 54 -71 120 l-63 120 -79 0 -78 0 14
-22z"/>
<path d="M4542 1303 c-5 -16 -55 -154 -110 -308 -55 -154 -103 -288 -107 -297
-6 -16 0 -18 67 -18 l75 0 24 80 24 80 97 0 97 0 25 -77 24 -78 72 -3 c59 -2
71 0 68 12 -2 8 -52 154 -113 325 l-110 311 -62 0 c-58 0 -62 -2 -71 -27z
m128 -350 c0 -9 -18 -13 -61 -13 -45 0 -60 3 -57 13 3 6 15 44 27 82 13 39 25
77 28 85 5 14 63 -139 63 -167z"/>
<path d="M4970 1005 l0 -325 70 0 70 0 2 165 3 165 118 -165 119 -165 90 0
c86 0 90 1 76 18 -42 48 -248 314 -248 321 0 4 54 74 120 155 66 82 120 150
120 152 0 2 -37 4 -83 4 l-83 0 -114 -151 -115 -152 -3 152 -3 151 -69 0 -70
0 0 -325z"/>
<path d="M5610 1005 l0 -325 195 0 195 0 0 55 0 55 -130 0 -130 0 0 80 0 79
123 3 122 3 0 55 0 55 -122 3 -123 3 0 74 0 75 130 0 130 0 0 55 0 55 -195 0
-195 0 0 -325z"/>
</g>
</svg>
