<?xml version="1.0" encoding="UTF-8"?>
<svg id="Layer_1" data-name="Layer 1" xmlns="http://www.w3.org/2000/svg" viewBox="0 0 600 67.9">
  <defs>
    <style>
      .cls-1 {
        fill: #000;
        stroke-width: 0px;
      }
    </style>
  </defs>
  <path class="cls-1" d="M40.5,1.1c-8.7,3-13,9.6-12.3,18.6.8,9,4.3,12.3,19.7,18.2,12.1,4.6,14.1,6.1,14.1,10.6s-3.8,7.4-9.7,7.4c-7.2,0-11.3-2.9-11.3-8.1,0-1.7-.8-1.9-7.6-1.9h-7.6l.7,3.7c2.1,11.6,11.3,18.3,24.9,18.3,16.4,0,27.7-10.9,24.7-23.9-1.9-8.5-6.4-12.2-21.1-17.1-10.7-3.6-13-5.2-13-9,0-4.1,3.3-6.5,9.2-6.5,4.2,0,5.3.4,7.4,2.8,1.3,1.5,2.4,3.5,2.4,4.3,0,1.1,1.6,1.4,7,1.4q7.7,0,5.9-6.3c-1.5-5.4-6.2-10.3-11.6-12.1-5.2-1.8-17.2-2-21.8-.4Z"/>
  <path class="cls-1" d="M98.5,1.5c-7.4,2.7-11.5,8.5-11.5,16.4,0,9.7,4.8,14.5,20.2,20.1,10.9,4.1,13.8,6.3,13.8,10.9,0,4.3-4.1,7-10.5,7s-10.5-3.1-10.5-7.5c0-2.5-.1-2.5-7.6-2.5h-7.6l.6,3.7c1.2,6.4,5.5,12.4,11.1,15.2,6.5,3.4,17.1,4.1,24.5,1.6,10.4-3.5,16.5-13.3,13.9-22.8-2.3-8.7-6.3-11.8-20.8-16.6-10.6-3.4-13.1-5.2-13.1-9.2,0-4.9,5.5-7.8,12-6.4,3,.7,7,4.7,7,7.1,0,1.1,1.8,1.4,7.1,1.4h7.1l-.7-3.7c-1.4-7.6-5.9-12.7-13.4-15.2-4.7-1.5-16.8-1.3-21.6.5Z"/>
  <path class="cls-1" d="M0,33.4v32.5h15V.9H0v32.5Z"/>
  <path class="cls-1" d="M147,33.4v32.5h39v-11h-26v-16h25.1l-.3-5.8-.3-5.7-12.2-.3-12.3-.3v-14.9h26V.9h-39v32.5Z"/>
  <path class="cls-1" d="M194,1.6c0,.5,4.7,9.1,10.5,19.3l10.5,18.4v26.6h14v-26.5l10.9-19.3L250.9.9h-15.4l-6.3,12c-3.5,6.6-6.7,12-7.1,12-.5,0-3.7-5.4-7.2-12l-6.4-12h-7.2c-4,0-7.3.3-7.3.7Z"/>
  <path class="cls-1" d="M278,33.4v32.5h14l.2-21.2.3-21.2,6.1,21,6.1,20.9h11.8l6-20.5c3.4-11.3,6.4-21.2,6.7-22,.4-.8.7,8.5.7,20.7l.1,22.3h13V.9h-19.5l-5.9,19.2c-3.2,10.6-6.1,19.9-6.5,20.6s-2.3-3.9-4.5-11c-2.1-6.8-4.9-16-6.3-20.6l-2.5-8.2h-19.8v32.5Z"/>
  <path class="cls-1" d="M359,33.4v32.5h14V.9h-14v32.5Z"/>
  <path class="cls-1" d="M382.2,3.1c.8,1.3,5.8,10,11.1,19.3l9.7,17.1v26.4h14v-26.8l10.5-18.3c5.8-10.1,10.5-18.7,10.5-19.2,0-.4-3.3-.7-7.3-.7h-7.3l-6.4,12c-3.5,6.6-6.7,12-7.1,12s-3.6-5.4-7.1-12l-6.3-12h-15.7l1.4,2.2Z"/>
  <path class="cls-1" d="M454.2,3.6c-.5,1.6-5.5,15.4-11,30.8s-10.3,28.8-10.7,29.7c-.6,1.6,0,1.8,6.7,1.8h7.5l2.4-8,2.4-8h19.4l2.5,7.7,2.4,7.8,7.2.3c5.9.2,7.1,0,6.8-1.2-.2-.8-5.2-15.4-11.3-32.5l-11-31.1h-6.2c-5.8,0-6.2.2-7.1,2.7ZM467,38.6c0,.9-1.8,1.3-6.1,1.3s-6-.3-5.7-1.3c.3-.6,1.5-4.4,2.7-8.2,1.3-3.9,2.5-7.7,2.8-8.5.5-1.4,6.3,13.9,6.3,16.7Z"/>
  <path class="cls-1" d="M497,33.4v32.5h14l.2-16.5.3-16.5,11.8,16.5,11.9,16.5h9c8.6,0,9-.1,7.6-1.8-4.2-4.8-24.8-31.4-24.8-32.1,0-.4,5.4-7.4,12-15.5,6.6-8.2,12-15,12-15.2s-3.7-.4-8.3-.4h-8.3l-11.4,15.1-11.5,15.2-.3-15.2-.3-15.1h-13.9v32.5Z"/>
  <path class="cls-1" d="M561,33.4v32.5h39v-11h-26v-15.9l12.3-.3,12.2-.3v-11l-12.2-.3-12.3-.3v-14.9h26V.9h-39v32.5Z"/>
</svg>