<?xml version="1.0" encoding="utf-8"?>
<!-- Generator: Adobe Illustrator 28.3.0, SVG Export Plug-In . SVG Version: 6.00 Build 0)  -->
<svg version="1.1" id="Layer_1" xmlns="http://www.w3.org/2000/svg" xmlns:xlink="http://www.w3.org/1999/xlink" x="0px" y="0px"
	 viewBox="0 0 800 800" style="enable-background:new 0 0 800 800;" xml:space="preserve">
<path id="text2457" d="M496.5,574.3c-2.4,9.4-3.6,17.2-3.6,23.4c0,9.4,1.2,17.1,3.6,23c3.2,7,7,12.5,11.3,16.6
	c4.8,4.6,10.2,8.2,16.2,10.9c5.9,2.7,15.1,4,27.5,4c11,0,20.7-1.9,29.1-5.7c10.5-4.6,19.4-10.4,26.7-17.4L650,672
	c-11.8,11.3-27.5,21.5-46.8,30.7c-14,6.7-31.2,10.1-51.7,10.1c-20.7,0-37.4-2.8-50.1-8.5c-14.5-6.5-26.7-14.5-36.3-24.2
	c-10.8-10.8-18.8-22.8-24.2-35.9c-5.4-13.5-8.1-28.9-8.1-46.4c0-19.1,2.8-35.8,8.5-50.1c20.5-50.3,40.4-88.3,59.8-113.9
	c24.2-32,42.9-66.1,56.1-102.2c5.9-15.9,8.9-33.9,8.9-54.1c0-21.8-3-40-8.9-54.5c-5.7-14-14.5-27.2-26.7-39.6
	c-10.5-10.8-23.6-19.7-39.2-26.7c-13.2-5.9-28.5-8.9-46-8.9c-16.7,0-32,3-46,8.9c-13.5,5.7-26.5,14.5-39.2,26.7
	c-11.6,11-20.5,24.2-26.7,39.6c-5.9,14.5-8.9,30-8.9,46.4c0,17.5,3,32.8,8.9,46c7.3,15.9,17.6,35.8,31.1,59.8
	c18,31.5,27.1,61.4,27.1,89.7c0,16.2-3,31.5-8.9,46c-5.7,14-14.5,27.2-26.7,39.6c-10.5,10.8-23.6,19.7-39.2,26.7
	c-13.2,5.9-28.5,8.9-46,8.9c-16.7,0-32-3-46-8.9c-13.5-5.7-26.5-14.5-39.2-26.7c-11.6-11-20.5-24.2-26.7-39.6
	c-5.9-14.5-8.9-29.9-8.9-46c0-16.4,3-31.9,8.9-46.4c5.7-14,14.5-27.2,26.7-39.6c10.5-10.8,23.6-19.7,39.2-26.7
	c13.2-5.9,28.5-8.9,46-8.9h6.9c-9.2-20.7-13.7-45.2-13.7-73.5c0-26.1,4.4-49.5,13.3-70.3c9.7-22.6,23-42.4,40-59.4
	c17-17,36.6-30.2,59-39.6c21-8.9,44-13.3,69.1-13.3c26.4,0,49.4,4.4,69.1,13.3c23.4,10.5,43.1,23.7,59,39.6
	c17.8,17.8,31.1,37.6,40,59.4c8.9,21.8,13.3,47.9,13.3,78.4c0,30.2-4.4,55.9-13.3,77.1c-16.7,40.7-37.3,78.1-61.8,112.3
	C523.7,506.8,505.4,542.5,496.5,574.3 M293.8,408.3c-7-3-14.7-4.4-23-4.4c-8.3,0-16,1.5-23,4.4c-7.3,3.2-13.9,7.7-19.8,13.3
	c-5.9,6.2-10.4,12.8-13.3,19.8c-3,7.3-4.4,15.1-4.4,23.4c0,8.1,1.5,15.8,4.4,23c3,7,7.4,13.6,13.3,19.8c5.9,5.7,12.5,10.1,19.8,13.3
	c7,3,14.7,4.4,23,4.4c8.3,0,16-1.5,23-4.4c7.3-3.2,13.9-7.7,19.8-13.3c5.9-6.2,10.4-12.8,13.3-19.8c3-7.3,4.4-14.9,4.4-23
	c0-8.3-1.5-16.2-4.4-23.4c-3-7-7.4-13.6-13.3-19.8C307.6,416,301,411.5,293.8,408.3"/>
</svg>
