<?xml version="1.0" encoding="utf-8"?>
<!-- Generator: Adobe Illustrator 28.3.0, SVG Export Plug-In . SVG Version: 6.00 Build 0)  -->
<svg version="1.1" id="Layer_1" xmlns="http://www.w3.org/2000/svg" xmlns:xlink="http://www.w3.org/1999/xlink" x="0px" y="0px"
	 viewBox="0 0 500 454.7" style="enable-background:new 0 0 500 454.7;" xml:space="preserve">
<path id="text2429" d="M191.4,303.9H0v-50.3h115.3c-8-10.3-14.7-21.4-20.1-33.5c-8.3-19-12.4-39.1-12.4-60.3
	c0-21.9,4.1-42.3,12.4-61.3c8.7-19.7,21-37,36.9-51.9c15.9-15,34-26.6,54.3-34.9C205.8,3.9,227.1,0,250.1,0
	c24.1,0,45.4,3.9,63.7,11.7c21.2,9.2,39.3,20.8,54.3,34.9c15.9,15,28.1,32.3,36.9,51.9c8.3,19,12.4,39.4,12.4,61.3
	c0,21.2-4.1,41.3-12.4,60.3c-5.4,12.1-12.1,23.2-20.1,33.5H500v50.3H308.3v-50.3c8.5-4.7,16.5-10.4,24.1-17.1
	c10.9-9.6,19.5-21.4,25.8-35.5c5.8-13.2,8.7-27,8.7-41.6c0-14.7-2.9-28.7-8.7-41.9c-6-13.2-14.6-25-25.8-35.5
	c-10.5-9.6-23.1-17.5-37.9-23.8c-12.7-5.4-27.6-8-44.6-8c-16.1,0-30.9,2.7-44.6,8c-14.1,5.6-26.7,13.5-37.9,23.8
	c-11.2,10.5-19.8,22.3-25.8,35.5c-5.8,13.2-8.7,27.1-8.7,41.9c0,14.5,2.9,28.4,8.7,41.6c6,13.2,14.6,25,25.8,35.5
	c6.9,6.5,14.9,12.2,23.8,17.1v50.3 M0,454.7v-50.3h500v50.3H0"/>
</svg>
