<?xml version="1.0" encoding="utf-8"?>
<!-- Generator: Adobe Illustrator 28.3.0, SVG Export Plug-In . SVG Version: 6.00 Build 0)  -->
<svg version="1.1" id="Layer_1" xmlns="http://www.w3.org/2000/svg" xmlns:xlink="http://www.w3.org/1999/xlink" x="0px" y="0px"
	 viewBox="0 0 135 19" style="enable-background:new 0 0 135 19;" xml:space="preserve">
<style type="text/css">
	.st0{fill-rule:evenodd;clip-rule:evenodd;fill:#111111;}
</style>
<path class="st0" d="M124.4,2.9v8.6l0,0.3c0,0.6,0.1,1.1,0.3,1.3c0.2,0.2,0.5,0.4,1.1,0.5c0.2,0,0.3,0.1,0.3,0.1c0,0,0,0.1,0,0.2
	c0,0.2-0.1,0.2-0.2,0.2c-0.1,0-0.2,0-0.3,0c-0.5-0.1-1.2-0.1-1.9-0.1c-0.8,0-1.4,0-1.8,0.1c-0.1,0-0.2,0-0.2,0
	c-0.1,0-0.2-0.1-0.2-0.2c0-0.1,0.1-0.2,0.2-0.2c0.5-0.2,0.7-0.6,0.7-1.3l0-0.6l0-0.3V3.7c0-0.8-0.1-1.4-0.2-1.7
	c-0.1-0.3-0.4-0.5-0.8-0.5c-0.2,0-0.3-0.1-0.3-0.3c0-0.1,0-0.2,0.1-0.2c0.1,0,0.3-0.1,0.6-0.2c0.8-0.2,1.5-0.4,2-0.7l0.3-0.2
	c0.1,0,0.1-0.1,0.2-0.1c0.1,0,0.1,0.1,0.1,0.2c0,0.1,0,0.2,0,0.3l0,0.2C124.4,1.5,124.4,2.3,124.4,2.9z M4.3,1.4l4,8.7
	c0.2,0.4,0.3,0.6,0.4,0.6c0.1,0,0.2-0.1,0.4-0.4l3.7-7.8c0.3-0.7,0.6-1.2,0.7-1.4c0.1-0.2,0.3-0.3,0.6-0.3c0.1,0,0.2,0,0.4,0
	c0.2,0,0.4,0,0.6,0c0.3,0,0.6,0,1-0.1c0.2,0,0.3,0,0.4,0c0.2,0,0.3,0.1,0.3,0.3c0,0.1-0.1,0.2-0.3,0.2c-0.6,0-1,0.2-1.3,0.6
	c-0.2,0.4-0.4,1-0.4,1.8l0,0.7l0.2,6l0,0.4c0,0.9,0.2,1.6,0.5,2c0.3,0.4,0.8,0.7,1.5,0.8c0.2,0,0.3,0.1,0.3,0.3
	c0,0.2-0.2,0.3-0.7,0.3c-0.1,0-0.3,0-0.6-0.1C15.3,14,14.8,14,14.4,14c-0.7,0-1.2,0-1.7,0.1c-0.4,0.1-0.7,0.1-0.9,0.1
	c-0.2,0-0.2-0.1-0.2-0.2c0-0.1,0.1-0.2,0.3-0.3c0.4-0.1,0.6-0.3,0.8-0.5c0.2-0.2,0.2-0.6,0.2-1c0-0.2,0-0.4,0-0.5l-0.3-6.4
	c0-0.2,0-0.3-0.1-0.3c-0.1,0-0.2,0.2-0.4,0.5l-3.6,7.7l-0.1,0.3c-0.2,0.4-0.3,0.6-0.5,0.6c-0.1,0-0.4-0.3-0.7-1.1l-0.5-1L3.5,5.2
	L3.5,5C3.5,5,3.4,5,3.4,5C3.3,5,3.2,5.1,3.2,5.3l0,0.3l-0.1,4.9l0,0.4l0.1,0.9c0.2,1,0.7,1.5,1.5,1.7c0.3,0.1,0.4,0.2,0.4,0.3
	c0,0.2-0.1,0.3-0.3,0.3c-0.2,0-0.4,0-0.6,0L3.4,14c-0.2,0-0.4,0-0.8,0c-0.6,0-1,0-1.4,0.1c-0.2,0-0.4,0.1-0.5,0.1
	c-0.2,0-0.3-0.1-0.3-0.3c0-0.1,0.1-0.2,0.2-0.3c0.5-0.2,0.9-0.5,1.1-0.9c0.2-0.4,0.3-1,0.3-1.8l0.3-6.4l0-0.6c0-0.8-0.2-1.4-0.6-1.8
	C1.5,1.7,1,1.5,0.4,1.5C0.1,1.5,0,1.4,0,1.2s0.1-0.3,0.4-0.3c0.1,0,0.1,0,0.2,0l0.6,0c0.1,0,0.2,0,0.4,0c0.3,0,0.6,0,0.9-0.1
	c0.4,0,0.7-0.1,0.9-0.1C3.8,0.8,4.1,1,4.3,1.4z M20.9,10.6c0.5-0.4,1-0.6,1.6-0.6c0.1,0,0.2,0,0.2,0l0.1,0.2v0.2l0,0.7
	c0,0.6,0,1-0.1,1.3c-0.1,0.3-0.2,0.4-0.4,0.5c-0.3,0.2-0.7,0.3-1.1,0.3c-0.7,0-1-0.4-1-1.3C20.1,11.5,20.4,11.1,20.9,10.6z
	 M22.8,8.7c0,0.2,0,0.5-0.1,0.8c-1.6,0.3-2.7,0.6-3.2,0.9c-0.9,0.5-1.3,1.2-1.3,2.2c0,0.6,0.2,1,0.5,1.3c0.3,0.3,0.7,0.5,1.3,0.5
	c0.8,0,1.8-0.4,3-1.2c0.4,0.7,0.9,1.1,1.4,1.1c0.3,0,0.5-0.1,0.8-0.2l0.3-0.2l0.4-0.2c0.3-0.1,0.4-0.3,0.4-0.5c0-0.1,0-0.1-0.1-0.1
	c0,0-0.1,0-0.2,0.1c-0.1,0-0.2,0.1-0.4,0.1c-0.5,0-0.8-0.3-0.8-1c0-0.3,0-0.9,0.1-1.7c0-0.7,0.1-1.4,0.1-1.9c0-1-0.2-1.7-0.6-2
	c-0.6-0.5-1.4-0.8-2.5-0.8c-1,0-1.8,0.2-2.5,0.7c-0.3,0.2-0.5,0.5-0.6,0.9c0,0.1,0,0.2-0.1,0.3c0,0.1,0,0.2,0,0.2
	c0,0.2,0.1,0.3,0.4,0.3c1,0,1.5-0.2,1.5-0.7l0-0.2c0-0.1,0-0.2,0-0.3c0-0.5,0.3-0.8,0.9-0.8c0.5,0,0.9,0.2,1.2,0.6
	C22.6,7.5,22.8,8.1,22.8,8.7z M29.7,6.3v5.5c0,0.7,0.1,1.1,0.3,1.4c0.2,0.3,0.6,0.4,1.1,0.4c0.2,0,0.3,0.1,0.3,0.2
	c0,0.2-0.3,0.3-0.8,0.3c-0.1,0-0.2,0-0.4,0L29.5,14c-0.4,0-0.7-0.1-0.8-0.1c-0.3,0-0.8,0-1.4,0.1c-0.1,0-0.2,0-0.3,0
	c-0.1,0-0.2-0.1-0.2-0.2c0-0.1,0-0.1,0.1-0.2l0.3-0.2c0.1-0.1,0.3-0.2,0.4-0.5c0.1-0.3,0.1-0.5,0.1-0.8l0-0.4V8.6
	c0-0.5-0.1-0.8-0.2-1c-0.1-0.2-0.3-0.3-0.6-0.3h-0.2c-0.1,0-0.2,0-0.3-0.1c0,0,0-0.1,0-0.1c0-0.2,0.2-0.3,0.6-0.4
	c1-0.2,1.8-0.5,2.3-0.9c0.1,0,0.1-0.1,0.2-0.1c0.1,0,0.1,0.1,0.1,0.2l0,0.1C29.7,6,29.7,6.1,29.7,6.3z M36.5,6.1
	c-0.5-0.1-1-0.2-1.4-0.2c-0.9,0-1.7,0.2-2.2,0.7c-0.5,0.4-0.8,1-0.8,1.8c0,0.6,0.2,1.1,0.5,1.5c0.3,0.4,0.9,0.7,1.7,1
	c0.7,0.3,1.2,0.5,1.4,0.8c0.2,0.2,0.4,0.6,0.4,1c0,0.4-0.1,0.7-0.4,0.9c-0.3,0.2-0.6,0.4-1,0.4c-0.7,0-1.2-0.3-1.7-1
	c-0.4-0.6-0.6-1.1-0.6-1.5c0-0.2-0.1-0.3-0.2-0.3c-0.1,0-0.2,0-0.2,0.1s0,0.1,0,0.3l0,0.5l0,1.1c0,0.1,0,0.3,0,0.4
	c0,0.1,0,0.2,0,0.2c0,0.2,0.1,0.2,0.2,0.3l0.4,0.1l0.7,0.2c0.6,0.1,1.1,0.2,1.5,0.2c0.7,0,1.4-0.3,1.9-0.8c0.5-0.5,0.8-1.2,0.8-1.9
	c0-0.6-0.2-1.1-0.5-1.6c-0.2-0.2-0.4-0.4-0.6-0.6c-0.2-0.1-0.6-0.3-1.2-0.6l-0.7-0.3c-0.8-0.3-1.1-0.7-1.1-1.3
	c0-0.3,0.1-0.6,0.4-0.8c0.3-0.2,0.6-0.3,0.9-0.3c0.7,0,1.3,0.4,1.7,1.2c0.2,0.4,0.4,0.6,0.5,0.6c0.1,0,0.2-0.1,0.2-0.2
	c0,0,0-0.1,0-0.1l0-0.3l0-0.6l0-0.4C36.9,6.3,36.8,6.2,36.5,6.1z M42.7,6.4c-0.6,0-1.1,0.3-1.5,0.8s-0.6,1.2-0.6,2.1
	c0,1.2,0.3,2.3,0.9,3.1c0.6,0.9,1.2,1.3,2,1.3c0.6,0,1.1-0.2,1.5-0.8c0.4-0.5,0.6-1.1,0.6-1.9c0-1.3-0.3-2.4-0.9-3.3
	C44.2,6.9,43.5,6.4,42.7,6.4z M43.2,5.9c1.2,0,2.2,0.4,3,1.2c0.8,0.8,1.2,1.8,1.2,3c0,1.2-0.4,2.3-1.3,3.1c-0.9,0.8-1.9,1.2-3.2,1.2
	c-1.2,0-2.2-0.4-3-1.2c-0.8-0.8-1.2-1.7-1.2-2.9c0-1.2,0.4-2.3,1.3-3.1C40.9,6.3,41.9,5.9,43.2,5.9z M57.6,12v-2
	c0-1.5-0.2-2.5-0.7-3.2c-0.5-0.6-1.2-1-2.3-1c-1,0-1.8,0.4-2.4,1.1C52.1,7.2,52,7.3,52,7.3c-0.1,0-0.1,0-0.1-0.1l-0.1-0.4l0-0.5
	l0-0.5c0-0.1,0-0.2-0.1-0.2c0,0-0.1,0-0.1,0.1c-0.5,0.4-1.2,0.7-2,0.8c-0.5,0.1-0.8,0.2-0.9,0.2c-0.1,0-0.1,0.1-0.1,0.3
	c0,0.1,0,0.1,0,0.1c0,0,0.1,0.1,0.1,0.1h0.4c0.3,0,0.4,0.1,0.5,0.3c0.1,0.2,0.1,0.5,0.1,1l0,0.4v3.4l0,0.3c0,0.4,0,0.7-0.1,0.8
	c-0.1,0.1-0.3,0.3-0.6,0.4c-0.1,0-0.2,0.1-0.2,0.2c0,0.1,0.1,0.2,0.2,0.2c0.1,0,0.2,0,0.5-0.1C50.1,14,50.6,14,51,14
	c0.3,0,0.8,0,1.5,0.1c0.3,0,0.6,0,0.8,0c0.2,0,0.3-0.1,0.3-0.3c0-0.1-0.1-0.2-0.3-0.2c-0.5,0-0.9-0.2-1.1-0.5
	c-0.2-0.3-0.3-0.7-0.3-1.3V8.6c0-0.5,0.2-0.9,0.5-1.2C52.7,7.2,53.1,7,53.6,7c0.6,0,1.1,0.3,1.4,0.8c0.3,0.5,0.5,1.2,0.5,2.1v2.3
	c0,0.5,0,0.8-0.1,1c-0.1,0.2-0.3,0.4-0.6,0.5c-0.1,0.1-0.2,0.1-0.2,0.2c0,0.1,0.1,0.2,0.2,0.2c0.1,0,0.2,0,0.4,0
	c0.4-0.1,0.9-0.1,1.5-0.1c0.2,0,0.4,0,0.7,0l0.6,0.1c0.2,0,0.3,0,0.4,0c0.5,0,0.7-0.1,0.7-0.3c0-0.1-0.1-0.2-0.3-0.2
	c-0.4,0-0.7-0.1-0.9-0.3c-0.2-0.1-0.3-0.3-0.3-0.4C57.6,12.7,57.6,12.4,57.6,12L57.6,12z M68.7,1.4l4,8.7c0.2,0.4,0.3,0.6,0.4,0.6
	c0.1,0,0.2-0.1,0.4-0.4l3.7-7.8c0.3-0.7,0.6-1.2,0.7-1.4c0.1-0.2,0.3-0.3,0.6-0.3c0.1,0,0.2,0,0.4,0c0.2,0,0.4,0,0.6,0
	c0.3,0,0.6,0,1-0.1c0.2,0,0.3,0,0.4,0c0.2,0,0.3,0.1,0.3,0.3c0,0.1-0.1,0.2-0.3,0.2c-0.6,0-1,0.2-1.3,0.6c-0.2,0.4-0.4,1-0.4,1.8
	l0,0.7l0.2,6l0,0.4c0,0.9,0.2,1.6,0.5,2c0.3,0.4,0.8,0.7,1.5,0.8c0.2,0,0.3,0.1,0.3,0.3c0,0.2-0.2,0.3-0.7,0.3c-0.1,0-0.3,0-0.6-0.1
	C79.8,14,79.2,14,78.9,14c-0.7,0-1.2,0-1.7,0.1c-0.4,0.1-0.7,0.1-0.9,0.1c-0.2,0-0.2-0.1-0.2-0.2c0-0.1,0.1-0.2,0.3-0.3
	c0.4-0.1,0.6-0.3,0.8-0.5c0.2-0.2,0.2-0.6,0.2-1c0-0.2,0-0.4,0-0.5l-0.3-6.4c0-0.2,0-0.3-0.1-0.3c-0.1,0-0.2,0.2-0.4,0.5l-3.6,7.7
	l-0.1,0.3c-0.2,0.4-0.3,0.6-0.5,0.6c-0.1,0-0.4-0.3-0.7-1.1l-0.5-1L68,5.2L68,5c0,0-0.1-0.1-0.1-0.1c-0.1,0-0.2,0.1-0.2,0.4l0,0.3
	l-0.1,4.9l0,0.4l0.1,0.9c0.2,1,0.7,1.5,1.5,1.7c0.3,0.1,0.4,0.2,0.4,0.3c0,0.2-0.1,0.3-0.3,0.3c-0.2,0-0.4,0-0.6,0L67.9,14
	c-0.2,0-0.4,0-0.8,0c-0.6,0-1,0-1.4,0.1c-0.2,0-0.4,0.1-0.5,0.1c-0.2,0-0.3-0.1-0.3-0.3c0-0.1,0.1-0.2,0.2-0.3
	c0.5-0.2,0.9-0.5,1.1-0.9c0.2-0.4,0.3-1,0.3-1.8l0.3-6.4L67,4c0-0.8-0.2-1.4-0.6-1.8c-0.4-0.4-0.9-0.7-1.6-0.7
	c-0.2,0-0.4-0.1-0.4-0.3s0.1-0.3,0.4-0.3c0.1,0,0.1,0,0.2,0l0.6,0c0.1,0,0.2,0,0.4,0c0.3,0,0.6,0,0.9-0.1c0.4-0.1,0.7-0.1,0.9-0.1
	C68.2,0.8,68.5,1,68.7,1.4z M85.4,10.6c0.5-0.4,1-0.6,1.6-0.6c0.1,0,0.2,0,0.2,0l0.1,0.2v0.2l0,0.7c0,0.6,0,1-0.1,1.3
	c-0.1,0.3-0.2,0.4-0.4,0.5c-0.3,0.2-0.7,0.3-1.1,0.3c-0.7,0-1-0.4-1-1.3C84.6,11.5,84.9,11.1,85.4,10.6z M87.2,8.7
	c0,0.2,0,0.5-0.1,0.8c-1.6,0.3-2.7,0.6-3.2,0.9c-0.9,0.5-1.3,1.2-1.3,2.2c0,0.6,0.2,1,0.5,1.3c0.3,0.3,0.7,0.5,1.3,0.5
	c0.8,0,1.8-0.4,3-1.2c0.4,0.7,0.9,1.1,1.4,1.1c0.3,0,0.5-0.1,0.8-0.2l0.3-0.2l0.4-0.2c0.2-0.1,0.4-0.3,0.4-0.5c0-0.1,0-0.1-0.1-0.1
	c0,0-0.1,0-0.2,0.1c-0.1,0-0.2,0.1-0.4,0.1c-0.5,0-0.8-0.3-0.8-1c0-0.3,0-0.9,0.1-1.7c0-0.7,0.1-1.4,0.1-1.9c0-1-0.2-1.7-0.6-2
	c-0.6-0.5-1.4-0.8-2.5-0.8c-1,0-1.8,0.2-2.5,0.7c-0.3,0.2-0.5,0.5-0.6,0.9c0,0.1,0,0.1,0,0.2v0l0,0l0,0c0,0,0,0,0,0.1
	c0,0.1,0,0.2,0,0.2c0,0.2,0.1,0.3,0.4,0.3c1,0,1.5-0.2,1.5-0.7l0-0.2c0-0.1,0-0.2,0-0.3c0-0.5,0.3-0.8,0.9-0.8
	c0.5,0,0.9,0.2,1.2,0.6C87.1,7.5,87.2,8.1,87.2,8.7L87.2,8.7z M94.2,9.2V12c0,1,0.5,1.6,1.4,1.7c0.2,0,0.3,0.1,0.3,0.2
	c0,0.2-0.1,0.2-0.2,0.2c-0.1,0-0.2,0-0.3,0c-0.6-0.1-1.3-0.1-2-0.1c-0.4,0-0.7,0-1,0l-0.6,0.1c-0.1,0-0.2,0-0.3,0
	c-0.2,0-0.3-0.1-0.3-0.3c0-0.1,0.1-0.2,0.2-0.2c0.5-0.1,0.8-0.6,0.8-1.4l0-0.4V8.3c0-0.5-0.1-0.8-0.2-0.9c-0.1-0.2-0.4-0.2-0.8-0.3
	c-0.1,0-0.2-0.1-0.2-0.2c0-0.1,0.1-0.2,0.3-0.3c0.9-0.1,1.7-0.4,2.3-0.7L94,5.7c0,0,0.1,0,0.1,0c0.1,0,0.1,0.1,0.1,0.2
	c0,0,0,0.1,0,0.1v0l0,0c0,0,0,0.1,0,0.1l0,0.5l0,0.6l0,0.1c0,0.1,0.1,0.1,0.1,0.1c0.1,0,0.2-0.1,0.4-0.5c0.2-0.2,0.4-0.5,0.8-0.8
	c0.4-0.3,0.6-0.4,0.7-0.4c0.2,0,0.6,0.2,1,0.5C97.7,6.7,98,6.9,98,7.1c0,0.1-0.1,0.3-0.3,0.7c-0.3,0.5-0.5,0.8-0.7,0.8
	c-0.1,0-0.2,0-0.2-0.1l-0.3-0.2c-0.3-0.3-0.7-0.5-1.1-0.5C94.6,7.7,94.2,8.2,94.2,9.2z M101.1,6.9c0.3-0.4,0.7-0.6,1.2-0.6
	c1.1,0,1.6,0.9,1.6,2.6c0,0.6-0.1,1.1-0.4,1.5c-0.3,0.4-0.7,0.6-1.1,0.6c-0.5,0-0.9-0.2-1.2-0.7c-0.3-0.5-0.5-1.1-0.5-1.8
	C100.7,7.8,100.8,7.3,101.1,6.9z M100.3,14.9c0.2-0.2,0.4-0.3,0.6-0.3c0.1,0,0.2,0,0.2,0l0.3,0c0.3,0,0.7,0.1,1.3,0.1
	c0.9,0.1,1.5,0.2,1.8,0.3c0.3,0.1,0.4,0.3,0.4,0.7c0,0.4-0.2,0.7-0.6,1c-0.4,0.2-1,0.4-1.7,0.4c-0.8,0-1.4-0.1-1.8-0.4
	c-0.5-0.3-0.7-0.7-0.7-1.1C100.1,15.3,100.1,15.1,100.3,14.9z M105.9,6.3c-0.2,0.2-0.6,0.3-1,0.4c-0.7-0.5-1.6-0.8-2.6-0.8
	c-1,0-1.8,0.3-2.5,0.8c-0.7,0.5-1,1.2-1,2c0,0.4,0.1,0.8,0.3,1.2c0.2,0.4,0.5,0.7,0.8,0.9c0.3,0.2,0.4,0.3,0.4,0.4
	c0,0.1,0,0.1-0.1,0.2l-0.3,0.3c-0.4,0.4-0.7,0.9-0.7,1.5c0,0.4,0.1,0.7,0.4,1l0.3,0.3l0.1,0.1c0,0-0.2,0.1-0.5,0.2
	c-0.3,0-0.5,0.2-0.7,0.4c-0.2,0.2-0.3,0.5-0.3,0.8c0,0.5,0.3,1,0.9,1.2c0.6,0.3,1.5,0.4,2.7,0.4c1.4,0,2.4-0.3,3.1-0.8
	c0.7-0.6,1-1.2,1-2c0-0.7-0.3-1.2-0.9-1.4c-0.6-0.2-1.9-0.4-3.8-0.4c-1,0-1.5-0.3-1.5-0.8c0-0.2,0.1-0.4,0.2-0.6
	c0.1-0.2,0.3-0.2,0.5-0.2c0.1,0,0.2,0,0.3,0c0.3,0.1,0.7,0.1,1,0.1c1,0,1.8-0.2,2.5-0.7c0.7-0.5,1-1.1,1-1.8c0-0.1,0-0.3,0-0.6
	c0-0.1,0-0.2,0-0.3l0,0c0.3-0.2,0.5-0.3,0.6-0.3c0.1-0.1,0.1-0.2,0.1-0.3c0-0.1,0-0.3,0.1-0.7c0.1-0.5,0.1-0.9,0.1-1
	c0-0.2-0.1-0.3-0.2-0.3c-0.1,0-0.2,0.1-0.2,0.2C106.2,5.9,106.1,6.2,105.9,6.3z M110.6,6.3v5.5c0,0.7,0.1,1.1,0.3,1.4
	c0.2,0.3,0.6,0.4,1.1,0.4c0.2,0,0.3,0.1,0.3,0.2c0,0.2-0.3,0.3-0.8,0.3c-0.1,0-0.2,0-0.4,0l-0.7-0.1c-0.4,0-0.7-0.1-0.8-0.1
	c-0.3,0-0.8,0-1.4,0.1c-0.1,0-0.3,0-0.3,0c-0.1,0-0.2-0.1-0.2-0.2c0-0.1,0-0.1,0.1-0.2l0.3-0.2c0.1-0.1,0.3-0.2,0.4-0.5
	c0.1-0.3,0.2-0.5,0.2-0.8l0-0.4V8.6c0-0.5-0.1-0.8-0.2-1c-0.1-0.2-0.3-0.3-0.6-0.3h-0.2c-0.1,0-0.2,0-0.2-0.1c0,0,0-0.1,0-0.1
	c0-0.2,0.2-0.3,0.6-0.4c1-0.2,1.8-0.5,2.3-0.9c0.1,0,0.1-0.1,0.2-0.1c0.1,0,0.1,0.1,0.1,0.2l0,0.1C110.6,6,110.6,6.1,110.6,6.3
	L110.6,6.3z M115.3,7c0.3-0.4,0.7-0.6,1.1-0.6c0.5,0,0.9,0.2,1.2,0.6c0.4,0.4,0.5,0.9,0.5,1.4c0,0.3-0.3,0.5-0.9,0.5
	c-0.1,0-0.4,0-1,0c-0.2,0-0.5,0-0.7,0c-0.4,0-0.7,0-0.8-0.1c-0.1,0-0.1-0.1-0.1-0.3C114.8,8,115,7.5,115.3,7z M119.3,7.1
	c-0.7-0.8-1.6-1.2-2.6-1.2c-1,0-1.9,0.4-2.7,1.3c-0.8,0.9-1.1,1.9-1.1,3.1c0,1.2,0.4,2.2,1.1,3c0.7,0.8,1.6,1.2,2.7,1.2
	c1,0,2-0.4,2.8-1.2c0.5-0.4,0.8-0.8,0.8-0.9c0-0.1-0.1-0.2-0.2-0.2c-0.1,0-0.1,0-0.2,0.1l-0.3,0.3c-0.5,0.5-1.1,0.7-2,0.7
	c-0.7,0-1.4-0.3-1.9-1c-0.6-0.7-0.8-1.4-0.8-2.3c0-0.2,0-0.3,0.1-0.4c0,0,0.2-0.1,0.4-0.1l0.3,0l1,0l1.8,0l0.6,0h0.2l0.4,0
	c0.4,0,0.5-0.1,0.5-0.4C120.2,8.4,119.9,7.7,119.3,7.1L119.3,7.1z M129.5,10.6c0.5-0.4,1-0.6,1.6-0.6c0.1,0,0.2,0,0.2,0l0.1,0.2v0.2
	l0,0.7c0,0.6,0,1-0.1,1.3c-0.1,0.3-0.2,0.4-0.4,0.5c-0.3,0.2-0.7,0.3-1.1,0.3c-0.7,0-1-0.4-1-1.3C128.7,11.5,129,11.1,129.5,10.6z
	 M131.4,8.7c0,0.2,0,0.5-0.1,0.8c-1.6,0.3-2.7,0.6-3.2,0.9c-0.9,0.5-1.3,1.2-1.3,2.2c0,0.6,0.2,1,0.5,1.3c0.3,0.3,0.7,0.5,1.3,0.5
	c0.8,0,1.8-0.4,3-1.2c0.4,0.7,0.9,1.1,1.4,1.1c0.3,0,0.5-0.1,0.8-0.2l0.3-0.2l0.4-0.2c0.3-0.1,0.4-0.3,0.4-0.5c0-0.1,0-0.1-0.1-0.1
	c0,0-0.1,0-0.2,0.1c-0.1,0-0.2,0.1-0.4,0.1c-0.5,0-0.8-0.3-0.8-1c0-0.3,0-0.9,0.1-1.7c0-0.7,0.1-1.4,0.1-1.9c0-1-0.2-1.7-0.6-2
	c-0.6-0.5-1.4-0.8-2.5-0.8c-1,0-1.8,0.2-2.5,0.7c-0.3,0.2-0.5,0.5-0.6,0.9c0,0.1,0,0.1,0,0.2l0,0c0,0,0,0,0,0.1
	c0,0.1-0.1,0.2-0.1,0.2c0,0.2,0.1,0.3,0.4,0.3c1,0,1.5-0.2,1.5-0.7l0-0.2c0-0.1,0-0.2,0-0.3c0-0.5,0.3-0.8,0.9-0.8
	c0.5,0,0.9,0.2,1.2,0.6C131.2,7.5,131.4,8.1,131.4,8.7z M27.6,2.6c0-0.7,0.6-1.2,1.2-1.2c0.7,0,1.2,0.6,1.2,1.2s-0.6,1.2-1.2,1.2
	C28.1,3.8,27.6,3.3,27.6,2.6z M109.5,1.2c-0.7,0-1.2,0.6-1.2,1.2c0,0.7,0.6,1.2,1.2,1.2c0.7,0,1.2-0.5,1.2-1.2
	C110.7,1.8,110.2,1.2,109.5,1.2z"/>
</svg>
