<?xml version="1.0" encoding="utf-8"?>
<!-- Generator: Adobe Illustrator 28.3.0, SVG Export Plug-In . SVG Version: 6.00 Build 0)  -->
<svg version="1.1" id="mr-box-logo" xmlns="http://www.w3.org/2000/svg" xmlns:xlink="http://www.w3.org/1999/xlink" x="0px"
	 y="0px" viewBox="0 0 251.2 64" style="enable-background:new 0 0 251.2 64;" xml:space="preserve">
<style type="text/css">
	.st0{filter:url(#Adobe_OpacityMaskFilter);}
	.st1{fill-rule:evenodd;clip-rule:evenodd;fill:#FFFFFF;}
	.st2{mask:url(#mask-3_00000108988432218025696910000007396460295947058327_);fill-rule:evenodd;clip-rule:evenodd;}
</style>
<g id="Symbols">
	<g id="Logo-_x2014_-Box">
		<g id="Group-3">
			<g id="Clip-2">
			</g>
			<defs>
				<filter id="Adobe_OpacityMaskFilter" filterUnits="userSpaceOnUse" x="-0.6" y="0" width="129.2" height="64">
					<feColorMatrix  type="matrix" values="1 0 0 0 0  0 1 0 0 0  0 0 1 0 0  0 0 0 1 0"/>
				</filter>
			</defs>
			
				<mask maskUnits="userSpaceOnUse" x="-0.6" y="0" width="129.2" height="64" id="mask-3_00000108988432218025696910000007396460295947058327_">
				<g class="st0">
					<polygon id="path-2_00000052797318303524918420000006582805231121647239_" class="st1" points="-0.6,0 134.4,0 134.4,64 
						-0.6,64 					"/>
				</g>
			</mask>
			<path class="st2" d="M62.2,29.8h-1.6v-7.5h1.5v1.5h0c0.2-0.8,1.2-1.7,2.2-1.7c0.4,0,0.5,0,0.6,0v1.6c-0.2,0-0.5-0.1-0.7-0.1
				c-1.1,0-2,0.9-2,2.6V29.8z M84.5,23.4c1.1,0,1.8,0.9,1.9,2h-3.8C82.6,24.2,83.4,23.4,84.5,23.4L84.5,23.4z M84.6,30
				c1.6,0,3-0.9,3.4-2.6h-1.6c-0.3,0.8-0.9,1.2-1.8,1.2c-1.4,0-2-1-2-2.2h5.5c0.3-2.3-1.2-4.4-3.5-4.4c-2.2,0-3.6,1.8-3.6,4
				C80.9,28.3,82.2,30,84.6,30L84.6,30z M74.8,29.8h-1.6v-7.5h1.6v1.1l0,0c0.5-0.8,1.3-1.3,2.3-1.3c1.6,0,2.6,0.9,2.6,2.6v5.2H78V25
				c0-1.2-0.5-1.7-1.5-1.7c-1.1,0-1.8,0.9-1.8,2V29.8z M69.9,21h1.6v-1.6h-1.6V21z M69.9,29.8h1.6v-7.5h-1.6V29.8z M65.6,27.9V20
				h1.6v2.3h1.5v1.2h-1.5v4c0,0.7,0.1,1,0.8,1c0.2,0,0.5,0,0.7-0.1v1.3c-0.4,0-0.7,0.1-1.1,0.1C66,29.8,65.7,29.2,65.6,27.9
				L65.6,27.9z M57.2,27.2c0,1-1.1,1.4-1.8,1.4c-0.6,0-1.5-0.2-1.5-1c0-0.9,0.6-1.1,1.3-1.2c0.7-0.1,1.5-0.1,2-0.5V27.2z M55,25.4
				c-1.4,0.2-2.9,0.5-2.9,2.3c0,1.5,1.2,2.2,2.6,2.2c0.9,0,1.9-0.3,2.6-0.9c0.1,0.7,0.6,0.9,1.3,0.9c0.3,0,0.8-0.1,1-0.2v-1.1
				c-0.2,0-0.3,0-0.4,0c-0.3,0-0.4-0.2-0.4-0.6v-3.9c0-1.6-1.5-2.2-3-2.2c-1.6,0-3.3,0.6-3.4,2.5h1.6c0.1-0.8,0.7-1.2,1.6-1.2
				c0.7,0,1.5,0.2,1.5,1C57.3,25.3,56.2,25.2,55,25.4L55,25.4z M41.7,29.8H40V19.4h2.5l2.8,8.1h0l2.8-8.1h2.5v10.4H49v-8h0l-2.9,8
				h-1.5l-2.9-8h0V29.8z M74.5,38c1.1,0,1.8,0.9,1.9,2h-3.8C72.6,38.9,73.4,38,74.5,38L74.5,38z M74.5,44.6c1.6,0,3-0.9,3.4-2.6
				h-1.6c-0.3,0.8-0.9,1.2-1.8,1.2c-1.4,0-2-1-2-2.2H78c0.3-2.3-1.2-4.4-3.5-4.4c-2.2,0-3.6,1.8-3.6,4C70.9,43,72.2,44.6,74.5,44.6
				L74.5,44.6z M66.7,36.7c1.5,0,2.9,0.6,3.1,2.3h-1.7c-0.1-0.8-0.8-1-1.5-1c-0.5,0-1.4,0.1-1.4,0.8c0,0.8,1.2,0.9,2.4,1.2
				c1.2,0.3,2.4,0.7,2.4,2.2c0,1.8-1.8,2.4-3.3,2.4c-1.9,0-3.3-0.8-3.3-2.6h1.6c0.1,1,0.8,1.3,1.7,1.3c0.6,0,1.7-0.1,1.7-1
				c0-0.9-1.2-1-2.4-1.2c-1.2-0.3-2.4-0.7-2.4-2.2C63.6,37.2,65.4,36.7,66.7,36.7L66.7,36.7z M58.8,43.3c-1.5,0-2.1-1.4-2.1-2.7
				c0-1.3,0.7-2.6,2.1-2.6c1.5,0,2.1,1.4,2.1,2.6C61,42,60.3,43.3,58.8,43.3L58.8,43.3z M58.8,36.7c-2.4,0-3.8,1.7-3.8,4
				c0,2.3,1.4,4,3.8,4c2.4,0,3.8-1.7,3.8-4C62.6,38.4,61.2,36.7,58.8,36.7L58.8,36.7z M51.9,36.9v1.5h0c0.2-0.8,1.2-1.7,2.2-1.7
				c0.4,0,0.5,0,0.6,0v1.6c-0.2,0-0.5-0.1-0.7-0.1c-1.1,0-2,0.9-2,2.6v3.6h-1.6v-7.5H51.9z M5.2,58.2h117.6V5.8H5.2V58.2z M-0.6,64
				h129.2V0H-0.6V64z"/>
		</g>
	</g>
</g>
</svg>
