<svg xmlns="http://www.w3.org/2000/svg" xmlns:xlink="http://www.w3.org/1999/xlink" viewBox="0 0 135 64" version="1.1" id="mr-box-logo">
      <!-- Generator: Sketch 61 (89581) - https://sketch.com -->
      <defs>
          <polygon id="path-2" points="0 0 135 0 135 64 0 64"></polygon>
      </defs>
      <g id="Symbols" stroke="none" stroke-width="1" fill="none" fill-rule="evenodd">
          <g id="Logo-—-Box">
              <g id="Group-3">
                  <mask id="mask-3" fill="white">
                      <use xlink:href="#path-2"></use>
                  </mask>
                  <g id="Clip-2"></g>
                  <path d="M132.691838,1.759641 L133.091,1.759641 C133.281649,1.759641 133.411725,1.73103352 133.48123,1.67381854 C133.550455,1.61688403 133.585347,1.54115832 133.585347,1.44692189 C133.585347,1.38634133 133.568599,1.33221147 133.535103,1.28425186 C133.501607,1.23629225 133.454991,1.20067312 133.395815,1.17711401 C133.336359,1.1535549 133.22638,1.14177535 133.065878,1.14177535 L132.691838,1.14177535 L132.691838,1.759641 Z M132.363017,2.91207404 L132.363017,0.864394896 L133.063366,0.864394896 C133.302584,0.864394896 133.475647,0.883186089 133.582835,0.921048941 C133.689743,0.959192259 133.775158,1.0248212 133.838801,1.11905764 C133.902164,1.21329407 133.934265,1.31342028 133.934265,1.4191558 C133.934265,1.56892441 133.88095,1.69906044 133.7746,1.81012481 C133.668529,1.92090871 133.527566,1.98317207 133.351991,1.99663441 C133.423728,2.02692469 133.544314,2.13350161 133.662667,2.2900014 C133.780741,2.44622073 134.049827,2.91207404 134.049827,2.91207404 L133.648431,2.91207404 C133.648431,2.91207404 133.532032,2.63385219 133.36818,2.38844482 C133.236708,2.19127752 133.087371,2.04206984 132.857923,2.04206984 L132.691838,2.04206984 L132.691838,2.91207404 L132.363017,2.91207404 Z M133.107469,0.315243304 C132.841454,0.315243304 132.582417,0.383676904 132.330917,0.520824569 C132.078859,0.657691768 131.882069,0.853737204 131.73971,1.10839994 C131.597631,1.36306268 131.526452,1.62810265 131.526452,1.90408077 C131.526452,2.17781517 131.596235,2.44061141 131.736082,2.69190857 C131.875649,2.94320572 132.071043,3.13897069 132.321985,3.27948394 C132.572926,3.41971673 132.834755,3.49011359 133.107469,3.49011359 C133.380183,3.49011359 133.642011,3.41971673 133.892953,3.27948394 C134.144174,3.13897069 134.33901,2.94320572 134.47774,2.69190857 C134.616748,2.44061141 134.686253,2.17781517 134.686253,1.90408077 C134.686253,1.62810265 134.615632,1.36306268 134.474111,1.10839994 C134.33259,0.853737204 134.135521,0.657691768 133.883183,0.520824569 C133.630288,0.383676904 133.372088,0.315243304 133.107469,0.315243304 L133.107469,0.315243304 Z M133.107469,0 C133.425403,0 133.7358,0.0821764128 134.038661,0.245968307 C134.341522,0.409760202 134.577391,0.644229421 134.746267,0.949375964 C134.915422,1.25452251 135,1.57257047 135,1.90408077 C135,2.23166456 134.916539,2.54690787 134.750175,2.84953022 C134.583531,3.15215257 134.350175,3.38718272 134.049827,3.5543402 C133.749757,3.72177815 133.435452,3.80507643 133.107469,3.80507643 C132.779486,3.80507643 132.46546,3.72177815 132.165111,3.5543402 C131.864762,3.38718272 131.630848,3.15215257 131.463646,2.84953022 C131.296166,2.54690787 131.212705,2.23166456 131.212705,1.90408077 C131.212705,1.57257047 131.297561,1.25452251 131.467554,0.949375964 C131.637268,0.644229421 131.873695,0.409760202 132.176556,0.245968307 C132.479137,0.0821764128 132.789814,0 133.107469,0 L133.107469,0 Z M62.7784417,29.7537512 L61.1309905,29.7537512 L61.1309905,22.2462488 L62.6773951,22.2462488 L62.6773951,23.69878 L62.7061459,23.69878 C62.8940034,22.900014 63.8768356,22.0429112 64.8884186,22.0429112 C65.2641335,22.0429112 65.3654593,22.0720797 65.5100509,22.0866639 L65.5100509,23.6839153 C65.2789276,23.6550273 65.0330102,23.6112747 64.8018869,23.6112747 C63.6744631,23.6112747 62.7784417,24.5261534 62.7784417,26.1814612 L62.7784417,29.7537512 Z M85.09412,23.3501613 C86.2070288,23.3501613 86.9151928,24.2939279 86.9729736,25.3395036 L83.1284556,25.3395036 C83.1720005,24.2210069 83.9524603,23.3501613 85.09412,23.3501613 L85.09412,23.3501613 Z M85.1373858,29.9570888 C86.7706012,29.9570888 88.1581782,29.0422101 88.519099,27.401206 L86.9584586,27.401206 C86.6695545,28.2288599 86.091188,28.6501192 85.1373858,28.6501192 C83.7646029,28.6501192 83.1284556,27.604824 83.1284556,26.4288319 L88.6204248,26.4288319 C88.895093,24.1778152 87.4497351,22.0429112 85.09412,22.0429112 C82.8683023,22.0429112 81.4810044,23.8726686 81.4810044,26.0075726 C81.4810044,28.3163652 82.7962857,29.9570888 85.1373858,29.9570888 L85.1373858,29.9570888 Z M75.3380938,29.7537512 L73.6906426,29.7537512 L73.6906426,22.2462488 L75.2515621,22.2462488 L75.2515621,23.3501613 L75.280313,23.3790492 C75.7715895,22.5516758 76.6243451,22.0429112 77.6071773,22.0429112 C79.2258776,22.0429112 80.2516965,22.9143178 80.2516965,24.5990745 L80.2516965,29.7537512 L78.6042453,29.7537512 L78.6042453,25.034357 C78.5752153,23.8583649 78.1129688,23.3501613 77.1446516,23.3501613 C76.0462577,23.3501613 75.3380938,24.2210069 75.3380938,25.3249194 L75.3380938,29.7537512 Z M70.416117,20.9538634 L72.0635682,20.9538634 L72.0635682,19.3857804 L70.416117,19.3857804 L70.416117,20.9538634 Z M70.416117,29.7537512 L72.0635682,29.7537512 L72.0635682,22.2462488 L70.416117,22.2462488 L70.416117,29.7537512 Z M66.1891849,27.9094096 L66.1891849,19.9955126 L67.8369152,19.9955126 L67.8369152,22.2462488 L69.3252598,22.2462488 L69.3252598,23.4808582 L67.8369152,23.4808582 L67.8369152,27.4884308 C67.8369152,28.1708035 67.8944169,28.5194222 68.6316108,28.5194222 C68.8627341,28.5194222 69.0941365,28.5194222 69.3252598,28.4613659 L69.3252598,29.739167 C68.9640599,29.7683354 68.6170958,29.8261113 68.2556168,29.8261113 C66.5361489,29.8261113 66.2179357,29.1583228 66.1891849,27.9094096 L66.1891849,27.9094096 Z M57.7294588,27.2273173 C57.7294588,28.2726125 56.602035,28.6501192 55.8796352,28.6501192 C55.3015479,28.6501192 54.3622606,28.4324779 54.3622606,27.6917683 C54.3622606,26.8203618 54.9981288,26.5589679 55.7060136,26.4428551 C56.4286925,26.3121582 57.2236673,26.3270229 57.7294588,25.9927079 L57.7294588,27.2273173 Z M55.5907311,25.4267284 C54.203154,25.5863133 52.7145303,25.8911794 52.7145303,27.7644089 C52.7145303,29.2309634 53.9284858,29.9570888 55.272797,29.9570888 C56.1540243,29.9570888 57.2091523,29.6811106 57.8595354,29.0422101 C57.9896121,29.7248633 58.4663736,29.9570888 59.1312717,29.9570888 C59.40594,29.9570888 59.9262465,29.8555602 60.1718848,29.7683354 L60.1718848,28.6212312 C59.9982632,28.6501192 59.8681865,28.6501192 59.767419,28.6501192 C59.4637208,28.6501192 59.37691,28.4905343 59.37691,28.0838592 L59.37691,24.2210069 C59.37691,22.6386201 57.8450204,22.0429112 56.3854267,22.0429112 C54.7376964,22.0429112 53.1047602,22.6094517 52.9891985,24.5407376 L54.6366497,24.5407376 C54.7089455,23.7276679 55.3593287,23.3501613 56.2843801,23.3501613 C56.948999,23.3501613 57.8307846,23.5100266 57.8307846,24.3665685 C57.8307846,25.3395036 56.7756566,25.2088066 55.5907311,25.4267284 L55.5907311,25.4267284 Z M42.2796492,29.7537512 L40.5599022,29.7537512 L40.5599022,19.3857804 L43.1033748,19.3857804 L45.9505457,27.503015 L45.9795756,27.503015 L48.7541715,19.3857804 L51.2688933,19.3857804 L51.2688933,29.7537512 L49.5491463,29.7537512 L49.5491463,21.7526294 L49.5203954,21.7526294 L46.6587096,29.7537512 L45.1700859,29.7537512 L42.3086792,21.7526294 L42.2796492,21.7526294 L42.2796492,29.7537512 Z M75.0572846,38.0089749 C76.1699143,38.0089749 76.8783574,38.9524611 76.9361382,39.9983172 L73.0916202,39.9983172 C73.1351651,38.8798205 73.9156249,38.0089749 75.0572846,38.0089749 L75.0572846,38.0089749 Z M75.1005504,44.6156219 C76.7337658,44.6156219 78.1210637,43.7010237 78.4822636,42.0600196 L76.9216232,42.0600196 C76.63244,42.8876735 76.0543526,43.3089328 75.1005504,43.3089328 C73.7277675,43.3089328 73.0916202,42.2633572 73.0916202,41.087365 L78.5835894,41.087365 C78.8582576,38.8363483 77.4128997,36.7014444 75.0572846,36.7014444 C72.8314669,36.7014444 71.444169,38.5312018 71.444169,40.6661057 C71.444169,42.9751788 72.7594502,44.6156219 75.1005504,44.6156219 L75.1005504,44.6156219 Z M67.2677602,36.7014444 C68.7996497,36.7014444 70.1872268,37.3406254 70.3895992,39.0105175 L68.6698522,39.0105175 C68.5252606,38.2266162 67.8748775,38.0089749 67.1524777,38.0089749 C66.675437,38.0089749 65.7939306,38.1248072 65.7939306,38.7785724 C65.7939306,39.5913617 67.0078861,39.7077549 68.2215624,39.9834525 C69.421282,40.2594307 70.6352375,40.6952742 70.6352375,42.1764128 C70.6352375,43.9624176 68.8431947,44.6156219 67.2967902,44.6156219 C65.4179366,44.6156219 64.0161236,43.7736643 63.9873728,42.0019633 L65.634824,42.0019633 C65.7216348,42.9603141 66.4440346,43.3089328 67.3258201,43.3089328 C67.9471733,43.3089328 69.0313313,43.1779554 68.9877863,42.3214135 C68.9442414,41.450007 67.7448009,41.3484785 66.5453604,41.0725004 C65.3314049,40.8111064 64.1462003,40.3758239 64.1462003,38.8509325 C64.1462003,37.2102089 65.9092131,36.7014444 67.2677602,36.7014444 L67.2677602,36.7014444 Z M59.3953329,43.3089328 C57.920945,43.3089328 57.270841,41.9582106 57.270841,40.6515215 C57.270841,39.3591362 57.920945,38.0089749 59.3953329,38.0089749 C60.8691625,38.0089749 61.5195456,39.3591362 61.5195456,40.6515215 C61.5195456,41.9582106 60.8691625,43.3089328 59.3953329,43.3089328 L59.3953329,43.3089328 Z M59.3953329,36.7014444 C56.9961728,36.7014444 55.6231107,38.3573131 55.6231107,40.6515215 C55.6231107,42.9603141 56.9961728,44.6156219 59.3953329,44.6156219 C61.7942139,44.6156219 63.1672759,42.9603141 63.1672759,40.6515215 C63.1672759,38.3573131 61.7942139,36.7014444 59.3953329,36.7014444 L59.3953329,36.7014444 Z M52.4630302,36.9050624 L52.4630302,38.3573131 L52.4920602,38.3573131 C52.6796385,37.5585472 53.6624707,36.7014444 54.6740537,36.7014444 C55.0497686,36.7014444 55.1510944,36.7306128 55.295686,36.7454775 L55.295686,38.3427289 C55.0642836,38.3135605 54.8189245,38.2698079 54.5872429,38.2698079 C53.4600983,38.2698079 52.5640769,39.184967 52.5640769,40.8402749 L52.5640769,44.4125649 L50.9166257,44.4125649 L50.9166257,36.9050624 L52.4630302,36.9050624 Z M5.79817963,58.1744496 L123.415644,58.1744496 L123.415644,5.82667228 L5.79817963,5.82667228 L5.79817963,58.1744496 Z M0,64 L129.213544,64 L129.213544,0.00112186229 L0,0.00112186229 L0,64 Z" fill="#000000" mask="url(#mask-3)"></path>
              </g>
          </g>
      </g>
    </svg>