<?xml version="1.0" encoding="UTF-8"?>
<svg id="Layer_1" data-name="Layer 1" xmlns="http://www.w3.org/2000/svg" viewBox="0 0 1199.88 128.52">
  <defs>
    <style>
      .cls-1 {
        fill: #000;
        stroke-width: 0px;
      }
    </style>
  </defs>
  <path class="cls-1" d="M788.23.41c-1.54.2-2.91.46-3.11.56-.16.13-1.31.39-2.55.62-1.21.23-2.29.52-2.39.69-.1.16-.43.29-.72.29s-.92.2-1.37.43c-.46.23-1.44.62-2.19.85-.79.26-1.41.56-1.41.69s-.59.43-1.31.65c-.72.23-1.31.52-1.31.65,0,.1-.56.39-1.21.62-.65.26-1.34.56-1.54.72-1.7,1.37-3.83,2.91-3.99,2.91-.29,0-1.6,1.18-4.81,4.42-3.37,3.37-3.83,3.9-3.83,4.19,0,.13-.59.98-1.31,1.9-.72.92-1.31,1.87-1.31,2.13s-.13.46-.26.46c-.16,0-.46.52-.72,1.15-.26.62-.56,1.15-.72,1.15-.13,0-.26.26-.26.59s-.29,1.18-.65,1.87c-.36.72-.82,1.9-1.01,2.62-.16.72-.46,1.6-.62,1.96-.39.88-.98,3.9-.98,5.07,0,.49-.2.98-.39,1.08-.56.16-.62,17.15-.07,17.51.16.13.49,1.54.72,3.14.2,1.6.49,3.01.65,3.11s.49,1.11.72,2.23c.23,1.15.52,2.06.69,2.06.13,0,.33.43.46.98.23.98,1.51,3.63,2.95,6.06.43.72.88,1.54,1.01,1.8s.52.69.85.92c.33.23.59.59.59.75,0,.43,1.18,1.77,4.16,4.68,3.24,3.21,4.58,4.45,4.84,4.45.23,0,3.11,1.93,3.44,2.32.1.1.65.36,1.24.59.56.26,1.05.56,1.05.72,0,.13.59.46,1.31.65.72.23,1.31.49,1.31.59,0,.13.65.43,1.47.65.82.23,1.47.56,1.47.69s.88.43,1.96.65c1.08.23,1.96.52,1.96.62,0,.26,4.12,1.01,5.37,1.01.46,0,.85.16.92.33.07.2,2,.43,4.62.56,2.49.1,4.58.33,4.68.49.23.39,3.73.33,3.73-.07,0-.2.75-.33,1.64-.33,1.9,0,2.13.43.49,1.01-.62.23-1.15.52-1.15.65,0,.1-.95.69-2.13,1.31-1.18.59-2.13,1.18-2.13,1.31s-.46.33-1.01.46c-.56.13-1.08.43-1.15.65-.1.2-.75.59-1.47.82-.69.23-1.28.56-1.28.72,0,.13-.16.26-.36.26s-.75.26-1.21.62c-.49.33-1.47.79-2.19,1.01-.72.23-1.37.52-1.47.62s-1.01.62-2.03,1.15c-1.05.52-1.9,1.05-1.9,1.21s-.16.29-.39.29c-.62,0-4.52,2-4.52,2.32,0,.16-.2.29-.43.29-.52,0-2.19,1.7-2.19,2.23,0,.23-.13.39-.33.39-.16,0-.33.36-.33.82s.13.82.29.82.36.29.46.65c.23.95,3.4.95,4.48,0,.39-.36.98-.72,1.31-.82s.69-.39.79-.65.39-.49.65-.49.62-.2.75-.43c.33-.52,2.36-2,3.14-2.29.29-.1.56-.36.56-.52s.65-.49,1.47-.72,1.47-.52,1.47-.65c0-.36,3.96-.95,6.35-.95s6.81.62,7.07.98c.1.1,1.05.39,2.13.62,1.08.26,2.26.62,2.62.85.36.23,1.15.52,1.73.65.56.13,1.05.36,1.05.49,0,.16.59.49,1.31.69.72.23,1.31.49,1.31.62s.59.43,1.31.65c.72.23,1.31.52,1.31.65,0,.1.52.39,1.15.62.62.23,1.15.52,1.15.69s.59.49,1.31.69c.72.23,1.31.52,1.31.69,0,.16.36.43.82.59s.82.46.82.65c0,.16.16.33.39.33.36,0,2.78,1.51,3.21,2,.1.1.69.36,1.31.62.62.26,1.24.62,1.41.85.13.23.69.49,1.21.62.56.13.98.36.98.49,0,.16.59.49,1.31.69.72.23,1.31.52,1.31.65,0,.16.59.46,1.31.65.72.23,1.31.49,1.31.62s.69.43,1.57.65c.85.23,1.7.56,1.93.72.2.16,1.64.46,3.18.69,1.54.2,2.82.49,2.82.62s2,.26,4.42.26,4.42-.13,4.42-.29c0-.13,1.01-.36,2.23-.49s2.59-.39,3.04-.62c.43-.23,1.41-.62,2.19-.85.75-.26,1.37-.59,1.37-.72s.46-.33,1.01-.46c.56-.13,1.08-.43,1.18-.69s.33-.46.52-.46c.36,0,.82-.39,2.68-2.23,2.06-2.03,2.98-3.21,3.4-4.26.23-.56.56-1.05.72-1.05s.46-.65.69-1.47c.23-.82.52-1.47.65-1.47s.33-.56.46-1.24c.13-.65.33-1.37.49-1.54.13-.2.36-1.11.49-2.06l.23-1.7h-3.63l-.23,1.31c-.13.72-.33,1.31-.43,1.31-.13,0-.43.46-.69,1.01-.56,1.28-1.67,2.39-2.95,2.95-.56.26-1.01.56-1.01.65,0,.1-.62.39-1.37.62-.79.26-1.51.62-1.64.82-.33.46-12.67.43-12.96-.03-.13-.2-1.47-.56-3.01-.75-1.54-.23-2.91-.52-3.11-.65-.16-.16-1.28-.46-2.46-.69s-2.29-.52-2.45-.69c-.2-.13-1.08-.43-1.96-.65-.92-.2-1.77-.49-1.96-.62-.16-.16-.98-.43-1.8-.65-.82-.2-1.93-.56-2.49-.82-.52-.26-1.6-.56-2.36-.69-.75-.13-1.37-.33-1.37-.43,0-.13-.98-.43-2.19-.65-1.24-.26-2.36-.56-2.55-.69-.16-.13-1.34-.43-2.62-.65-1.24-.23-2.42-.52-2.62-.65-.16-.16-1.21-.36-2.29-.49-1.08-.1-2.26-.33-2.62-.49-1.08-.49-7.1-.98-11.78-.98-2.42,0-4.42-.13-4.42-.26,0-.16.59-.49,1.31-.72s1.31-.56,1.31-.69.95-.72,2.13-1.28,2.13-1.15,2.13-1.31c0-.13.39-.36.92-.49.49-.1,1.44-.56,2.09-1.01.69-.43,1.37-.79,1.57-.79.16,0,.33-.13.33-.26,0-.16.59-.49,1.31-.72s1.31-.56,1.31-.72c0-.13.23-.26.49-.26.23,0,.59-.2.72-.46.13-.23.82-.62,1.51-.82.65-.23,1.21-.52,1.21-.69s.82-.46,1.8-.69,1.8-.49,1.8-.65c0-.13.39-.33.92-.43,1.21-.29,6.94-3.18,6.94-3.47,0-.16.46-.36,1.01-.49.56-.13,1.08-.43,1.18-.69s.36-.46.62-.46c.52,0,8.64-7.79,8.64-8.31,0-.2.29-.56.65-.79s.65-.62.65-.88.13-.49.29-.49c.29,0,.69-.59,1.73-2.62.23-.46.59-.92.82-1.08.2-.13.46-.69.59-1.21.13-.56.36-.98.52-.98s.46-.65.65-1.47.49-1.47.62-1.47.43-.82.65-1.8c.23-.98.52-1.8.65-1.8.23,0,.98-3.44.98-4.48,0-.39.13-.75.29-.82.39-.13,1.01-6.91,1.01-10.93s-.62-10.74-1.01-10.87c-.16-.07-.29-.46-.29-.88,0-1.01-.72-4.22-1.01-4.42-.1-.1-.39-.95-.62-1.9-.2-.92-.52-1.7-.65-1.7-.16,0-.39-.46-.49-1.05-.23-1.05-1.64-3.86-2.06-4.19-.13-.1-.43-.52-.65-.98-1.05-2.03-1.44-2.62-1.73-2.62-.16,0-.29-.23-.29-.49s-.29-.65-.65-.88-.65-.59-.65-.79c0-.43-3.6-4.09-6.06-6.19-1.6-1.37-3.08-2.36-4.75-3.18-.46-.23-.88-.49-.98-.59s-.59-.39-1.15-.65c-.52-.26-1.05-.56-1.15-.65-.1-.1-.79-.39-1.54-.65-.79-.23-1.41-.56-1.41-.69s-.82-.43-1.8-.65c-.98-.23-1.8-.49-1.8-.62s-.52-.36-1.15-.46c-.62-.13-1.51-.43-2-.69s-1.73-.56-2.72-.69c-1.01-.1-1.96-.33-2.16-.46-1.17-.87-16.07-1.23-21.76-.48ZM802.47,3.91c2.16.16,4.06.46,4.26.59.16.16,1.31.46,2.55.69,1.21.23,2.19.52,2.19.69s.16.29.33.29c.43,0,4.42,1.93,5.73,2.78.56.36,1.18.92,1.41,1.21.23.33.56.59.75.59.33,0,2.91,2.49,2.91,2.82,0,.1.59.88,1.31,1.73s1.31,1.67,1.31,1.83c0,.13.36.75.82,1.34.46.59.82,1.21.82,1.41s.16.36.36.36c.16,0,.23.13.13.33-.1.16-.07.33.13.33.16,0,.43.49.56,1.05.1.59.39,1.37.65,1.73.23.36.52,1.21.62,1.87.13.69.36,1.24.49,1.24s.43.98.65,2.19c.23,1.24.52,2.36.65,2.55.33.43.98,5.37.98,7.23,0,.79.16,1.51.33,1.6.2.13.33,3.11.33,7.89s-.13,7.66-.33,7.66c-.16,0-.33.62-.33,1.37,0,1.9-.69,7.27-.98,7.46-.13.1-.39,1.08-.62,2.19-.2,1.11-.59,2.45-.85,2.95-.26.49-.49,1.18-.49,1.47s-.16.65-.33.75c-.2.13-.26.36-.16.52.13.16.07.29-.13.29-.16,0-.39.43-.52.98-.13.52-.36.98-.52.98-.2,0-.23.13-.13.33.1.16.07.33-.13.33-.16,0-.39.43-.52.98-.13.52-.36.98-.52.98s-.29.2-.29.43-.43.92-.98,1.54c-.52.62-.95,1.24-.98,1.34,0,.23-4.16,4.42-4.98,5.04-2.68,2.06-6.64,4.12-9.1,4.75-.82.23-1.64.52-1.83.69-.82.65-8.84,1.08-13.58.69-2.55-.2-4.78-.49-5.01-.65-.2-.16-1.28-.49-2.39-.72-1.15-.23-2.06-.56-2.06-.69,0-.16-.23-.29-.49-.29-.62,0-4.75-1.93-4.75-2.23,0-.13-.46-.43-.98-.65-.56-.26-1.54-.95-2.23-1.57-.65-.62-1.34-1.24-1.47-1.37-.92-.82-3.93-4.62-4.19-5.24-.16-.39-.39-.72-.56-.72s-.49-.59-.72-1.31-.52-1.31-.65-1.31-.43-.62-.65-1.41c-.26-.75-.62-1.67-.85-2.03-.23-.36-.52-1.21-.62-1.9-.13-.65-.33-1.21-.46-1.21s-.43-1.21-.69-2.72c-.23-1.47-.52-2.85-.65-3.01-1.24-1.6-1.24-27.33-.03-30.11.16-.36.49-1.6.69-2.78.23-1.18.49-2.29.62-2.46.13-.2.46-1.18.69-2.23.23-1.01.56-1.87.69-1.87.16,0,.46-.65.65-1.47.2-.82.49-1.47.62-1.47s.33-.33.46-.75c.1-.43.46-1.11.85-1.57,1.01-1.24,1.11-1.37,1.6-2.32.65-1.31,5.73-6.35,6.87-6.84.56-.26,1.01-.56,1.01-.69,0-.29,4.12-2.23,4.75-2.23.26,0,.49-.13.49-.29s.85-.49,1.9-.69c1.01-.2,2.19-.52,2.55-.72.59-.29,4.52-.69,8.15-.85.53-.02,2.73.12,4.89.31Z"/>
  <path class="cls-1" d="M46.33,1.26c-.26.52-.49,1.24-.49,1.64,0,.36-.16.65-.33.65-.2,0-.49.65-.72,1.47-.23.82-.49,1.47-.62,1.47s-.36.49-.46,1.05c-.13.59-.49,1.51-.82,2.06-.33.52-.69,1.47-.82,2.03-.1.59-.33,1.08-.46,1.08s-.46.82-.69,1.8-.56,1.8-.69,1.8c-.2,0-.49.59-1.11,2.29-.03.1-.23.59-.43,1.08-.23.52-.39,1.15-.39,1.41s-.16.46-.33.46c-.2,0-.29.1-.26.23.07.26-.49,1.6-1.21,3.04-.23.46-.52,1.31-.65,1.87-.1.59-.33,1.08-.46,1.08-.1,0-.43.65-.65,1.47-.23.82-.52,1.47-.69,1.47-.13,0-.43.82-.65,1.8-.23.98-.52,1.8-.65,1.8-.16,0-.46.65-.69,1.47s-.52,1.47-.65,1.47-.39.72-.62,1.64c-.23.88-.49,1.64-.62,1.64s-.43.65-.65,1.47c-.23.82-.56,1.47-.69,1.47s-.36.52-.46,1.15c-.13.62-.36,1.15-.56,1.15-.16,0-.29.2-.26.39.07.23-.33,1.28-.79,2.29-.49,1.05-.98,2.32-1.08,2.88-.13.52-.33.98-.46.98-.16,0-.39.49-.49,1.05-.13.59-.49,1.51-.82,2.06-.33.52-.69,1.47-.82,2.03-.1.59-.36,1.08-.52,1.08s-.29.23-.29.49-.36,1.28-.82,2.29c-.46.98-.92,2.23-1.01,2.78-.13.52-.33.98-.46.98-.16,0-.39.49-.49,1.05-.13.59-.49,1.51-.82,2.06-.33.52-.69,1.47-.82,2.03-.1.59-.33,1.08-.49,1.08-.13,0-.36.52-.46,1.15-.13.62-.36,1.15-.56,1.15s-.23.13-.13.33c.1.16.03.33-.13.33-.2,0-.36.2-.36.46s-.16.88-.39,1.41c-.2.49-.39.98-.43,1.08-.03.1-.23.59-.43,1.08-.23.52-.39,1.15-.39,1.41s-.13.46-.26.46-.46.56-.69,1.21c-.82,2.39-1.73,3.99-2.36,4.19-.33.13-.62.33-.62.49s-.52.46-1.15.69c-.62.23-1.15.52-1.15.62,0,.13-.59.43-1.31.65-.72.23-1.31.56-1.31.72,0,.13-.26.26-.59.26s-1.11.29-1.8.62c-.65.33-1.57.72-2.03.82-.75.2-.82.36-.82,2.16v1.96h28.51l-.1-1.87c-.1-1.83-.13-1.9-1.24-2.19-.62-.16-1.21-.43-1.31-.52-.1-.13-.72-.43-1.37-.69-.69-.23-1.24-.56-1.24-.69s-.23-.26-.52-.26c-.95,0-5.34-2.29-5.7-2.95-.46-.88-.39-3.01.13-3.76.26-.36.62-1.28.85-2.06.23-.75.52-1.37.62-1.37.13,0,.43-.65.65-1.47.23-.82.72-2.03,1.05-2.68.36-.69.62-1.47.62-1.8s.13-.59.29-.59.43-.49.52-1.08c.13-.56.49-1.51.82-2.03.33-.56.69-1.47.82-2.06.1-.56.33-1.05.46-1.05.1,0,.43-.65.65-1.47.23-.82.56-1.47.69-1.47s.36-.52.46-1.15l.23-1.15,17.41.07c16.37.1,17.41.13,17.32.65-.07.33.03.59.2.59.16,0,.49.65.69,1.44.2.82.49,1.57.69,1.67.16.1.33.49.33.82s.2.82.46,1.05c.23.26.62,1.21.85,2.16.26.95.56,1.7.65,1.7.13,0,.43.62.65,1.37.26.79.62,1.7.85,2.06s.49,1.15.62,1.7c.13.59.33,1.08.49,1.08.13,0,.36.49.46,1.08s.46,1.57.82,2.19c.33.62.72,1.64.82,2.19.13.59.36,1.08.49,1.08s.43.72.65,1.64c.23.88.56,1.7.72,1.83.75.46.16,1.05-1.51,1.44-.98.23-1.8.52-1.8.65s-.65.43-1.47.62c-.82.2-1.47.49-1.47.65s-.49.39-1.11.49c-1.51.29-1.9.85-1.77,2.55l.1,1.41,30.38.1,30.38.07-.1-1.87c-.1-1.73-.16-1.87-1.08-2.16-.52-.2-1.05-.43-1.15-.52-.1-.13-.79-.43-1.54-.69-.79-.23-1.41-.52-1.41-.65s-.46-.33-1.05-.46c-.59-.1-1.37-.43-1.8-.69l-.75-.49V.16l-3.96.2c-2.19.1-4.06.29-4.19.46-.1.16-1.47.49-3.08.72-1.57.23-2.91.56-3.01.69-.07.13-1.05.33-2.16.46-2.82.33-3.24.65-3.24,2.55v1.57h1.44c.82,0,1.54.13,1.67.29.1.16.59.39,1.08.52,1.05.23,3.47,2.59,3.83,3.67.1.43.36.75.52.75s.29,14.63.29,37.81c0,35.22-.03,37.81-.56,37.81-.29,0-1.15.26-1.87.62-.75.33-1.87.79-2.49,1.05-.62.23-1.24.59-1.37.75-.39.59-4.03.43-4.65-.2-.29-.33-1.05-.65-1.67-.79-.62-.1-1.15-.33-1.15-.46s-.59-.43-1.31-.65c-.72-.23-1.31-.56-1.31-.72,0-.13-.23-.26-.49-.26s-.49-.29-.49-.62c0-.36-.23-.85-.49-1.15-.26-.26-.49-.65-.49-.88,0-.52-.75-2.72-1.01-2.91-.1-.1-.39-.75-.62-1.47s-.62-1.6-.85-1.96c-.2-.36-.49-1.15-.62-1.73-.13-.56-.33-1.05-.46-1.05s-.46-.82-.69-1.8c-.23-.98-.52-1.8-.65-1.8s-.43-.65-.65-1.47c-.23-.82-.56-1.47-.69-1.47-.16,0-.29-.26-.29-.59s-.26-1.11-.62-1.8c-.33-.65-.82-1.87-1.05-2.68-.23-.82-.56-1.47-.69-1.47s-.33-.52-.46-1.15c-.1-.62-.33-1.15-.46-1.15-.16,0-.36-.49-.49-1.08-.13-.56-.43-1.34-.62-1.7-.23-.36-.62-1.34-.88-2.23-.23-.85-.52-1.54-.65-1.54s-.43-.75-.65-1.64c-.23-.92-.52-1.64-.65-1.64-.1,0-.39-.65-.62-1.47-.23-.82-.52-1.47-.65-1.47s-.43-.82-.65-1.8c-.23-.98-.52-1.8-.65-1.8s-.43-.65-.62-1.47-.52-1.47-.69-1.47c-.2,0-.33-.26-.33-.56s-.26-1.15-.62-1.87c-.33-.75-.79-1.87-1.01-2.49-.39-1.18-.92-2.42-1.8-4.35-.26-.56-.56-1.44-.69-1.96-.1-.49-.29-.88-.43-.88s-.43-.65-.65-1.47c-.23-.82-.72-2.03-1.05-2.68-.36-.69-.62-1.47-.62-1.8s-.13-.59-.29-.59-.46-.65-.65-1.47c-.2-.82-.49-1.47-.65-1.47-.13,0-.46-.82-.69-1.8s-.56-1.8-.69-1.8-.33-.49-.46-1.08c-.13-.56-.39-1.34-.62-1.7-.23-.36-.59-1.28-.85-2.06-.23-.75-.52-1.37-.65-1.37s-.36-.49-.46-1.08-.46-1.57-.82-2.19c-.33-.62-.72-1.64-.82-2.23-.13-.56-.36-1.05-.52-1.05-.13,0-.36-.52-.46-1.15l-.23-1.15h-2.09c-2.03-.01-2.16.02-2.65.97ZM44.86,21.92c.26.88.56,1.6.69,1.6s.33.49.46,1.05c.13.59.39,1.37.62,1.73.23.36.59,1.28.85,2.03.23.79.56,1.41.72,1.41.13,0,.26.2.26.46s.16.88.39,1.41c.2.49.39.98.43,1.08.03.1.23.59.43,1.08.23.52.39,1.15.39,1.41s.16.46.36.46c.16,0,.23.13.13.33-.1.16-.07.33.1.33.2,0,.43.52.52,1.15.13.62.33,1.15.49,1.15.13,0,.46.82.69,1.8s.52,1.8.65,1.8c.16,0,.46.65.69,1.47s.52,1.47.65,1.47.39.72.62,1.64c.23.88.49,1.64.62,1.64s.43.69.65,1.54c.26.88.65,1.87.88,2.23.2.36.49,1.15.62,1.7.13.59.33,1.08.49,1.08.13,0,.33.36.39.82l.16.82h-15.65c-10.25,0-15.68-.1-15.68-.33,0-.2.13-.33.29-.33s.39-.39.49-.92c.23-.88.79-2.23,1.83-4.32.33-.62.69-1.64.82-2.23.1-.56.36-1.05.52-1.05s.29-.23.29-.56c0-.29.36-1.28.79-2.19.46-.95.92-2.13,1.05-2.65.13-.56.33-1.05.43-1.15.36-.29,1.01-1.96,1.01-2.62,0-.36.13-.65.33-.65.16,0,.49-.65.69-1.47s.49-1.47.65-1.47.29-.23.29-.56c0-.29.36-1.31.82-2.26.46-.98.92-2.19,1.01-2.75.13-.52.33-.98.46-.98.16,0,.36-.46.49-.98.13-.56.36-.98.52-.98.2,0,.29-.2.26-.43-.07-.39.07-.79,1.41-3.7.33-.72.59-1.51.59-1.73,0-.2.2-.59.43-.85.33-.36.49-.33.92.23.33.34.76,1.38.99,2.24Z"/>
  <path class="cls-1" d="M425.71.51c-.52.1-1.11.26-1.31.43-.16.13-1.77.43-3.5.65-1.77.26-3.21.56-3.21.65,0,.13-.92.36-2,.46-2.82.33-3.24.65-3.24,2.55v1.57h1.47c.82,0,1.47.13,1.47.29s.52.39,1.15.49c1.24.26,3.11,1.64,3.11,2.36,0,.26.16.46.33.46.43,0,1.11,1.6,1.01,2.36-.03.33.1.59.26.59.26,0,.36,4.65.36,15.06s-.1,15.06-.36,15.06c-.2,0-.79-.33-1.28-.75-.49-.39-1.18-.92-1.51-1.11-.33-.23-1.28-.85-2.09-1.41-.82-.52-1.67-.98-1.87-.98-.23,0-.43-.13-.43-.26,0-.16-.59-.49-1.31-.72-.72-.23-1.31-.56-1.31-.69s-.69-.36-1.54-.49c-.88-.13-1.67-.39-1.8-.59-.33-.49-12.96-.49-13.29,0-.13.2-.75.49-1.37.62-.62.13-1.34.36-1.64.52-.26.16-1.01.52-1.64.79-2.06.92-3.47,1.73-3.9,2.26-.26.29-.56.52-.69.52-.82,0-7.53,7.56-7.53,8.48,0,.2-.13.36-.29.36-.13,0-.46.69-.72,1.54-.23.88-.62,1.77-.85,2s-.43.72-.43,1.05-.16.72-.33.82c-.2.13-.33.46-.26.75.03.33-.03.75-.16.95-.16.23-.36,1.44-.46,2.72-.1,1.24-.33,2.29-.46,2.29-.39,0-.36,8.38.03,9.1.16.29.39,1.41.49,2.42.13,1.05.33,1.96.49,2.06s.23.39.13.65.03.79.33,1.21c.29.39.52.98.52,1.31s.13.59.26.59c.16,0,.46.59.69,1.31.2.72.49,1.31.62,1.31s.46.49.72,1.05c.23.59.56,1.21.72,1.41.13.16.62.79,1.08,1.34.46.59.82,1.15.82,1.28,0,.26,3.9,4.06,4.81,4.68.33.23,1.05.69,1.57,1.05.56.33,1.15.75,1.34.92s.69.43,1.15.56c.43.13,1.31.52,1.93.85.62.36,1.37.62,1.64.62.29,0,.65.13.82.29.69.69,6.25,1.08,9.89.72,1.93-.2,3.57-.49,3.67-.65.13-.16.75-.39,1.44-.52.65-.13,1.21-.36,1.21-.49s.59-.39,1.31-.62c.72-.2,1.31-.52,1.31-.69,0-.13.46-.36,1.01-.49.56-.13,1.08-.43,1.18-.69s.33-.46.56-.46c.2,0,.88-.43,1.51-.98.62-.52,1.28-.95,1.41-.98.16,0,.75-.52,1.34-1.15.62-.62,1.18-1.15,1.31-1.15.1,0,.2.75.2,1.7,0,1.57.1,1.77,1.64,3.27l1.6,1.57h16.07v-3.86l-1.15-.2c-.62-.13-1.15-.36-1.15-.52,0-.2-.65-.49-1.47-.72s-1.47-.52-1.47-.65-.16-.26-.39-.26c-.2,0-1.01-.29-1.8-.69l-1.41-.69V.29l-2.68.03c-1.49.02-3.13.12-3.68.19ZM409.27,41.46c.23.2,1.11.52,1.96.72.85.23,1.54.52,1.54.65s.59.43,1.31.65c.72.23,1.31.52,1.31.65,0,.1.52.39,1.15.65.62.23,1.18.62,1.28.88.1.23.39.43.65.43.29,0,.65.29.85.65s.52.65.72.65.65.23.98.56c.56.49.59,1.47.59,17.51v16.96l-1.08,1.08c-.62.56-1.21,1.31-1.31,1.6s-.62.82-1.11,1.15c-.49.29-1.21.85-1.6,1.24-1.15,1.08-2.23,1.83-2.98,2-.43.13-.75.29-.75.43,0,.16-.62.46-1.37.69-.79.26-1.57.56-1.77.72-.2.13-1.57.43-3.04.62-2.72.33-7.23-.03-8.02-.65-.2-.16-.95-.46-1.67-.69s-1.44-.62-1.57-.85c-.13-.26-.43-.46-.59-.46-.43,0-4.22-3.86-4.84-4.94-1.01-1.64-1.8-3.4-1.73-3.83.07-.2-.03-.39-.2-.39-.2,0-.43-.56-.56-1.21-.13-.69-.33-1.31-.49-1.41-1.28-.82-1.28-22.39.03-22.85.16-.07.29-.52.29-1.01,0-.46.23-1.18.49-1.57.29-.39.46-.85.43-.98-.1-.43.82-2.19,1.28-2.49.23-.13.43-.46.43-.69,0-.59,3.93-4.29,4.84-4.58.39-.13.72-.36.72-.49s.59-.43,1.31-.65c.72-.2,1.31-.52,1.31-.69s.49-.36,1.08-.43c1.85-.29,9.68.01,10.13.37Z"/>
  <path class="cls-1" d="M571.86,2.05v1.77l5.17.13c4.88.1,5.2.13,6.28.92,1.6,1.15,2.36,1.93,3.01,3.24.56,1.08.59,3.21.59,35.45,0,18.85-.13,34.3-.26,34.3-.16,0-.46.75-.65,1.64-.36,1.54-.56,1.9-1.64,3.11-.23.26-.33.49-.2.49.16,0-.59.88-1.67,1.96-1.08,1.08-2.13,1.96-2.36,1.96s-.43.13-.43.26c0,.16-.59.49-1.31.72-.72.23-1.31.52-1.31.65,0,.16-.65.46-1.47.69s-1.47.56-1.47.65c0,.13-.43.33-.98.46-.95.2-.98.26-.98,2.16v1.93h33.06v-3.89l-1.15-.23c-.62-.1-1.15-.33-1.15-.49,0-.13-.62-.46-1.37-.69-.79-.2-1.47-.49-1.57-.59s-.65-.39-1.21-.62c-.59-.26-1.08-.56-1.08-.72s-.23-.29-.49-.29-.65-.29-.88-.65-.62-.65-.85-.65-.49-.23-.62-.52c-.1-.33-.59-.95-1.08-1.41s-1.08-1.41-1.34-2.09c-.23-.65-.52-1.21-.65-1.21-.33,0-.95-2.98-.95-4.42,0-.62-.13-1.15-.33-1.15-.23,0-.33-10.7-.33-31.42,0-18.92.13-31.42.29-31.42s.39.49.52,1.05c.13.59.39,1.37.62,1.73.23.36.59,1.28.85,2.03.23.79.56,1.41.72,1.41.13,0,.26.2.26.46s.16.88.39,1.41c.2.49.33,1.11.29,1.31-.03.23.1.43.26.43.2,0,.43.52.56,1.15.1.62.33,1.15.52,1.15.16,0,.2.13.1.33-.1.16-.07.33.1.33.2,0,.43.52.52,1.15.13.62.33,1.15.49,1.15.13,0,.46.82.69,1.8s.52,1.8.65,1.8.43.65.62,1.47c.2.82.49,1.47.65,1.47s.46.72.69,1.64c.23.88.52,1.64.65,1.64s.36.49.46,1.08.46,1.57.82,2.19c.33.62.72,1.64.82,2.19.13.59.36,1.08.52,1.08.13,0,.33.46.46.98.1.56.59,1.83,1.08,2.88.49,1.01.85,2.06.82,2.26-.07.23.03.43.23.43.16,0,.43.49.52,1.05.23,1.05.43,1.51,1.57,3.8.33.62.49,1.24.36,1.41-.1.16-.03.29.16.29s.43.52.56,1.15c.1.62.33,1.15.46,1.15.16,0,.39.49.49,1.05.13.59.49,1.51.82,2.06.33.52.69,1.47.82,2.03.1.59.33,1.08.49,1.08.13,0,.36.49.46,1.08s.46,1.57.82,2.19c.33.62.72,1.64.82,2.19.13.59.36,1.08.52,1.08.13,0,.33.46.46.98.1.56.59,1.83,1.08,2.88.46,1.01.85,2.06.79,2.26-.03.23.07.43.26.43.16,0,.43.49.52,1.05.13.59.43,1.44.65,1.9.69,1.34,1.28,2.75,1.31,3.11.03.16.2.65.43,1.05.23.39.39.95.39,1.21,0,.29.13.52.29.52s.43.49.52,1.05c.13.59.49,1.51.82,2.06.33.52.69,1.47.82,2.03.1.59.36,1.08.52,1.08s.29.29.29.65c0,.59.23.65,2.16.65s2.19-.1,2.32-.65c.1-.36.29-.65.43-.65.13,0,.43-.65.62-1.47s.49-1.47.65-1.47c.13,0,.46-.82.69-1.8s.56-1.8.69-1.8c.16,0,.36-.52.49-1.15.1-.62.33-1.15.46-1.15.16,0,.39-.49.49-1.08.13-.56.49-1.51.82-2.03.33-.56.69-1.47.82-2.06.1-.56.33-1.05.46-1.05.1,0,.43-.69.65-1.57.26-.85.65-1.83.88-2.19.2-.36.49-1.15.62-1.73.13-.56.33-1.05.46-1.05s.43-.75.69-1.7c.23-.95.62-1.9.85-2.16.23-.23.52-.92.65-1.54.1-.62.33-1.15.46-1.15.16,0,.36-.49.49-1.08.13-.56.43-1.34.62-1.7.23-.36.62-1.34.88-2.23.23-.85.56-1.54.69-1.54s.33-.52.46-1.15c.1-.62.33-1.15.46-1.15s.43-.62.65-1.41c.26-.75.62-1.67.85-2.03.23-.36.49-1.15.62-1.73.13-.56.33-1.05.46-1.05s.46-.82.69-1.8.56-1.8.69-1.8c.16,0,.46-.65.65-1.47s.49-1.47.65-1.47.29-.23.29-.56c0-.29.36-1.31.82-2.26.46-.98.92-2.19,1.01-2.75.13-.52.33-.98.46-.98.16,0,.43-.75.65-1.64.23-.92.49-1.64.62-1.64.1,0,.39-.62.62-1.41.23-.75.62-1.83.88-2.36,1.37-2.95,1.8-4.03,1.8-4.52,0-.29.13-.56.33-.56.16,0,.49-.65.69-1.47s.49-1.47.62-1.47.43-.82.65-1.8c.23-.98.56-1.8.69-1.8.16,0,.46-.65.65-1.47s.49-1.47.65-1.47c.13,0,.36-.52.49-1.15.1-.65.26-1.11.33-1.05.23.2.13,73.45-.07,73.98-.1.26-.82.65-1.64.85-.79.2-1.44.49-1.44.65s-.46.43-1.05.52c-.59.13-1.64.56-2.39.95-1.01.52-2.03.72-4.65.79l-3.37.13v3.54h44.55l-.1-1.73-.1-1.7-3.93-.2c-3.99-.23-5.4-.49-5.4-.98,0-.16-.65-.46-1.47-.65-.82-.2-1.47-.49-1.47-.62s-.75-.43-1.64-.65c-1.24-.29-1.67-.56-1.8-1.11-.1-.36-.13-18.13-.1-39.48.1-33.91.16-38.89.59-39.38.26-.33.75-.88,1.08-1.24.29-.33.56-.79.56-.95,0-.2.16-.33.36-.33s.82-.33,1.37-.75c.95-.65,1.51-.72,6.45-.88l5.4-.16V.5h-29.43l-.49,1.64c-.29.88-.59,1.7-.72,1.8-.13.1-.36.62-.49,1.15-.13.56-.49,1.51-.85,2.13-.33.62-.69,1.6-.79,2.19s-.33,1.08-.46,1.08c-.16,0-.36.49-.49,1.05-.13.59-.39,1.37-.62,1.73-.23.36-.59,1.28-.85,2.03-.23.79-.52,1.41-.65,1.41s-.36.52-.46,1.15c-.13.62-.36,1.15-.56,1.15s-.26.13-.16.29c.13.16-.03.79-.36,1.41-1.15,2.29-1.34,2.75-1.57,3.76-.1.59-.33,1.08-.46,1.08s-.46.82-.69,1.8-.56,1.8-.69,1.8c-.16,0-.46.65-.65,1.47-.2.82-.49,1.47-.65,1.47s-.29.26-.29.59-.26,1.08-.59,1.7c-.29.62-.79,1.8-1.05,2.62-.23.82-.62,1.77-.85,2.13-.23.36-.49,1.15-.62,1.7-.13.59-.33,1.08-.43,1.08-.13,0-.43.62-.65,1.37-.23.79-.62,1.9-.88,2.45-.26.59-.72,1.57-.98,2.13-.26.59-.56,1.47-.69,1.96-.1.52-.33.92-.52.92-.16,0-.2.13-.1.33.1.16.03.33-.13.33-.2,0-.36.23-.36.52,0,.26-.29,1.15-.65,1.96-.36.79-.75,1.9-.88,2.42-.1.56-.29.98-.43.98-.13,0-.36.39-.49.88-.1.49-.49,1.54-.85,2.29-.36.79-.72,1.87-.85,2.39-.1.56-.29.98-.43.98-.16,0-.36.49-.49,1.05-.13.59-.43,1.37-.62,1.73-.23.36-.62,1.24-.85,1.96s-.52,1.37-.62,1.47c-.26.2-1.01,2.39-1.01,2.91,0,.23-.23.62-.49.88-.26.29-.49.79-.49,1.15,0,.95-.65.75-1.01-.36-.2-.56-.49-.98-.65-.98s-.29-.23-.29-.49c0-.75-.79-3.11-1.05-3.11-.1,0-.29-.49-.43-1.08-.13-.56-.43-1.34-.62-1.7-.23-.36-.62-1.34-.88-2.23-.23-.85-.52-1.54-.65-1.54s-.33-.39-.46-.88c-.1-.49-.49-1.51-.82-2.23-.33-.72-.72-1.73-.82-2.23-.13-.49-.33-.88-.46-.88-.16,0-.46-.82-.69-1.8s-.52-1.8-.65-1.8-.43-.65-.62-1.47c-.2-.82-.52-1.47-.69-1.47-.16,0-.39-.52-.52-1.15-.1-.62-.33-1.15-.46-1.15-.16,0-.36-.49-.49-1.08-.13-.56-.43-1.34-.62-1.7-.23-.36-.62-1.34-.88-2.23-.23-.85-.52-1.54-.65-1.54s-.39-.75-.62-1.64c-.23-.92-.49-1.64-.65-1.64-.13,0-.43-.65-.65-1.47-.23-.82-.52-1.47-.65-1.47s-.43-.82-.65-1.8c-.23-.98-.52-1.8-.65-1.8s-.43-.65-.62-1.47-.52-1.47-.69-1.47c-.2,0-.33-.26-.33-.59s-.26-1.08-.59-1.7c-.29-.62-.79-1.8-1.05-2.62-.23-.82-.65-1.77-.88-2.13-.23-.36-.43-.88-.43-1.21s-.13-.59-.29-.59-.46-.75-.69-1.64c-.23-.92-.49-1.64-.62-1.64s-.43-.65-.65-1.47c-.23-.82-.52-1.47-.69-1.47-.13,0-.43-.82-.65-1.8s-.52-1.8-.65-1.8-.43-.65-.62-1.47-.49-1.47-.65-1.47c-.13,0-.46-.82-.69-1.8s-.52-1.8-.65-1.8-.43-.62-.65-1.41c-.26-.75-.59-1.57-.75-1.8-.23-.29-3.54-.39-14.5-.39h-14.21v1.74Z"/>
  <path class="cls-1" d="M848.46,2.05v1.77l4.12.1c3.5.1,4.16.23,4.42.69.2.33.52.59.75.59.72,0,2.49,2.42,2.49,3.44,0,.26.13.49.29.49.2,0,.36,11.72.43,30.34.07,18.56.23,30.57.43,30.87.16.26.26.95.2,1.54-.03.59.07,1.08.23,1.08s.39.75.49,1.67c.13.92.36,1.87.59,2.13.2.26.29.69.16.95-.1.26-.03.49.13.49.13,0,.36.43.49.98.13.52.33.98.49.98s.46.56.69,1.21c.23.69.65,1.44,1.01,1.67.33.23.59.59.59.75,0,.46,3.73,4.22,4.19,4.22.2,0,.49.2.62.43.23.36,1.31,1.08,3.54,2.46,1.47.88,4.65,2.29,5.66,2.52.59.13,1.47.43,1.93.65.46.23,1.73.52,2.85.65,1.08.13,2.09.39,2.19.56.1.16,2.06.39,4.35.49s4.22.33,4.32.49c.23.36,3.63.36,3.86,0,.1-.16,1.96-.39,4.16-.49,2.19-.1,4.09-.33,4.19-.46.1-.16,1.31-.46,2.65-.69s2.52-.52,2.62-.69c.1-.13.95-.46,1.9-.69.92-.2,1.7-.52,1.7-.69,0-.13.52-.36,1.15-.49.62-.1,1.28-.39,1.41-.59.13-.23.75-.59,1.37-.85s1.31-.59,1.47-.72c.2-.13.79-.62,1.34-1.08.59-.46,1.15-.82,1.28-.82.39,0,3.76-3.6,3.76-4.03,0-.23.29-.59.65-.82.36-.23.65-.59.65-.85s.2-.52.46-.62.56-.62.69-1.18c.13-.56.36-1.01.49-1.01.16,0,.49-.59.69-1.31.23-.72.52-1.31.65-1.31s.33-.62.46-1.41c.13-.75.36-1.54.52-1.73.62-.75.95-14.3.95-39.18,0-16.73.1-25.43.33-25.43.2,0,.33-.23.33-.49,0-.95,1.87-3.44,2.55-3.44.2,0,.49-.26.69-.59.29-.49,1.01-.56,8.05-.56s7.76.07,8.05.56c.2.33.52.59.75.59.49,0,1.83,1.37,1.83,1.9,0,.2.26.49.59.69.52.29.56,2.55.65,39.38.03,21.47,0,39.38-.1,39.74-.1.43-.52.82-1.05.95-.49.1-1.7.56-2.65,1.01-.95.43-1.93.79-2.19.79s-.49.13-.49.26-.52.46-1.15.69c-1.11.39-1.15.46-1.15,2.19v1.77h71.26l.23-1.24c.1-.65.2-2.13.2-3.27s.13-2.03.26-2.03c.16,0,.49-3.14.72-6.97.23-3.8.52-7,.65-7.1s.33-1.83.46-3.86l.23-3.67h-3.6l-.39,1.96c-.2,1.08-.49,1.96-.59,1.96-.13,0-.43.72-.65,1.64-.23.88-.56,1.64-.72,1.64-.13,0-.46.59-.65,1.31-.23.72-.52,1.31-.69,1.31s-.43.36-.59.82c-.16.46-.46.82-.65.82-.16,0-.33.2-.33.46,0,.62-5.63,6.25-6.94,6.94-.59.29-1.24.75-1.51.98-.23.26-.79.56-1.24.65-.43.1-.79.29-.79.43,0,.16-.62.46-1.37.72-.79.23-1.93.72-2.55,1.01-.62.33-1.37.59-1.7.59s-.59.13-.59.26c0,.79-2.52,1.05-9.53,1.05-7.46,0-7.79-.07-10.83-1.41-.69-.33-1.44-.56-1.73-.56-.26,0-.49-.16-.49-.33,0-.2-.65-.49-1.47-.72l-1.47-.39v-41.12h9c5.27,0,9,.13,9,.29s.43.39.98.52c1.15.26,2.62,1.34,2.62,1.96,0,.26.2.59.46.72.72.43,1.18,2.65,1.18,5.89v3.04h3.6v-28.16h-3.6v2.85c0,2.91-.39,5.04-1.08,5.89-1.28,1.57-2.75,2.68-3.83,2.91-.46.1-1.08.29-1.37.49-.33.16-4.26.29-8.77.29h-8.18V3.82l12.05.1c10.8.1,12.08.16,12.83.65.43.33.98.59,1.24.59.23,0,.92.36,1.51.82.59.46,1.21.82,1.37.82.36,0,3.08,2.68,3.08,3.04,0,.13.26.52.59.85,1.05,1.21,1.37,1.64,1.77,2.55.23.49.62,1.11.85,1.37.23.23.52.85.62,1.37s.29.95.46.95c.13,0,.43.82.65,1.8.23.98.52,1.8.65,1.8s.33.59.46,1.31l.23,1.31h3.54v-1.41c0-.79-.1-1.54-.23-1.64-.1-.13-.16-1.24-.13-2.52.03-1.28-.07-2.29-.23-2.29s-.43-2.06-.56-4.58c-.13-2.52-.36-4.58-.52-4.58s-.29-.98-.29-2.23-.1-2.52-.2-2.95l-.2-.72h-93.22v3.6h2.91c1.6,0,3.4.1,3.99.23,1.57.29,4.42,3.24,4.71,4.81.13.65.33,1.18.46,1.18.23,0,.13,49.07-.1,49.82-.07.23-.23,2.68-.33,5.47-.1,3.01-.33,5.2-.56,5.47-.2.26-.29.65-.2.95.13.26.07.56-.1.65-.13.1-.36.75-.49,1.47s-.33,1.31-.46,1.31-.46.59-.69,1.28c-.23.72-.62,1.37-.85,1.47-.26.1-.46.33-.46.52,0,.95-3.6,4.81-5.92,6.38-.79.52-1.51,1.08-1.6,1.18-.1.1-.72.39-1.37.65-.69.23-1.24.52-1.24.62,0,.13-.59.43-1.31.65-.72.23-1.31.52-1.31.65s-.92.43-2.03.65c-1.15.23-2.13.56-2.23.72-.13.13-2.36.43-5.01.65-3.83.33-5.66.29-8.97-.03-2.29-.23-4.26-.52-4.35-.65-.1-.16-1.01-.46-2.03-.69-1.05-.23-1.9-.52-1.9-.65s-.59-.43-1.31-.65c-.72-.23-1.31-.56-1.31-.72s-.26-.39-.56-.49c-1.34-.49-5.3-4.22-6.06-5.66-.23-.46-.62-1.01-.82-1.24-.23-.23-.52-.82-.65-1.31-.1-.49-.33-.98-.49-1.08s-.46-1.28-.62-2.62c-.2-1.34-.52-2.78-.72-3.21-.29-.59-.39-8.77-.39-32.18,0-29.53.03-31.42.59-31.82.29-.23.56-.59.56-.79s.69-.92,1.51-1.6l1.54-1.24,3.96-.16,3.96-.16V.38l-19.38-.1-19.41-.07v1.84h.01Z"/>
  <path class="cls-1" d="M1023.91,2.08v1.8h3.37c2.78,0,3.54.1,4.48.65.62.36,1.37.75,1.64.85.59.23,2.29,2.82,2.29,3.47,0,.26.07.56.16.65.1.1.2,17.54.26,38.79.03,28.28-.03,38.72-.29,38.99-.2.2-.98.52-1.73.75-.72.23-1.34.52-1.34.65s-.49.36-1.05.46c-.59.13-1.54.52-2.09.85s-1.28.62-1.57.62c-.43,0-.52.36-.52,1.96v1.96h71.26l.36-5.01c.23-2.72.39-5.6.39-6.38s.13-1.37.26-1.37c.16,0,.49-3.18.72-7.04s.56-7.04.72-7.04c.13,0,.26-.29.26-.65,0-.62-.16-.69-1.87-.59-1.87.1-1.9.1-2,1.15-.07.59-.23,1.08-.39,1.08-.13,0-.36.56-.49,1.21-.2,1.05-.82,2.49-1.87,4.35-.16.26-.49.98-.75,1.54-.29.59-.65,1.08-.82,1.08-.2,0-.33.16-.33.36,0,.98-5.14,6.35-8.12,8.45-1.64,1.15-3.76,2.23-4.91,2.49-.59.1-1.05.33-1.05.49,0,.13-.65.43-1.47.62-.82.2-1.47.49-1.47.65,0,.69-3.27,1.01-9.82,1.01s-9.82-.33-9.82-1.01c0-.16-.65-.46-1.47-.65-.82-.2-1.47-.49-1.47-.62,0-.16-.49-.36-1.05-.49-.59-.13-1.41-.43-1.8-.69l-.75-.46v-40.58h8.97c4.94,0,9.07.13,9.17.29s.59.39,1.08.52c1.01.23,3.37,2.36,3.37,2.98,0,.23.26.65.56.98.46.46.62,1.31.72,4.12l.1,3.54h3.54v-28.16h-3.5l-.2,3.18c-.13,2.42-.36,3.57-.88,4.58-.39.79-.85,1.41-1.01,1.41s-.29.2-.29.46-.29.56-.62.69c-.36.1-.72.39-.82.65s-.75.59-1.51.69c-.72.13-1.31.33-1.31.49s-3.9.29-8.67.29h-8.67V3.83l12.28.1c8.05.07,12.37.23,12.54.43.13.2.85.56,1.64.82.75.23,1.37.56,1.37.72,0,.13.16.26.36.26.36,0,3.01,1.96,3.18,2.39.07.13.79,1.01,1.57,1.93.79.95,1.44,1.87,1.44,2.09,0,.2.2.46.46.56s.56.62.69,1.18.33,1.01.49,1.01c.13,0,.46.65.69,1.47s.52,1.47.65,1.47c.1,0,.39.92.62,2.03.23,1.15.56,2.26.75,2.45.16.26,1.01.43,1.93.43h1.64l-.2-1.41c-.1-.75-.26-3.14-.39-5.3-.13-2.16-.33-4.09-.46-4.26-.13-.2-.33-2.03-.46-4.09s-.29-4.68-.43-5.83l-.2-2.03h-66.03v1.83h-.02Z"/>
  <path class="cls-1" d="M1100.83,2.05v1.77l5.3.13c3.86.07,5.3.2,5.43.49.07.23.29.43.49.43.52,0,2.13,1.73,2.98,3.21l.69,1.21v33.91c0,24.65-.1,34.14-.36,34.7-.23.43-.56,1.41-.79,2.16-.23.79-.52,1.41-.69,1.41-.13,0-.29.33-.43.72-.1.43-1.08,1.67-2.19,2.82-1.47,1.47-2.72,2.39-4.71,3.34-1.51.72-2.88,1.31-3.08,1.31s-.36.13-.36.33c0,.16-.52.39-1.15.52l-1.15.2v3.86h33.75l-.1-1.7c-.1-1.87.03-1.73-3.24-3.18-.82-.39-1.67-.69-1.87-.69-.23,0-.39-.13-.39-.29s-.39-.36-.88-.46c-2.09-.43-6.74-5.27-7.46-7.76-.13-.46-.43-1.01-.62-1.28-.26-.33-.39-9.59-.46-33.49l-.07-33.03.65.36c.36.2.65.56.65.79s.29.69.65,1.01.65.79.65,1.01.29.59.65.79.65.52.65.72.23.59.49.88c1.05,1.11,2.13,2.59,2.13,2.95,0,.16.29.49.65.69s.65.52.65.72.23.59.49.88c.26.29,1.08,1.24,1.8,2.16.69.88,1.51,1.9,1.8,2.19.26.33.49.72.49.88,0,.2.26.52.59.75.29.23.75.72.98,1.08.23.36.72,1.15,1.08,1.7.39.59.82,1.08.98,1.08s.29.2.29.46.26.69.59.92c.29.23.75.72.98,1.08.23.36.72,1.15,1.08,1.7.39.59.82,1.08.98,1.08s.29.16.29.36.59,1.08,1.31,1.93,1.31,1.73,1.31,1.93c0,.16.29.49.65.69s.65.52.65.72.23.59.49.88c1.05,1.11,2.13,2.59,2.13,2.95,0,.16.29.49.65.69s.65.49.65.69.65,1.15,1.47,2.06c.82.95,1.47,1.83,1.47,1.93,0,.13.2.49.46.79,2.06,2.52,2.75,3.37,3.31,4.19.36.49.88,1.18,1.15,1.47.52.56.85,1.05,2,2.85.39.59.82,1.08.98,1.08s.29.2.29.46.26.69.59.92c.29.23.75.72.98,1.08.23.36.72,1.15,1.08,1.7.39.59.82,1.08.98,1.08s.29.23.29.49.29.65.65.88.65.59.65.79.29.62.65.95.65.75.65.92.33.65.75,1.05c.39.39,1.01,1.11,1.37,1.64.36.52.98,1.34,1.41,1.83.39.49.72.98.72,1.08s.26.46.59.79c.29.36.85,1.05,1.21,1.54.36.52.98,1.34,1.41,1.83.39.49.72.98.72,1.08s.23.46.49.75c.26.33,1.28,1.6,2.26,2.88.98,1.24,2.03,2.55,2.32,2.85.26.33.49.72.49.92,0,.16.29.49.65.72s.65.59.65.79c0,.88,1.54,1.77,3.04,1.77h1.54v-42.55c0-24.09.13-42.55.29-42.55s.36-.39.46-.92c.1-.49.49-1.24.85-1.67.39-.43.69-.92.69-1.05s.79-.62,1.77-1.08c1.67-.79,2.13-.85,6.38-.85h4.62V.3h-33.38v3.6h4.68c4.09,0,4.81.07,5.79.65.62.36,1.41.75,1.73.85.29.13.56.39.56.59s.29.62.65.95c.36.29.75,1.01.88,1.54.1.56.29.98.46.98s.29,13.55.29,31.1c0,20.52-.1,31.1-.33,31.1-.16,0-.33-.23-.33-.49s-.29-.65-.65-.88-.65-.56-.65-.72c0-.13-.59-.98-1.31-1.83-.72-.85-1.31-1.73-1.31-1.93,0-.16-.29-.49-.65-.69s-.65-.56-.65-.85c0-.26-.2-.56-.46-.65-.26-.1-.62-.59-.85-1.11s-.59-1.01-.85-1.11-.46-.36-.46-.56c0-.23-.23-.62-.49-.92-1.05-1.11-2.45-2.91-2.45-3.11,0-.1-.26-.46-.56-.79-.33-.36-.88-1.05-1.24-1.54-.36-.52-.98-1.34-1.37-1.83-.43-.49-.75-.98-.75-1.08,0-.13-.36-.56-.82-.98-.46-.43-.82-.92-.82-1.11,0-.2-.26-.56-.56-.79-.33-.23-.79-.72-1.01-1.08-.23-.36-.72-1.15-1.08-1.73-.39-.56-.82-1.05-.98-1.05s-.29-.2-.29-.46-.26-.69-.56-.92c-.33-.23-.79-.72-1.01-1.08-.23-.36-.72-1.15-1.08-1.73-.39-.56-.82-1.05-.98-1.05s-.29-.16-.29-.36-.65-1.15-1.47-2.06c-.82-.95-1.47-1.83-1.47-1.96,0-.1-.26-.46-.56-.79-.33-.36-.88-1.05-1.24-1.54-.36-.52-.98-1.34-1.37-1.83-.43-.49-.75-.98-.75-1.08s-.26-.46-.56-.79c-.33-.36-.88-1.05-1.24-1.54-.36-.52-.98-1.34-1.37-1.83-.43-.49-.75-.98-.75-1.08s-.2-.46-.46-.75c-.26-.33-1.28-1.64-2.29-2.88-.98-1.28-2.09-2.59-2.45-2.98-.39-.39-.69-.85-.69-1.08,0-.2-.2-.46-.46-.56s-.62-.59-.85-1.11-.59-1.01-.85-1.11-.46-.36-.46-.56c0-.23-.23-.62-.49-.92-1.05-1.11-2.13-2.59-2.13-2.95,0-.16-.29-.49-.65-.69s-.65-.52-.65-.72-.23-.59-.49-.88c-.98-1.05-2.13-2.59-2.13-2.88,0-.13-.29-.46-.65-.69s-.65-.62-.65-.85c0-.26-.13-.52-.26-.59-.13-.07-.59-.59-1.01-1.18l-.72-1.05h-26.81v1.75h.06Z"/>
  <path class="cls-1" d="M147.57,36.19c-.69.07-1.24.26-1.24.39,0,.16-.56.39-1.21.52-.69.13-1.37.33-1.57.46-.16.13-.95.43-1.7.69-.79.23-1.41.56-1.41.72,0,.13-.2.26-.43.26s-.92.43-1.54.98c-.62.52-1.24.95-1.37.98-.82.03-6.02,6.02-6.81,7.76-.16.43-.43.75-.59.75s-.49.59-.72,1.31-.52,1.31-.65,1.31c-.1,0-.39.79-.65,1.7-.23.95-.52,1.8-.69,1.9-.13.1-.43,1.57-.62,3.27-.23,1.7-.52,3.37-.69,3.67-.36.72-.39,7.79,0,7.79.13,0,.36,1.21.49,2.68.13,1.51.43,3.08.65,3.57.23.46.62,1.54.88,2.36.23.85.52,1.54.62,1.54.13,0,.39.52.65,1.15.26.62.56,1.15.72,1.15.13,0,.26.2.26.46,0,.23.59,1.11,1.31,1.93.72.82,1.31,1.57,1.31,1.7,0,.29,2.88,3.11,3.21,3.11.13.03.75.46,1.37.98.62.56,1.31.98,1.51.98.23,0,.46.2.56.46s.62.56,1.18.69,1.01.36,1.01.52.65.46,1.47.69,1.47.49,1.47.62.69.36,1.57.49c.85.13,1.64.39,1.77.59.33.49,11.65.49,11.98,0,.13-.2.92-.46,1.8-.59.85-.13,1.54-.36,1.54-.52,0-.2.65-.49,1.47-.69s1.47-.49,1.47-.62c0-.16.46-.36,1.01-.49.56-.13,1.08-.43,1.18-.69s.36-.46.62-.46.62-.29.85-.65.59-.65.79-.65c.33,0,2.29-2.03,3.6-3.67.92-1.15,2.42-4.48,2.42-5.43,0-.26-.59-.39-1.9-.39h-1.93l-.43,1.31c-.23.72-.56,1.31-.72,1.31-.13,0-.26.13-.26.33,0,.95-2.49,3.54-4.88,5.07-.26.16-.72.52-.95.75-.26.23-.88.52-1.41.62s-.95.29-.95.43c0,.33-3.11.98-4.78.98-.79,0-1.44.13-1.44.33,0,.16-.52.33-1.15.33s-1.15-.13-1.15-.29c0-.13-1.01-.36-2.23-.46-1.51-.16-2.88-.52-4.12-1.18-2.19-1.11-5.99-4.58-6.28-5.79-.13-.46-.39-.92-.65-1.01-.23-.07-.52-.62-.62-1.18-.13-.59-.43-1.34-.65-1.73-.23-.36-.62-1.64-.85-2.78-.23-1.15-.49-2.16-.62-2.26-.39-.26-.98-7.43-.98-11.88v-4.16h36.19l1.41-1.34c.92-.92,1.37-1.64,1.37-2.23,0-1.34-.65-5.07-.95-5.27-.13-.1-.43-.79-.69-1.57-.23-.75-.52-1.37-.65-1.37-.1,0-.39-.52-.62-1.15-.23-.62-.56-1.15-.72-1.15s-.29-.23-.29-.49c0-.72-4.75-5.56-5.89-6.06-.56-.23-.98-.52-.98-.69s-.2-.29-.39-.29c-.23,0-1.15-.36-2.06-.82-.88-.43-2.03-.82-2.52-.82-.46,0-.92-.16-.98-.39-.15-.42-9.57-.71-12.13-.38ZM156.74,40.08c.13.2.72.49,1.31.62.59.1,1.21.49,1.37.85.2.33.52.62.72.62.56,0,1.9,1.34,1.9,1.87,0,.26.2.52.46.62s.65.92.85,1.8c.23.88.52,1.7.69,1.8.46.26.36,6.42-.1,7.43l-.43.88h-25.8l.2-2.16c.13-1.21.33-2.32.49-2.55.16-.2.46-1.21.69-2.26.23-1.01.52-1.87.69-1.87s.46-.56.69-1.24c.2-.65.59-1.34.82-1.47.26-.13.46-.43.46-.62,0-.75,3.96-3.83,4.94-3.86.26,0,.62-.13.82-.29.56-.52,1.57-.65,5.3-.59,2.29.03,3.8.19,3.93.42Z"/>
  <path class="cls-1" d="M176.57,36.42c-.1.26-.13,1.01-.07,1.7.1,1.24.13,1.28,1.57,1.44.82.1,1.96.52,2.59.98.92.69,23.47,23.08,24.58,24.39.26.33-2.29,3.08-11.39,12.18-9.89,9.89-11.95,11.82-13.09,12.14-.75.23-1.37.56-1.37.72,0,.2-.33.33-.75.33-1.47,0-2.19.88-2.19,2.65v1.6h20.94v-3.89l-1.15-.23c-.62-.1-1.15-.33-1.15-.46s-.62-.43-1.37-.69c-.79-.23-1.93-.72-2.55-1.01-.62-.33-1.31-.59-1.54-.59s-.43-.13-.43-.33c0-.29,18.82-19.31,19.12-19.31.2,0,13.29,13.16,13.29,13.39,0,.13,1.18,1.37,2.62,2.82,1.44,1.44,2.62,2.78,2.62,2.98,0,.23-.49.52-1.05.62-.59.13-1.44.43-1.9.65-.46.23-1.34.62-1.96.85-.62.23-1.21.52-1.31.62s-.69.36-1.31.52c-1.11.29-1.15.36-1.24,2.19l-.1,1.87h29.17v-3.86l-1.15-.2c-.62-.13-1.15-.36-1.15-.49,0-.16-.65-.49-1.47-.72-1.28-.39-3.08-2.06-15.09-14.08l-13.62-13.62,9.17-9.13c9.66-9.62,10.28-10.18,11.46-10.47.39-.13.72-.29.72-.43,0-.16.62-.46,1.41-.69.75-.26,1.54-.56,1.73-.72.23-.16,1.34-.36,2.55-.49l2.16-.2v-3.5h-20.94v1.8c0,1.64.07,1.8.75,1.8.39,0,1.24.46,1.87,1.01.92.82,1.15,1.24,1.15,2.23,0,1.44.56.75-7.82,9.26l-6.81,6.91-7.17-7.2-7.17-7.17v-1.57c0-1.28.16-1.73.95-2.52.65-.62,1.31-.95,1.96-.95q1.01,0,1.01-1.8v-1.8h-12.44c-10.34.01-12.51.07-12.64.47Z"/>
  <path class="cls-1" d="M266.39,36.19c-.88.07-1.57.26-1.57.39,0,.16-.72.36-1.6.46s-1.9.33-2.23.52c-.33.16-1.47.72-2.55,1.21-2.13,1.01-2.16,1.01-4.65,3.27-.95.85-1.73,1.73-1.73,1.96,0,.26-.13.46-.29.46s-.65.69-1.05,1.54c-.62,1.24-.75,2.03-.72,3.83.03,1.24.2,2.36.36,2.45.16.1.39.52.52.92.29.95,3.04,3.37,3.83,3.37.33,0,.69.13.79.33.26.39,4.75.43,4.75.03,0-.16.39-.36.92-.46.95-.2,3.01-1.77,3.01-2.29,0-.16.26-.49.56-.72.43-.33.59-1.08.69-3.4.16-3.5-.16-4.58-2-6.28-1.18-1.05-1.24-1.24-.85-1.87.23-.36.82-.79,1.28-.88.46-.13,1.34-.46,1.96-.75.92-.43,2.13-.56,5.83-.56,3.01,0,4.75.13,4.91.36.13.2.69.46,1.21.59,1.64.39,3.54,1.83,5.73,4.35.65.75.72,8.31.1,8.54-.23.07-.43.33-.43.59,0,.62-5.43,6.02-6.06,6.02-.29,0-.59.23-.69.49-.13.26-.39.49-.65.49-.23,0-.56.2-.69.46-.13.23-.82.62-1.47.82-.69.23-1.24.52-1.24.69,0,.13-.72.43-1.64.65-.88.23-1.64.49-1.64.65,0,.13-1.18.43-2.62.65-1.44.23-2.62.49-2.62.62s-.88.43-1.96.62c-1.08.23-2.36.62-2.85.85-.52.26-1.73.85-2.75,1.31-1.87.85-5.99,4.19-6.35,5.14-.1.29-.46.88-.82,1.28-.36.43-.65,1.01-.65,1.34s-.16.69-.33.79c-.2.13-.26.36-.13.52.1.16,0,.56-.23.82-.46.56-.56,7.66-.1,8.38.16.23.29.49.33.59.16.75.88,2.29,1.08,2.29.1,0,.39.46.65,1.05.59,1.28,1.31,2,2.59,2.59.59.26,1.05.56,1.05.69s.62.43,1.41.65c.75.2,1.47.56,1.6.75.33.46,10.67.46,11-.03.13-.16,1.08-.52,2.13-.79,1.01-.23,1.87-.52,1.87-.65s.62-.43,1.41-.65c.75-.26,1.44-.56,1.54-.65.1-.1.62-.39,1.15-.65.56-.26,1.05-.56,1.15-.65.26-.26,2-1.24,3.21-1.8.56-.26,1.05-.62,1.05-.75s.49-.46,1.08-.69c.56-.26,1.24-.69,1.47-.92.59-.56,1.05-.26,1.05.72,0,.43.16.88.33.98.2.1.33.46.33.75.03,1.21,2.91,4.71,4.26,5.14.46.13.92.43,1.05.62.39.59,9.17.49,9.92-.13.49-.43,2.91-.49,16.27-.59l15.68-.1-.1-1.7c-.1-1.67-.13-1.7-1.73-2.55-.88-.49-2.13-.98-2.68-1.11-.59-.1-1.08-.33-1.08-.49s-.62-.46-1.37-.69c-.79-.2-1.51-.52-1.64-.75-.13-.2-.26-8.05-.26-17.48,0-17.81,0-17.64,1.41-19.12.29-.33.56-.72.56-.92,0-.43,3.63-3.93,4.06-3.93.2,0,.56-.29.79-.65s.62-.65.88-.65.49-.13.49-.29.52-.49,1.15-.72,1.15-.52,1.15-.65.95-.43,2.13-.65c1.18-.23,2.13-.52,2.13-.69,0-.36,4.45-.33,5.17.03.29.16,1.18.49,1.96.72.75.23,1.37.52,1.37.69,0,.13.2.26.43.26.52,0,2.52,2.03,2.52,2.55,0,.23.16.39.33.39.39,0,1.11,1.6,1.01,2.19-.03.23.1.43.29.43.23,0,.33,6.06.33,19.15v19.15l-.72.46c-.43.26-1.24.56-1.8.69-.59.13-1.08.33-1.08.49,0,.13-.65.43-1.47.62-.82.2-1.47.49-1.47.62,0,.16-.56.43-1.21.59q-1.24.29-1.34,2.16l-.1,1.9h28.84v-3.57l-1.73-.82c-.95-.43-2.13-.92-2.62-1.01-.49-.13-.88-.36-.88-.49s-.46-.33-1.05-.46c-.59-.1-1.37-.43-1.8-.69l-.75-.49v-16.79c-.03-15.91-.29-22.78-.95-23.6-.13-.2-.36-.92-.49-1.57-.13-.69-.39-1.41-.62-1.64-.23-.23-.82-.98-1.31-1.67-.49-.65-1.08-1.21-1.31-1.21s-.59-.29-.82-.65c-.23-.36-.62-.65-.88-.65s-.49-.13-.49-.29c0-.36-2.39-1.54-3.76-1.87-.52-.13-1.18-.39-1.44-.59-.69-.52-11.33-.49-11.85.03-.23.23-.72.43-1.11.43-.36,0-.95.2-1.31.43s-1.28.62-2.03.88c-.79.23-1.41.56-1.41.72,0,.13-.16.26-.39.26-.2,0-.85.36-1.44.82s-1.18.82-1.28.82c-.26,0-.88.52-3.83,3.27l-2.23,2.06v-10.34l-3.76.16c-2.06.1-3.93.33-4.16.52-.23.16-1.31.43-2.39.56-1.08.13-2.09.36-2.29.49-.16.13-1.7.46-3.34.69-1.67.23-3.04.52-3.04.69,0,.13-.23.26-.49.26-.36,0-.49.39-.49,1.64v1.64h1.15c.62,0,1.41.13,1.73.29.29.2.95.39,1.41.49.92.2,2.39,1.47,3.57,3.18.79,1.08.82,1.37,1.05,8.81.26,7.4.03,30.67-.26,31.82-.1.29-.62.65-1.21.75-.59.13-1.47.49-2.03.82-.52.33-1.47.69-2.03.82-.59.1-1.08.33-1.08.46,0,.36-2.06,1.01-3.24,1.01-1.41,0-3.96-.65-3.96-1.01,0-.16-.2-.29-.43-.29-.46,0-2.19-1.77-2.19-2.26,0-.16-.26-.46-.56-.65-.56-.29-.59-1.64-.75-19.18-.13-13.29-.26-18.92-.52-19.08-.2-.13-.46-.92-.59-1.73-.26-1.7-.69-2.39-2.85-4.52-2-2-2.19-2.13-4.62-3.34-1.15-.56-2.29-1.15-2.59-1.28-.29-.16-1.11-.39-1.8-.52-.72-.1-1.47-.36-1.7-.56-.53-.37-10.94-.64-13.66-.37ZM283.42,82.34c-.39.43-.82.75-.98.75-.13,0-.52.26-.88.56-1.15,1.08-2.16,1.77-2.88,1.93-.43.13-.75.33-.75.46,0,.33-3.01,1.87-4.22,2.13-.56.13-1.01.33-1.01.49,0,.13-.88.43-1.96.69-1.08.23-1.96.56-1.96.69s-.72.26-1.64.26-1.64-.1-1.64-.26c0-.13-.62-.43-1.37-.65-1.73-.56-4.19-3.11-4.19-4.35,0-.33-.2-.62-.39-.72-.56-.16-.59-7-.07-7.36.2-.13.46-.59.56-1.05.33-1.21,4.22-5.11,5.6-5.56.65-.2,1.18-.49,1.18-.65s.82-.46,1.8-.69,1.8-.49,1.8-.62.82-.43,1.8-.65c.98-.23,1.8-.52,1.8-.65s.59-.43,1.31-.65c.72-.23,1.31-.56,1.31-.72,0-.13.13-.26.33-.26.56,0,4.32-2.46,6.06-3.99l.98-.85.1,10.51c.03,10.36.03,10.46-.69,11.21Z"/>
  <path class="cls-1" d="M466.07,36.19c-.69.07-1.24.26-1.24.39,0,.16-.52.39-1.18.52-.65.1-1.44.33-1.73.49s-1.21.59-2.03.98c-3.21,1.44-5.6,3.4-8.94,7.33-.82.95-1.51,1.9-1.51,2.13,0,.2-.1.36-.26.36-.13,0-.46.49-.69,1.05-.26.59-.65,1.28-.88,1.51s-.52.92-.65,1.54c-.1.62-.33,1.15-.49,1.15-.13,0-.36.52-.49,1.15-.1.62-.33,1.15-.49,1.15s-.2.23-.1.49c.13.26.07.69-.13.92s-.46,1.54-.59,2.95-.36,2.62-.49,2.72c-.39.23-.39,7.66,0,7.66.13,0,.36,1.11.49,2.49.1,1.41.36,2.72.56,2.95s.26.59.16.75c-.13.16-.07.39.1.49.16.13.39.79.52,1.51.13.72.36,1.31.49,1.31.16,0,.49.59.69,1.31.23.72.52,1.31.69,1.31s.43.36.59.82.46.82.65.82c.16,0,.33.2.33.43,0,.26.36.79.82,1.21.46.43.82.92.82,1.08,0,.29,2.85,3.18,3.18,3.18.1,0,.69.43,1.31.98.59.52,1.31.98,1.57.98s.49.13.49.29.52.49,1.15.72c.62.23,1.15.52,1.15.62,0,.13.62.43,1.41.69.75.23,1.73.62,2.19.85s1.21.43,1.7.43c.46,0,.92.2,1.01.39.16.56,11.59.62,11.95.07.13-.2.92-.46,1.8-.59.85-.13,1.54-.36,1.54-.49,0-.16.65-.46,1.47-.65.82-.2,1.47-.49,1.47-.62,0-.16.52-.46,1.15-.72.62-.26,1.15-.56,1.15-.72,0-.13.23-.26.49-.26s.65-.29.88-.65.59-.65.82-.65c.75,0,3.76-3.83,5.04-6.42.69-1.44,1.28-2.75,1.28-2.85,0-.13-.95-.23-2.13-.23s-2.09.1-2.06.23c.07.36-.79,2.16-1.15,2.42-.16.13-.46.49-.65.85-1.21,1.96-1.77,2.65-3.08,3.6-.79.59-1.54,1.08-1.7,1.08s-.36.23-.46.46c-.1.26-.72.59-1.34.72-.65.1-1.18.33-1.18.46,0,.29-3.31.98-4.78.98-.59,0-1.18.13-1.28.33-.26.39-2.45.43-2.45.03,0-.13-1.01-.36-2.26-.49-1.47-.13-2.88-.49-4.03-1.08-1.8-.92-5.83-4.52-5.83-5.24,0-.23-.13-.43-.33-.43-.16,0-.33-.16-.33-.36s-.26-.75-.59-1.21c-.33-.49-.79-1.54-1.05-2.36-.23-.82-.56-1.64-.69-1.8-.13-.2-.33-.98-.46-1.8-.13-.82-.36-1.54-.49-1.64-.43-.26-.98-6.97-.98-11.69v-4.35h36.4l1.44-1.47c1.15-1.18,1.44-1.73,1.44-2.62,0-.62-.13-1.15-.29-1.15-.13,0-.36-.75-.46-1.64-.2-1.7-2.65-7.2-3.18-7.2-.2,0-.33-.23-.33-.49s-.29-.65-.65-.88-.65-.59-.65-.79c0-.56-4.52-4.71-5.07-4.71-.26,0-.49-.13-.49-.26,0-.16-.59-.49-1.31-.72-.72-.23-1.31-.56-1.31-.69s-.69-.36-1.54-.49c-.88-.13-1.67-.39-1.8-.59-.24-.4-9.7-.63-12.12-.33ZM475.79,40.31c.56.29,1.15.56,1.37.56.75,0,4.29,3.9,4.52,5.01.13.56.39,1.15.59,1.28.43.26.72,5.89.43,7.95l-.23,1.47h-26.26l.23-2.52c.13-1.41.36-2.62.52-2.72.13-.1.36-.72.49-1.41.13-.65.36-1.21.49-1.21s.43-.59.65-1.31c.23-.72.52-1.31.62-1.31s.39-.46.65-1.01c.23-.56.75-1.31,1.15-1.7.92-.92,3.04-2.52,3.31-2.52.13,0,.69-.2,1.24-.46.59-.26,1.28-.56,1.54-.65s2.13-.13,4.09-.07c2.6.06,3.88.23,4.6.62Z"/>
  <path class="cls-1" d="M513.2,36.19c-.69.07-1.24.26-1.24.39,0,.16-.95.39-2.13.52-1.18.1-2.19.33-2.29.49-.1.13-1.64.43-3.44.65-1.8.23-3.27.56-3.27.72,0,.13-.23.26-.49.26-.36,0-.49.39-.49,1.64v1.64h1.64c.92,0,1.64.13,1.64.29s.46.36,1.01.49c1.11.2,3.5,2.46,4.16,3.9.29.69.39,5.47.39,20.29,0,10.67-.13,19.54-.26,19.74-.13.2-.82.56-1.54.82-.72.26-1.37.56-1.47.65s-.75.39-1.44.62c-.72.23-1.9.72-2.62,1.11-1.28.65-1.34.79-1.44,2.42l-.1,1.7h28.84v-3.89l-1.15-.23c-.62-.1-1.15-.33-1.15-.46s-.62-.43-1.37-.69c-.79-.23-1.93-.72-2.55-1.01-.62-.33-1.37-.59-1.67-.59s-.65-.26-.79-.59c-.46-1.08-.59-22.62-.2-27.89.23-2.78.52-5.14.65-5.24.16-.1.39-.69.52-1.31.29-1.41,1.64-3.83,2.75-4.91.46-.46,1.05-1.24,1.31-1.7.23-.46.82-1.05,1.28-1.28.46-.26,1.24-.82,1.7-1.28.75-.75,2.29-1.64,2.88-1.64.13,0,.16,1.15.13,2.52-.07,1.41.03,3.11.26,3.8.36,1.18,2.16,3.18,3.73,4.06.88.52,5.34.52,6.78.03,1.51-.52,3.5-2.55,3.76-3.8.13-.59.33-1.05.49-1.05s.29-1.18.29-2.62c0-1.54-.13-2.62-.33-2.62-.16,0-.33-.2-.33-.43-.03-.85-2-3.24-3.67-4.42l-1.73-1.21h-3.76c-3.76,0-3.8,0-6.32,1.31-1.37.72-2.52,1.41-2.52,1.54,0,.16-.23.26-.49.26s-.65.29-.88.65-.59.65-.79.65-1.05.79-1.9,1.7c-.85.95-1.77,1.96-2.03,2.26s-.46.62-.46.75-.29.62-.65,1.08l-.65.85v-11.23l-2.68.07c-1.5.09-3.26.15-3.92.22Z"/>
  <path class="cls-1" d="M715.07,36.19c-.52.1-1.11.26-1.31.43-.16.13-.88.36-1.6.46-.69.13-1.51.36-1.8.52s-1.51.75-2.72,1.31c-1.24.56-2.23,1.15-2.23,1.31s-.46.36-.98.49c-.56.13-1.15.49-1.31.85-.2.33-.52.62-.75.62s-1.57,1.24-3.01,2.75c-3.08,3.18-3.18,3.31-3.76,4.68-.26.59-.59,1.08-.72,1.08-.29,0-1.87,3.37-2.09,4.58-.13.52-.33.98-.46.98-.29,0-.98,4.39-.98,6.22,0,.72-.13,1.31-.33,1.31s-.33,1.31-.33,3.27c0,1.8.13,3.27.29,3.27.13,0,.36,1.28.49,2.82.1,1.57.43,3.31.69,3.86.23.56.62,1.64.82,2.39.2.79.49,1.41.65,1.41.13,0,.36.46.49.98.13.56.39,1.18.59,1.41.65.69,1.87,2.49,1.87,2.75s4.42,4.52,5.83,5.56c.56.43,1.15.75,1.31.75.2,0,.39.13.46.26.2.49,3.08,1.96,4.29,2.19.65.13,1.21.36,1.21.49,0,.16.62.36,1.41.49.75.13,1.57.39,1.83.62.69.52,13.19.49,13.39-.07.07-.2.52-.39.98-.39.49,0,1.24-.2,1.7-.43s1.44-.62,2.23-.85c.75-.26,1.37-.56,1.37-.72,0-.13.33-.29.75-.43,1.21-.29,5.47-3.96,5.47-4.71,0-.2.29-.52.62-.72.36-.16.72-.75.85-1.31.13-.52.33-.98.46-.98s.43-.56.65-1.24c.26-.65.56-1.28.69-1.37.16-.1.36-.72.49-1.41l.23-1.21h-1.8c-1.77,0-1.83.03-2.03,1.01-.29,1.28-1.8,4.22-2.16,4.22-.16,0-.29.2-.29.46,0,.69-3.67,3.93-5.3,4.71-1.6.79-3.86,1.34-5.4,1.37-.59,0-1.08.13-1.08.33s-.98.33-2.29.33-2.29-.13-2.29-.33-.49-.33-1.05-.33c-2.29-.03-6.81-1.57-6.81-2.32,0-.16-.2-.29-.43-.29-.49,0-3.83-3.31-3.83-3.83,0-.2-.2-.43-.46-.52-.26-.1-.56-.62-.69-1.18-.13-.56-.33-1.01-.46-1.01s-.46-.59-.69-1.31c-.23-.72-.52-1.31-.69-1.31-.13,0-.43-.95-.65-2.13-.23-1.18-.52-2.13-.62-2.13-.36,0-.98-7.1-.98-11.16s.59-10.83.95-11.1c.13-.1.43-1.01.65-2.06.23-1.01.52-1.87.69-1.87.13,0,.36-.52.46-1.15.13-.62.39-1.24.62-1.37.23-.16.62-.69.88-1.21.65-1.31,3.04-3.63,4.26-4.19.52-.23.98-.52.98-.62,0-.13.69-.39,1.54-.62.85-.2,1.77-.56,2.03-.75.29-.26,1.96-.39,4.94-.39,3.8.03,4.58.13,5.04.59.33.29.79.56,1.05.56.65,0,.56.92-.16,1.28-.33.2-.72.72-.82,1.21-.13.49-.46,1.08-.75,1.37-.39.43-.46,1.08-.36,3.47.1,1.87.29,2.98.52,3.08.23.07.39.29.39.56,0,.85,2.88,3.08,4.26,3.31.72.13,1.31.33,1.31.49s.59.29,1.31.29,1.31-.13,1.31-.29.52-.39,1.18-.49c1.18-.23,3.7-1.77,3.73-2.26,0-.16.29-.65.62-1.08,1.21-1.57,1.11-7.69-.13-8.41-.26-.13-.49-.43-.49-.65,0-.49-1.44-1.87-1.93-1.87-.2,0-.46-.2-.56-.43-.1-.26-.65-.65-1.28-.88-.62-.26-1.15-.56-1.15-.69s-.49-.36-1.05-.49c-.59-.1-1.6-.49-2.23-.82-.62-.36-1.54-.62-2.03-.62-.46,0-.92-.16-.98-.36-.13-.43-10.57-.72-12.53-.39Z"/>
</svg>