<svg viewBox="0 0 136 17" fill="none" xmlns="http://www.w3.org/2000/svg">
  <path d="M8.8983 8.51543C8.92066 8.51543 8.94302 8.51543 8.96538 8.51543C8.90725 9.59569 8.86253 10.6804 8.78651 11.7607C8.76863 12.0386 8.67472 12.321 8.58082 12.5899C8.22756 13.5895 7.57023 14.0467 6.51045 14.0512C5.45067 14.0512 4.75757 13.6029 4.44455 12.5989C4.26568 12.0251 4.14495 11.411 4.12706 10.8104C4.08235 9.26847 4.08235 7.72654 4.12706 6.1846C4.14495 5.57051 4.27463 4.93402 4.46691 4.34683C4.77545 3.39656 5.4462 2.98419 6.4702 2.9797C7.53892 2.97074 8.21861 3.37415 8.5361 4.33786C8.73285 4.92505 8.8357 5.55707 8.88042 6.18012C8.94302 6.95109 8.8983 7.7355 8.8983 8.51543ZM12.3281 12.7468C12.6768 11.3528 12.7394 9.9229 12.7707 8.21511C12.7394 7.69516 12.7171 6.89281 12.6411 6.09495C12.5337 5.0147 12.3281 3.9479 11.8809 2.94385C11.237 1.505 10.1548 0.604047 8.62553 0.245457C7.23485 -0.0772736 5.83523 -0.0817559 4.44455 0.23201C2.87053 0.5906 1.73921 1.505 1.12212 3.00212C0.889597 3.56241 0.701788 4.1496 0.585525 4.74128C0.169663 6.83454 0.174135 8.94574 0.388773 11.0569C0.496093 12.1013 0.710731 13.1278 1.14895 14.0915C1.76157 15.4362 2.76769 16.3237 4.19861 16.7092C5.48644 17.0588 6.79216 17.0678 8.10235 16.8706C10.2711 16.5434 11.6036 15.2614 12.2163 13.1816C12.252 13.0426 12.2923 12.8947 12.3281 12.7468ZM22.4563 3.30692H26.0605V0.317175C25.3539 0.191669 15.4627 0.227528 15.096 0.344069V3.33829H19.3441C18.7136 5.05504 18.7136 5.05504 18.7136 7.04073C18.7136 10.0484 18.7136 13.0561 18.7136 16.0682V16.7227H22.4563V3.30692ZM35.4554 3.32485H39.0685V0.317175C38.3441 0.191669 28.4707 0.227528 28.0593 0.357516C28.0593 0.841613 28.0459 1.33916 28.0637 1.83222C28.0772 2.31631 27.9922 2.80937 28.1353 3.33829H32.446C31.6053 4.51716 31.726 5.79015 31.726 7.04073C31.7216 10.0484 31.726 13.0606 31.726 16.0682V16.7227H35.4598C35.4554 12.2448 35.4509 7.80274 35.4554 3.32485ZM50.024 6.25184C50.0463 7.98203 50.015 9.71671 49.9569 11.4469C49.9435 11.8907 49.8004 12.3479 49.6394 12.7692C49.2951 13.6567 48.6244 14.0601 47.6272 14.0556C46.63 14.0512 45.9593 13.6433 45.6328 12.7423C45.454 12.2492 45.3779 11.7114 45.2885 11.1914C45.2393 10.9135 45.2438 10.6221 45.2393 10.3353C45.2348 9.72567 45.2393 9.11607 45.2393 8.50647H45.284C45.284 7.60999 45.2527 6.718 45.2975 5.82153C45.3243 5.33295 45.4316 4.83541 45.5881 4.37372C45.928 3.38312 46.5942 2.96177 47.6853 2.97074C48.7272 2.9797 49.3979 3.41449 49.7065 4.40062C49.8809 5.00125 50.015 5.63327 50.024 6.25184ZM53.8293 8.47509C53.8293 7.88342 53.8606 7.29175 53.8249 6.70456C53.7399 5.44501 53.5521 4.20787 53.0513 3.03349C52.4029 1.52293 51.285 0.5906 49.6841 0.23201C48.4231 -0.0503793 47.1576 -0.0593441 45.8922 0.164775C43.9873 0.505435 42.6994 1.59913 42.0779 3.44139C41.8901 3.9972 41.738 4.57543 41.6441 5.15365C41.3043 7.19762 41.3266 9.25054 41.5547 11.3035C41.662 12.2717 41.8811 13.2174 42.2925 14.1094C42.9096 15.4541 43.9202 16.3372 45.3511 16.7137C46.6971 17.0678 48.0565 17.0723 49.4203 16.8347C51.2626 16.5075 52.5102 15.4586 53.1631 13.706C53.248 13.4729 53.3285 13.2399 53.3956 13.0023C53.807 11.5231 53.8741 9.9991 53.8293 8.47509ZM67.0475 16.6644C67.1414 15.8172 67.1101 14.1229 66.976 13.6746H61.1002C61.1762 13.5043 61.212 13.3967 61.2657 13.3071C61.5697 12.7871 61.7218 12.2224 61.7262 11.6217C61.7307 11.2586 61.7486 10.8956 61.7486 10.537C61.7486 7.31864 61.7486 4.1003 61.7486 0.881954V0.299246H58.0416V1.02091C58.0416 4.66059 58.055 8.2958 58.0327 11.9355C58.0282 12.8275 57.9343 13.7195 57.8359 14.607C57.7599 15.3017 57.6079 15.9875 57.4916 16.6778C58.0371 16.8033 66.6093 16.7899 67.0475 16.6644ZM74.1932 16.7271C74.3139 15.9472 74.2737 0.671283 74.1529 0.263387H70.5577V16.7271H74.1932ZM91.0513 16.7585C91.1765 16.7585 91.3017 16.7227 91.4269 16.7002V0.299246C90.5952 0.196151 88.5114 0.227528 88.1223 0.344069C88.1179 0.361999 88.1089 0.379928 88.1045 0.393375C88.1 0.411305 88.091 0.429234 88.091 0.451646C88.1313 3.82239 88.1715 7.19313 88.2118 10.5639C88.2118 10.5997 88.2028 10.6401 88.1894 10.6759C88.1849 10.6894 88.1715 10.7028 88.1536 10.7118C88.1358 10.7208 88.1179 10.7208 88.0642 10.7342C86.6422 7.00039 84.3393 3.74171 82.4612 0.290281H78.8392C78.8303 0.366481 78.8169 0.406823 78.8213 0.442682C78.8392 0.554741 78.8571 0.6668 78.8795 0.778859C79.2193 2.38803 79.3803 4.01065 79.3713 5.65568C79.349 9.12055 79.3669 12.5899 79.3669 16.0548V16.7182H82.7206C82.6759 13.4281 82.8637 10.1739 82.4165 6.93316C82.4657 6.92419 82.5104 6.91523 82.5596 6.90626C82.6401 7.07211 82.7161 7.23348 82.8011 7.39932C83.2527 8.31821 83.6641 9.26847 84.1739 10.156C85.3723 12.2537 86.6243 14.3201 87.8451 16.4044C87.9971 16.6689 88.1805 16.7675 88.4845 16.763C89.3431 16.7495 90.1972 16.763 91.0513 16.7585ZM105.146 16.7361C105.857 16.7675 106.572 16.7496 107.297 16.7496V7.79377H103.053C103.514 9.84222 103.746 11.8682 103.59 13.9526C103.075 13.9884 102.624 14.0467 102.168 14.0467C100.594 14.0467 99.8291 13.3295 99.6949 11.7517C99.6905 11.6934 99.686 11.6396 99.686 11.5814C99.6905 9.75257 99.6681 7.92376 99.7128 6.09495C99.7262 5.51673 99.8783 4.92505 100.057 4.36924C100.312 3.58482 100.92 3.17245 101.73 3.11418C102.163 3.0828 102.619 3.06935 103.031 3.17693C104.171 3.46828 105.289 3.82687 106.42 4.15857C106.59 4.20787 106.76 4.25718 106.979 4.31545C106.872 3.04246 106.774 1.85463 106.68 0.689212C105.799 0.536811 104.976 0.393375 104.153 0.245457C102.968 0.0347857 101.788 -0.0727912 100.585 0.110986C98.7961 0.388893 97.4904 1.29881 96.7392 2.96626C96.3859 3.75067 96.1758 4.57991 96.0461 5.43156C95.7644 7.30968 95.7688 9.19227 95.9566 11.0704C96.0774 12.2672 96.3099 13.446 96.8644 14.5308C97.4904 15.7589 98.4652 16.5389 99.8157 16.8302C101.01 17.0902 102.195 17.023 103.375 16.754C103.836 16.6509 104.283 16.503 104.685 16.391C104.855 16.5344 104.994 16.7271 105.146 16.7361ZM111.894 16.7227H120.604V13.6881H115.601V9.80636C116.955 9.73464 118.279 9.84222 119.612 9.7436C119.719 8.7261 119.813 7.76688 119.925 6.72697H115.601V3.30692H120.443C120.26 2.25356 120.086 1.26744 119.911 0.285799H111.894V16.7227ZM130.643 6.57008C130.406 7.12142 129.959 7.42174 129.355 7.44863C128.998 7.46208 128.64 7.45311 128.211 7.45311V3.33829C128.743 3.33381 129.284 3.25761 129.816 3.40105C130.205 3.50414 130.478 3.77308 130.634 4.13616C130.983 4.94298 130.992 5.76326 130.643 6.57008ZM131.336 9.63603C131.269 9.60017 131.229 9.515 131.14 9.40742C131.332 9.34019 131.47 9.29088 131.609 9.24158C132.982 8.76196 133.876 7.82963 134.288 6.42665C134.471 5.79463 134.502 5.15365 134.48 4.50371C134.39 2.25804 132.986 0.57267 130.759 0.366481C128.743 0.178222 126.704 0.245457 124.602 0.196151V16.7092H128.188C128.188 15.9472 128.188 15.23 128.188 14.5084C128.188 13.7643 128.179 13.0247 128.188 12.2806C128.197 11.5724 128.148 10.8597 128.233 10.017C128.394 10.2949 128.492 10.4518 128.577 10.6132C129.592 12.5092 130.616 14.4008 131.618 16.3013C131.792 16.633 131.989 16.7675 132.369 16.7585C133.34 16.7316 134.31 16.7495 135.276 16.7451C135.419 16.7451 135.562 16.7137 135.754 16.6958C135.683 16.5299 135.638 16.4089 135.575 16.2968C134.686 14.6384 133.791 12.9799 132.901 11.3169C132.526 10.6311 132.065 10.0125 131.336 9.63603Z" fill="currentColor"></path>
</svg>