<?xml version="1.0" encoding="utf-8"?>
<!-- Generator: Adobe Illustrator 28.3.0, SVG Export Plug-In . SVG Version: 6.00 Build 0)  -->
<svg version="1.1" id="Layer_1" xmlns="http://www.w3.org/2000/svg" xmlns:xlink="http://www.w3.org/1999/xlink" x="0px" y="0px"
	 viewBox="0 0 500 587.7" style="enable-background:new 0 0 500 587.7;" xml:space="preserve">
<path id="text2465" d="M311.8,323.5H188.2c-3.1,52-14,100.4-32.7,145.3c-17.1,41.2-41.7,80.8-74,118.9H0
	c48-46.7,81.6-94,100.8-141.7c15.7-38.8,25.1-79.7,28-122.4h-117v-59.1h116.9c-2.9-42.8-12.2-83.6-28-122.4C81.3,94.3,47.7,47-0.1,0
	h81.5c32,38.1,56.7,77.8,74,119.3c18.9,44.9,29.8,93.3,32.7,145.3h123.6c2.9-52,13.8-100.4,32.7-145.3c17.3-41.5,42-81.2,74-119.3
	H500c-47.8,47-81.4,94.4-100.8,142.1c-15.7,38.8-25.1,79.7-28,122.4h113v59.1h-113c2.9,42.8,12.2,83.6,28,122.4
	c19.2,47.8,52.8,95,100.8,141.7h-81.5c-32.3-38.1-57-77.7-74-118.9C325.9,423.1,315,374.7,311.8,323.5"/>
</svg>
