<svg viewBox="0 0 905 126" fill="currentColor" xmlns="http://www.w3.org/2000/svg"><path d="M78.1 116.137c-.444-3.412-.815-8.381-1.038-14.833-.074-3.263-.222-6.303-.296-8.973-.075-2.67-.297-5.117-.52-7.416-.667-6.823-2.447-11.792-5.266-14.833-2.818-3.04-7.342-5.043-13.499-6.007v-.296c6.973-1.484 12.09-4.82 15.354-10.012 3.263-5.191 4.969-11.866 4.969-20.024 0-10.605-2.818-18.466-8.53-23.657-5.71-5.191-13.647-7.787-23.882-7.787H0v121.847h24.55V72.678h13.128c5.118 0 8.752 1.335 10.903 4.079 2.151 2.744 3.338 6.452 3.56 11.272l.668 23.361c.074 2.373.297 4.672.667 6.897.371 2.225 1.113 4.153 2.374 5.859h26.627v-1.038c-2.3-1.261-3.783-3.56-4.45-6.971h.074ZM48.434 51.394c-3.19 2.818-7.714 4.153-13.647 4.153H24.55V20.469h11.57c11.349 0 17.06 5.636 17.06 16.908 0 6.6-1.558 11.273-4.747 14.09v-.073ZM156.35 2.373h-30.336L93.75 124.146h25.589l5.637-25.734h32.412l5.637 25.734h25.588L156.35 2.373ZM129.204 78.24l11.792-54.73h.371l11.719 54.73h-23.882ZM272.722 2.373v20.098h-43.538v28.7h40.942V71.27h-40.942v52.877h-24.55V2.373h68.088ZM359.352 89.661c0 2.818.222 5.414.667 7.787.446 2.299 1.336 4.301 2.596 5.859 1.261 1.557 2.893 2.818 5.044 3.708 2.077.89 4.747 1.335 7.936 1.335 3.783 0 7.12-1.187 10.161-3.634 3.041-2.448 4.525-6.23 4.525-11.347 0-2.744-.371-5.117-1.113-7.045-.742-2.003-1.928-3.782-3.634-5.414-1.706-1.557-3.931-3.04-6.75-4.376-2.818-1.26-6.23-2.67-10.309-4.004-5.489-1.78-10.161-3.782-14.167-6.007-4.005-2.151-7.342-4.672-9.938-7.565-2.67-2.892-4.599-6.23-5.86-10.086-1.261-3.782-1.854-8.232-1.854-13.2 0-12.015 3.338-20.988 10.013-26.921C353.27 2.966 362.467 0 374.112 0c5.488 0 10.532.593 15.13 1.78 4.599 1.186 8.604 3.115 11.942 5.784 3.337 2.67 6.007 6.082 7.862 10.235 1.854 4.153 2.818 9.122 2.818 14.906v3.412h-23.512c0-5.785-1.038-10.235-3.041-13.424-2.002-3.114-5.414-4.672-10.235-4.672-2.744 0-4.969.371-6.824 1.187-1.854.816-3.263 1.854-4.376 3.189-1.112 1.26-1.854 2.818-2.225 4.524-.371 1.705-.593 3.485-.593 5.265 0 3.708.816 6.897 2.373 9.419 1.558 2.52 4.97 4.894 10.236 7.119l18.913 8.158c4.673 2.002 8.455 4.153 11.422 6.378 2.967 2.224 5.34 4.598 7.12 7.193 1.78 2.522 2.967 5.34 3.635 8.455.667 3.04 1.038 6.452 1.038 10.234 0 12.83-3.708 22.174-11.2 28.033-7.417 5.859-17.8 8.751-31.077 8.751-13.276 0-23.808-2.967-29.742-9.048-5.933-6.007-8.974-14.684-8.974-25.956v-4.97h24.55v3.709ZM461.335 2.373h-24.55v121.773h24.55V2.373ZM524.083 2.373l17.356 85.953h.37l17.579-85.953h36.269v121.773h-22.474V26.921h-.371l-21.657 97.225h-19.062l-21.657-97.225h-.371v97.225h-22.474V2.373h36.492ZM699.791 37.748c-.816-7.787-2.745-14.461-5.637-20.023-2.893-5.563-7.046-9.938-12.535-13.053C676.131 1.557 668.788 0 659.591 0s-16.54 1.557-22.029 4.672c-5.488 3.115-9.642 7.49-12.534 13.052-2.893 5.563-4.747 12.237-5.637 20.024-.816 7.787-1.261 16.316-1.261 25.512 0 9.196.445 17.872 1.261 25.585.89 7.713 2.744 14.387 5.637 19.95 2.892 5.562 7.046 9.789 12.534 12.755 5.489 2.967 12.758 4.45 22.029 4.45s16.54-1.483 22.028-4.45c5.489-2.966 9.642-7.193 12.535-12.755 2.892-5.563 4.747-12.237 5.637-19.95.816-7.713 1.261-16.241 1.261-25.585 0-9.345-.445-17.725-1.261-25.512Zm-23.883 46.35c-.445 5.711-1.187 10.383-2.373 14.017-1.187 3.56-2.893 6.23-5.118 7.861-2.225 1.632-5.118 2.448-8.752 2.448-3.634 0-6.601-.816-8.826-2.448-2.225-1.631-3.931-4.227-5.118-7.86-1.187-3.56-2.003-8.233-2.373-14.017-.371-5.71-.594-12.682-.594-20.914 0-8.232.223-15.129.594-20.765.37-5.71 1.186-10.308 2.373-14.016 1.187-3.634 2.893-6.304 5.118-7.936 2.225-1.631 5.118-2.447 8.826-2.447s6.601.816 8.752 2.447c2.225 1.632 3.931 4.302 5.118 7.936 1.186 3.634 2.002 8.306 2.373 14.016.371 5.71.593 12.608.593 20.765 0 8.158-.222 15.13-.593 20.914ZM780.001 85.357h.296V2h22.548v121.773h-27.962l-30.039-85.286h-.296v85.286H722V2h28.333l29.668 83.357ZM848.279 89.661c0 2.818.222 5.414.667 7.787.445 2.299 1.335 4.301 2.596 5.859 1.261 1.557 2.893 2.818 5.044 3.708 2.077.89 4.747 1.335 7.936 1.335 3.783 0 7.12-1.187 10.161-3.634 3.041-2.448 4.525-6.23 4.525-11.347 0-2.744-.371-5.117-1.113-7.045-.742-2.003-1.928-3.782-3.634-5.414-1.706-1.557-3.931-3.04-6.75-4.376-2.818-1.26-6.23-2.67-10.309-4.004-5.489-1.78-10.162-3.782-14.167-6.007-4.005-2.151-7.343-4.672-9.938-7.565-2.671-2.892-4.599-6.23-5.86-10.086-1.261-3.782-1.854-8.232-1.854-13.2 0-12.015 3.338-20.988 10.013-26.921C842.197 2.966 851.394 0 863.113 0c5.488 0 10.458.593 15.13 1.78 4.599 1.186 8.604 3.115 11.942 5.784 3.337 2.67 6.007 6.082 7.862 10.235 1.854 4.153 2.818 9.122 2.818 14.906v3.412h-23.512c0-5.785-1.038-10.235-3.041-13.424-2.002-3.114-5.414-4.672-10.235-4.672-2.744 0-4.969.371-6.824 1.187-1.854.816-3.263 1.854-4.376 3.189-1.112 1.26-1.854 2.818-2.225 4.524-.371 1.705-.593 3.485-.593 5.265 0 3.708.816 6.897 2.373 9.419 1.558 2.52 4.97 4.894 10.236 7.119l18.913 8.158c4.673 2.002 8.455 4.153 11.422 6.378 2.967 2.224 5.34 4.598 7.12 7.193 1.78 2.522 2.967 5.34 3.635 8.455.667 3.114 1.038 6.452 1.038 10.234 0 12.83-3.708 22.174-11.2 28.033-7.416 5.859-17.8 8.751-31.077 8.751-13.276 0-23.808-2.967-29.742-9.048-5.933-6.007-8.974-14.684-8.974-25.956v-4.97h24.55v3.56l-.074.149Z" fill="currentColor"></path></svg>