<?xml version="1.0" encoding="utf-8"?>
<!-- Generator: Adobe Illustrator 28.3.0, SVG Export Plug-In . SVG Version: 6.00 Build 0)  -->
<svg version="1.1" id="Layer_1" xmlns="http://www.w3.org/2000/svg" xmlns:xlink="http://www.w3.org/1999/xlink" x="0px" y="0px"
	 viewBox="0 0 1199.2 134.1" style="enable-background:new 0 0 1199.2 134.1;" xml:space="preserve">
<g transform="translate(0.000000,2160.000000) scale(0.100000,-0.100000)">
	<path d="M7722.1,21599.3c-103.2-10.8-229.5-38.3-349.8-76.6c-77.5-25-126-42.1-221.6-79.1c-95-36.7-237.7-100-363.1-160.8
		c-171.2-82.9-376-214.6-521.6-335.5c-49.1-40.5-147.2-138.3-174.7-173.8c-61.1-78.5-92.4-140.5-102.2-201.9
		c-4.7-29.1-2.5-81,4.4-107.3c25.3-94,107.3-159.5,237.7-190.2c71.2-16.8,101.9-19.6,215.2-19.3c89.9,0,111.7,0.9,156.7,7
		c151.3,20.6,278.9,54.4,449.5,119c125,47.2,305.1,138.6,455.8,231.4c201.6,124.1,373.5,264.3,472.6,385.2
		c111.1,135.5,162.4,268.7,148.1,384.3c-13.9,114.3-85.5,184.2-214.9,210.5c-28.2,5.7-46.5,7-106.7,7.6
		C7767.6,21600.2,7729,21599.9,7722.1,21599.3z M7906.9,21563.5c60.8-13,101.9-32.3,133.6-63.6c39.9-39.9,54.8-80.1,55.1-148.8
		c0-33.2-1.9-50.3-7.6-76c-17.1-78.2-59.2-157.9-128.8-245.3c-32.9-41.1-117.7-126.9-169-170.6c-83.6-71.5-211.8-161.4-308.6-216.8
		c-82.9-47.5-215.6-112.7-292.8-144.3c-72.8-30.1-97.5-39.6-150.4-58.6c-143.4-51.3-273.2-84.2-392.5-100
		c-81.7-10.4-194-8.9-258,3.8c-98.1,19.6-175.4,69.6-205.7,132.9c-16.5,33.9-19.9,54.4-18,102.6c2.5,61.7,14.2,103.2,48.4,171.9
		c89.6,179.2,327.6,377.6,631.5,526.7c320.6,157.3,622.6,260.8,836.9,287.1c22.8,2.8,45.6,5.7,50.6,6.3c5.4,0.6,39.6,0.9,76,0.3
		C7861,21570.5,7880.3,21568.9,7906.9,21563.5z"/>
	<path d="M2249.3,21570.8c-230.1-8.9-499.5-38.3-720.1-79.1c-187.4-34.5-402.3-85.5-539.7-127.9c-10.4-3.2-33.9-10.4-52.2-15.8
		c-239.9-72.2-494.4-174.7-658.4-265.2c-159.5-88-247.2-162.1-278.9-234.9c-10.4-23.7-10.8-62-0.6-81
		c43.7-82.3,217.5-148.8,486.8-186.4c29.8-4.1,64.6-8.2,77.5-9.5c13-1.3,32.3-4.1,42.7-6.6c11.4-2.5,37-4.4,63-4.4
		c50.3,0,62.4-4.1,74.4-25.3c18.4-32.9,7.9-105.7-27.2-189.9c-14.6-35.1-22.2-45.9-34.5-48.7c-22.2-5.7,10.8-36.4,39.2-36.7
		c6.6,0,13,2.5,17.4,7.3c9.8,9.5,39.2,62.4,48.1,85.8c10.1,26.3,45.3,98.4,75.3,153.8c46.2,85.5,139.6,216.5,188.7,265.2l26.3,26.3
		l-7,7.6c-4.1,4.4-12,8.5-17.4,9.8c-23.1,4.1-37.7-4.7-147.2-90.8c-126.6-99.4-195.9-135.5-260.5-135.8c-19,0-94.6,7.3-135.2,13
		c-156.4,22.2-294.1,75-346.6,133.3c-21.8,24.4-28.5,40.8-28.5,70.6c0,29.1,6,43,33.9,77.2c66.2,82,258.9,198.8,491.6,298.2
		c24.4,10.4,48.7,20.9,53.8,23.4c27.5,12.3,147.2,58.2,204.2,78.5c212.1,75.3,405.8,129.1,584,161.7c230.4,42.4,441.9,67.4,671,79.1
		c17.4,0.9,46.5,2.5,64.9,3.5c58.9,3.2,307.3,2.2,351.3-1.6c120.6-9.8,201.9-27.9,249.1-55.7c21.8-12.7,42.7-33.6,51.6-51
		c11.4-22.2,10.8-57.9-1.3-86.4c-42.4-98.8-186.4-220.9-393.1-333.3c-110.5-59.8-228.8-114-398.5-180.7
		c-284.6-112.7-611.5-201.3-979.7-265.9c-99.1-17.4-114.3-20.9-139-32c-19-8.5-35.1-23.1-35.1-31.7c0-7,13.3-14.2,26-14.2
		c6.6,0,35.8,5.1,64.9,11.4c134.5,28.5,283,51.3,377.6,58.2c57.9,4.4,66.5,2.5,100.7-20.3c27.5-18,50-42.1,104.5-111.1
		c23.4-29.4,57.3-68.1,75.3-85.8c47.2-46.2,77.2-59.2,137.4-59.5l30.1-0.3l31.7,19.3c30.7,18.7,148.8,85.5,273.8,154.8
		c33.9,19,78.2,44.6,98.1,57c19.9,12.7,41.1,25.3,46.8,28.2l10.4,5.4l16.5-14.2c49.1-41.8,72.2-63.3,121.5-112.4
		c108.6-107.3,138.3-126.9,191.8-126.9c21.2,0,20.6-0.3,92.4,42.7c144.7,86.7,251.3,146.6,328.2,183.9l21.5,10.4l-10.4-18
		c-9.2-16.5-10.1-20.9-11.1-51.3c-0.9-27.5,0-36.1,5.1-50c17.1-44.9,57.9-75,125.7-92.7c26-7,34.5-7.6,96.5-7.3
		c139.6,0.6,316.2,33.9,486.8,91.8c33.9,11.4,62,19.9,63,19c2.5-2.2-18.4-39.2-42.4-75c-17.4-26.6-20.3-32.3-18.4-40.5
		c3.2-15.2,8.5-17.4,44.9-17.7c28.8-0.3,33.9-1.3,37.7-6.3c4.1-5.4,4.4-5.1,4.4,4.4c0,7.6,3.5,14.6,12.3,25.3
		c11.1,13.3,56,75.3,77.5,107c9.8,14.6,8.9,14.2,71.5,24.7c16.5,2.8,30.7,5.7,31.7,6.3s15.8,2.5,33.2,4.7
		c40.5,4.4,120.9,18,145.6,24.4c28.2,7.3,73.1,7,87-0.3c18.4-9.8,51.3-37.7,102.2-86.7c50.3-48.7,70.3-63,101.6-71.9
		c50-14.6,215.6-13,359.3,3.5c47.8,5.4,63.6,10.4,63.6,19.9c0,6.6-7.9,16.1-13.3,16.1c-1.9,0-5.1,2.5-7.3,5.4
		c-3.5,4.7-6.3,4.7-38.3-1.6c-19-3.8-57.3-9.5-84.8-12.3c-50-5.1-50.6-5.1-71.2,1.6c-52.2,17.1-173.5,95.6-264.6,171.6
		c-13.9,11.7-29.8,23.7-35.5,26.6c-11.4,5.7-39.9,6.6-59.5,1.9c-7-1.9-55.4-11.7-107.6-22.5c-52.2-10.4-100.3-20.6-107-22.2
		c-11.7-3.2-114.9-21.8-120.3-21.8c-5.7,0,1.3,5.7,9.5,7.9c13.6,3.2,60.5,22.2,90.2,36.1c15.2,7.3,29.1,13,30.7,13
		c1.9,0,17.4,6,34.5,13c16.8,7.3,38.6,16.1,48.1,19.9c37.7,15.2,157,69.6,162.4,74.1c18.4,15.8-11.7,47.2-37.4,38.6
		c-5.7-1.9-25.6-12.7-44.6-24.1c-37.7-22.5-114.6-61.1-180.1-89.9c-73.1-32.3-153.8-66.5-157-66.5c-1.9,0,2.8,8.9,10.8,19.9
		c51.6,72.8,205.7,308.6,265.6,407.1c35.1,57.6,35.8,66.2,7.3,75c-12,3.5-19.3,3.8-32.9,1.3c-21.5-3.8-93.7-5.1-104.8-1.6
		c-4.4,1.3-14.6,8.9-22.8,16.8c-16.5,15.8-16.8,15.5-11.7-14.2c5.7-32.6-3.2-60.1-51-157.6c-45.9-93.1-88-168.7-176.3-315.3
		l-39.2-65.2l-33.9-16.1c-81.3-38.9-155.7-60.1-282.3-80.1c-38-6-58.2-7.6-117.1-7.6c-66.2,0-72.8,0.6-94.6,7.3
		c-32.3,10.4-53.5,22.8-72.8,43.4c-24.4,25.6-30.4,41.1-30.1,76c0.3,33.6,6.6,52.2,28.5,82.9c31,43.7,88.3,75.3,164,91.5
		c17.1,3.5,26,3.8,41.1,1.3c41.8-7.6,82.6-22.5,116.2-43c20.9-12.7,42.4-14.9,51.3-5.1c6.3,7,6.6,10.4,1.9,20.6
		c-4.7,10.4-20.6,18.7-58.2,30.4c-76.9,23.4-159.5,29.1-227.9,16.1c-54.1-10.4-126.9-41.5-232.6-98.1
		c-66.2-35.8-220.3-115.5-309.6-160.5c-65.5-32.9-72.2-33.9-107.6-15.5c-27.9,14.9-40.5,25.6-122.5,104.5
		c-74.1,71.5-93.4,87.7-119.6,101.6c-14.9,7.9-18,11.1-18,17.7c0,4.4-0.9,9.2-2.2,10.1c-2.2,2.5-119.3-57.3-173.8-88.9
		c-116.8-67.7-302.9-163.3-328.6-168.4c-40.8-8.2-78.2,5.7-113.9,42.1c-40.5,41.1-126.3,139.6-151.9,174.4
		c-5.1,6.6-13.9,13.9-19.6,16.5c-11.4,4.7-50,5.7-75.7,1.6c-40.8-6.6-94.3-13.3-97.5-12c-1.9,0.6,8.5,4.4,23.1,8.2
		c187.4,48.7,420.7,122.5,561.8,177.6c13.9,5.4,32.6,12.7,41.1,15.8c8.9,3.2,33.6,13,55.4,22.2s47.5,19.6,57,23.4
		c82.6,33.9,258.3,120,335.5,164.9c207.6,120.3,333,237.4,362.1,337.7c2.8,9.8,5.1,28.5,5.1,41.1c0,43-17.4,77.5-51.9,102.9
		c-47.5,35.1-105.7,53.5-214.6,67.7c-45.9,6-68.7,7-206.7,7.6C2347.7,21571.4,2265.1,21571.1,2249.3,21570.8z"/>
	<path d="M11824.3,20688c-12-6-30.7-17.7-41.1-26.3c-12-9.8-32.6-21.5-55.7-31.7c-34.2-15.2-109.8-50.3-202.3-95
		c-21.8-10.4-69.3-32.9-106-50.3c-36.4-17.4-95.6-46.2-131.4-63.6c-35.8-17.7-71.2-33.2-79.1-35.1c-7.9-1.9-26.9-3.5-42.7-3.5
		c-27.2,0-29.8,0.6-53.8,13c-51.6,26.3-92.1,58.2-158.6,125c-51.9,52.5-63,58.9-106.7,60.8c-41.8,1.9-59.2-2.2-120-27.5
		c-28.2-12-92.1-38.9-141.8-59.8s-132.3-57.6-183.6-81.3c-51.3-24.1-105.1-49.1-119.3-55.7c-14.6-6.6-26.3-13.6-26.3-15.5
		c0-1.6-1.6-3.2-3.5-3.2c-8.5,0,13.9,167.4,32.6,240.9l7,27.2l-7,9.5c-9.8,13.6-22.2,18-47.5,15.8c-40.2-2.8-111.4-31-232.6-90.5
		c-95.3-47.2-135.5-68.4-284.6-149.7l-68.7-37.4h-29.8c-44.9,0-130.4,16.1-187.1,35.5c-29.8,10.1-66.8,30.4-84.2,45.9
		c-8.5,7.6-19.3,21.5-24.1,31.3c-7.6,15.5-8.2,19.6-7,46.5c1.6,35.1,8.2,49.7,32.3,73.4c43.4,42.1,137.4,63.9,196.9,45.6
		c12-3.8,29.8-11.4,39.9-17.4c18.4-11.1,54.4-47.2,51.6-51.6c-0.6-1.6-8.2-3.5-16.5-4.7c-8.5-0.9-41.1-8.2-72.8-16.1
		c-32-7.9-66.2-15.2-76-16.1c-21.2-2.5-29.4-8.2-29.4-20.6c0-10.8,7.3-18.7,17.4-18.7c4.1,0,25.6,5.4,48.1,12.3
		c84.5,25.6,147.5,42.7,171.9,46.2c30.7,5.1,38.6,20.3,24.7,48.7c-22.8,46.8-84.5,73.1-172.8,73.4c-50.3,0-130.4-10.1-189-24.4
		c-24.4-5.7-64.3-14.9-88.6-20.3c-24.4-5.1-47.5-10.1-51.3-11.1c-5.7-1.3-7.3-3.8-7.3-12.3c0-6,2.2-12.3,5.4-14.9
		c6.3-5.4,31-4.7,54.8,1.6c9.5,2.5,17.7,4.1,18,3.8s-7.9-7-18.4-14.6c-37.7-27.5-57.6-60.5-59.2-98.8
		c-3.2-62,34.2-115.5,104.5-150.3c51-25,121.9-41.1,194.7-44.3c83.2-3.5,124.7,11.1,245.6,86.7c109.2,68.4,244,141.8,340.6,185.8
		c39.6,17.7,46.5,20.3,43,14.6c-1.9-3.2-18.4-85.5-22.2-110.8c-1.3-7.9-7.6-41.8-14.6-75.3c-11.4-56.7-12-62-7.6-72.2
		c7.3-17.4,19.9-21.2,79.1-22.8l50.6-1.3l31.7,17.1c74.7,39.9,201.9,101.3,311.8,150.4c40.8,18,78.8,34.8,83.9,37.3
		c28.8,13,44.3,17.4,61.7,17.4c16.8,0,20.9-1.3,35.8-11.7c22.5-15.5,79.4-58.9,98.8-75.3c79.4-66.2,142.8-104.5,191.5-115.2
		c33.6-7.6,79.4-1.9,118.7,14.9c27.5,11.4,84.8,40.2,123.1,61.4c116.2,64.6,365.6,182.3,403.6,190.9c20.3,4.4,35.8-3.2,60.8-29.8
		c73.4-77.6,127.9-131.7,145.6-143.7c20.3-14.6-7.9-61.1-50-82.3c-17.7-9.2-44-17.1-67.7-20.9c-39.2-6.3-130.7,14.2-178.5,40.2
		c-11.7,6.3-17.4,12-22.2,21.8l-6.3,13l-9.5-7.3c-27.5-21.8-29.1-26.9-14.2-43.7c23.7-27.2,111.7-46.5,212.7-46.5
		c25.6,0,56.3,1.9,70.6,4.4c78.2,14.2,142.1,53.8,168.1,103.8c7.3,13.6,8.9,21.2,9.2,38.9c0,19.9-0.9,24.1-11.7,41.1
		c-6.3,10.4-25.3,33.9-42.1,52.2c-34.5,37.3-90.8,106-100.3,122.2c-3.5,5.7-5.7,14.6-5.1,19.3c1,7.9,2.5,8.9,13,9.8
		c9.2,0.9,12.7,2.8,14.9,8.9c4.4,11.1-1.6,23.4-11.1,23.4C11848,20699.1,11836.6,20694,11824.3,20688z"/>
	<path d="M7995.9,20630.7c-46.8-6-251.3-43.7-292.8-54.1c-28.5-7-37.7-18.7-24.4-30.4c7.6-7,17.7-6.6,40.5,0.9
		c10.1,3.8,38,11.4,61.4,17.4c92.4,23.4,139.6,29.4,143.7,18.7c3.5-9.5,1.9-38.9-4.1-70c-3.2-17.1-9.8-60.1-14.9-95.6
		c-8.9-64.3-8.9-64.3-2.5-75.7c8.5-15.5,19.3-22.5,38.3-25c13.3-1.3,19.9-0.3,33.2,5.4c13.9,6,313.4,154.8,346.3,172.2
		c14.6,7.6,43,12.3,59.2,10.1c7.9-1.3,21.2-6.6,29.4-12.3c8.5-5.4,49.7-43.7,91.5-84.5c96.9-95,108.9-104.5,133.9-104.5
		c9.5,0,18.4,4.1,40.5,18.4c15.5,10.1,51,32.6,78.8,49.4c27.9,17.1,83.6,51.3,123.4,76.6c77.2,48.4,128.2,78.2,156.7,91.2
		c28.2,13,43.7,33.6,33.2,44.3c-10.4,10.4-29.1,4.7-77.5-22.8c-22.2-12.7-161.1-105.7-191.8-128.5c-34.2-25.3-63.9-43-72.2-43
		c-3.8,0-39.2,32.6-94,87c-73.4,72.8-90.5,88.3-106,95.6c-35.8,16.5-84.2,13-135.8-9.2c-29.1-12.7-147.5-72.8-258-130.7
		c-33.9-18-64.9-33.6-68.7-34.8c-6.6-1.9-7.3-1-7.3,9.8c0,9.5,13,80.1,34.5,188c5.7,27.2-6,35.5-51.3,36.7
		C8021.5,20631.6,8001.9,20631.3,7995.9,20630.7z"/>
</g>
</svg>
