<?xml version="1.0" encoding="utf-8"?>
<!-- Generator: Adobe Illustrator 28.3.0, SVG Export Plug-In . SVG Version: 6.00 Build 0)  -->
<svg version="1.1" id="Layer_1" xmlns="http://www.w3.org/2000/svg" xmlns:xlink="http://www.w3.org/1999/xlink" x="0px" y="0px"
	 viewBox="0 0 499.9 595.9" style="enable-background:new 0 0 499.9 595.9;" xml:space="preserve">
<path id="text2441" d="M416.8,555.6c-15.8,0-28.5-2.2-38.2-6.5c-11.1-4.9-20.3-11.1-27.7-18.5c-8.2-8.2-14.4-17.3-18.5-27.4
	c-4.1-10.3-6.2-22.2-6.2-35.7V184.3c0-36.5-2.2-64.1-6.5-82.8c-6.6-28.7-14.7-43.1-24.3-43.1c-9.9,0-23.5,18.4-40.9,55.1
	c-13.8,28.9-20.6,59.7-20.6,92.4v262h-46.2V184.3c0-36.3-2.2-63.9-6.5-82.8c-6.4-28.7-14.5-43.1-24.3-43.1
	c-9.9,0-23.5,18.4-40.9,55.1c-13.8,28.9-20.6,59.7-20.6,92.4v262H49.2V184.3c0-42.9-5.5-81-16.6-114.2C26.2,51,15.4,31.7,0,12.2
	h47.4c8,8,15.1,17.9,21.2,29.6c7,13.5,12.5,28.7,16.6,45.6c6.2-18.3,14.4-34.1,24.6-47.4c20.7-26.7,37.7-40,50.8-40
	c14.6,0,30.1,14,46.5,41.9c6.4,10.7,11.9,25.9,16.6,45.6c6.2-18.3,14.4-34.1,24.6-47.4c20.7-26.7,38.7-40,53.9-40
	c14.6,0,30.1,14,46.5,41.9c8.8,14.8,14.4,30,16.6,45.6c4.1,28.5,6.2,53.1,6.2,73.6v307c0,7.8,0.9,13.6,2.8,17.5
	c2.5,5.3,5.3,9.5,8.6,12.6c3.7,3.5,7.8,6.3,12.3,8.3c4.5,2.1,11.5,3.1,20.9,3.1H434v-40l65.9,63.1L434,595.9v-40.3H416.8"/>
</svg>
