<svg width="285" height="157" viewBox="0 0 285 157" fill="none" xmlns="http://www.w3.org/2000/svg">
<rect x="0.5" y="0.5" width="284" height="155.75" rx="19.5" stroke="white"/>
<path d="M147.5 78.5C147.5 80.9853 145.485 83 143 83C140.515 83 138.5 80.9853 138.5 78.5C138.5 76.0147 140.515 74 143 74C145.485 74 147.5 76.0147 147.5 78.5Z" fill="white"/>
<path d="M143 60V95M160 78H125M147.5 78.5C147.5 80.9853 145.485 83 143 83C140.515 83 138.5 80.9853 138.5 78.5C138.5 76.0147 140.515 74 143 74C145.485 74 147.5 76.0147 147.5 78.5Z" stroke="white"/>
</svg>
