<svg width="250px" height="24px" viewBox="0 0 341 34" version="1.1" xmlns="http://www.w3.org/2000/svg" xmlns:xlink="http://www.w3.org/1999/xlink">
            <defs>
                <path d="M2.624,33.008 C2.816,31.76 3.104,30.464 3.44,29.504 C6.272,32 8.72,33.008 11.984,33.008 C17.6,33.008 21.536,29.456 21.536,24.32 C21.536,22.064 20.864,20.48 19.232,18.752 C18.56,18.176 18.224,17.888 17.744,17.6 C16.64,16.832 13.856,15.776 11.12,15.056 C8.048,14.24 5.6,13.28 4.592,12.464 C3.296,11.408 2.624,9.968 2.624,8.24 C2.624,4.688 5.408,2.384 9.584,2.384 C12.992,2.384 15.824,3.824 17.312,6.272 C18.128,7.712 18.416,8.912 18.512,11.456 L20.384,11.456 L20,0.56 L18.272,0.56 C18.272,1.76 17.984,2.96 17.6,3.776 C15.536,1.52 12.992,0.512 9.584,0.512 C4.256,0.512 0.752,3.584 0.752,8.192 C0.752,10.016 1.28,11.552 2.288,12.8 C2.672,13.28 3.2,13.76 3.728,14.144 C4.88,15.008 7.52,16.016 10.544,16.832 C13.76,17.648 16.208,18.656 17.36,19.568 C18.896,20.864 19.664,22.4 19.664,24.368 C19.664,28.304 16.496,31.136 12.128,31.136 C8.576,31.136 5.36,29.456 3.728,26.816 C2.768,25.28 2.48,24.08 2.288,21.488 L0.752,21.488 L1.136,33.008 L2.624,33.008 Z M38.768,6.224 C40.352,6.224 41.648,4.928 41.648,3.344 C41.648,1.76 40.352,0.512 38.72,0.512 C37.184,0.512 35.936,1.808 35.936,3.344 C35.936,4.928 37.184,6.224 38.768,6.224 Z M48.56,32 L48.56,30.176 L40.688,30.176 L40.688,11.6 L31.04,11.6 L31.04,13.376 L38.816,13.376 L38.816,30.176 L31.52,30.176 L31.52,32 L48.56,32 Z M62.192,32 L62.192,30.224 L59.456,30.224 L59.456,17.696 C61.184,14.48 63.056,12.8 64.928,12.8 C66.704,12.8 67.664,14.528 67.664,17.696 L67.664,30.224 L64.976,30.224 L64.976,32 L72.464,32 L72.464,30.224 L69.536,30.224 L69.536,17.216 C70.544,14.576 72.656,12.8 74.768,12.8 C76.736,12.8 77.696,14.432 77.696,17.744 L77.696,30.176 L74.912,30.176 L74.912,32 L82.016,32 L82.016,30.176 L79.568,30.176 L79.568,17.504 C79.568,13.232 78.032,11.072 75.008,11.072 C72.944,11.072 71.408,11.936 69.152,14.48 C68.288,12.032 67.04,11.024 64.928,11.024 C62.816,11.024 61.328,12.08 59.552,14.864 L59.456,14.864 L59.456,11.6 L54.704,11.6 L54.704,13.376 L57.632,13.376 L57.632,30.224 L55.232,30.224 L55.232,32 L62.192,32 Z M97.088,33.056 C102.704,33.056 107.168,28.064 107.168,21.824 C107.168,18.56 105.92,15.488 103.76,13.28 C101.984,11.456 99.584,10.496 96.8,10.496 C95.024,10.496 93.056,11.168 91.424,12.368 C88.544,14.432 86.96,17.792 86.96,21.728 C86.96,28.112 91.376,33.056 97.088,33.056 Z M97.088,31.184 C92.336,31.184 88.832,27.2 88.832,21.728 C88.832,16.208 92.288,12.32 97.184,12.32 C101.84,12.32 105.248,16.352 105.248,21.872 C105.248,27.248 101.84,31.184 97.088,31.184 Z M123.776,32 L123.776,30.176 L119.696,30.176 L119.696,18.992 C121.856,15.008 124.784,12.896 128.144,12.896 C131.36,12.896 133.136,14.768 133.136,18.176 L133.136,30.176 L129.2,30.176 L129.2,32 L138.896,32 L138.896,30.176 L135.008,30.176 L135.008,17.984 C135.008,13.616 132.56,11.12 128.336,11.12 C124.88,11.12 122.624,12.416 119.84,16.064 L119.744,16.064 L119.744,11.6 L113.36,11.6 L113.36,13.376 L117.824,13.376 L117.824,30.224 L113.648,30.224 L113.648,32 L123.776,32 Z M155.168,32.96 C158.624,32.96 161.696,31.568 163.472,29.072 C164.24,27.968 164.576,27.152 164.864,25.568 L162.992,25.568 C162.704,26.96 162.368,27.632 161.6,28.544 C160.208,30.128 157.616,31.184 155.072,31.184 C152.144,31.184 149.648,29.84 148.208,27.44 C147.248,25.904 146.96,24.56 146.816,21.872 L165.152,21.872 C164.96,18.32 164.384,16.448 162.944,14.432 C161.12,11.936 158.24,10.448 155.072,10.448 C152.912,10.448 150.752,11.168 149.072,12.368 C146.336,14.336 144.848,17.552 144.848,21.584 C144.848,28.448 148.928,32.96 155.168,32.96 Z M163.136,20 L146.864,20 C147.2,17.744 147.68,16.592 148.784,15.248 C150.272,13.376 152.576,12.32 155.072,12.32 C157.616,12.32 159.776,13.424 161.264,15.392 C162.224,16.688 162.704,17.792 163.136,20 Z M222.896,32.048 C223.712,32.048 224.432,31.952 225.488,31.712 L225.488,29.984 C224.864,30.176 223.568,30.416 222.992,30.416 C222.224,30.416 221.648,30.224 221.216,29.84 C220.688,29.072 220.352,28.16 220.064,26.24 C219.488,22.592 218.336,19.76 216.896,18.56 C216.224,17.936 215.408,17.504 214.496,17.216 L214.496,17.12 C217.088,16.784 218.384,16.304 219.728,15.2 C221.456,13.808 222.368,11.744 222.368,9.248 C222.368,4.544 219.248,1.568 214.304,1.568 L199.76,1.568 L199.76,3.344 L204.32,3.344 L204.32,30.272 L199.76,30.272 L199.76,32 L211.04,32 L211.04,30.272 L206.144,30.272 L206.144,17.84 L210.752,17.84 C212.672,17.84 214.208,18.464 215.6,19.76 C216.992,21.296 217.664,23.024 218.24,26.624 C219.008,31.136 219.824,32.048 222.896,32.048 Z M210.704,16.064 L206.144,16.064 L206.144,3.344 L213.728,3.344 C218.048,3.344 220.448,5.504 220.448,9.344 C220.448,13.76 217.088,16.064 210.704,16.064 Z M241.088,33.056 C246.704,33.056 251.168,28.064 251.168,21.824 C251.168,18.56 249.92,15.488 247.76,13.28 C245.984,11.456 243.584,10.496 240.8,10.496 C239.024,10.496 237.056,11.168 235.424,12.368 C232.544,14.432 230.96,17.792 230.96,21.728 C230.96,28.112 235.376,33.056 241.088,33.056 Z M241.088,31.184 C236.336,31.184 232.832,27.2 232.832,21.728 C232.832,16.208 236.288,12.32 241.184,12.32 C245.84,12.32 249.248,16.352 249.248,21.872 C249.248,27.248 245.84,31.184 241.088,31.184 Z M270.656,33.056 C273.536,33.056 275.936,32.096 277.76,30.224 C278.816,29.12 279.344,28.208 280.208,26.144 L278.48,26.144 C276.704,29.648 274.016,31.424 270.512,31.424 C265.52,31.424 262.16,27.584 262.16,21.92 C262.16,16.112 265.472,12.176 270.416,12.176 C272.672,12.176 274.64,13.232 274.64,14.48 C274.64,14.768 274.544,14.96 274.256,15.392 C273.968,15.92 273.824,16.256 273.824,16.544 C273.824,17.696 274.88,18.56 276.224,18.56 C277.616,18.56 278.624,17.648 278.624,16.352 C278.624,13.232 275.024,10.64 270.608,10.64 C264.368,10.64 260.288,15.152 260.288,22.064 C260.288,28.688 264.416,33.056 270.656,33.056 Z M297.44,32 L297.44,30.224 L293.312,30.224 L293.312,22.592 C293.312,19.232 294.272,16.496 296.096,14.672 C297.536,13.232 299.456,12.368 301.376,12.368 C304.4,12.368 306.128,14.72 306.128,18.8 L306.128,30.224 L302.336,30.224 L302.336,32 L311.696,32 L311.696,30.224 L308,30.224 L308,19.04 C308,13.616 305.552,10.544 301.232,10.544 C297.968,10.544 295.328,12.176 293.408,15.536 L293.312,15.536 L293.312,1.472 L286.304,1.472 L286.304,3.296 L291.536,3.296 L291.536,30.224 L287.12,30.224 L287.12,32 L297.44,32 Z M337.616,33.056 C338.576,33.056 339.392,32.864 340.496,32.336 L340.496,30.512 C339.44,31.184 338.48,31.568 337.712,31.568 C336.416,31.568 335.36,30.416 335.36,28.976 L335.36,17.6 C335.36,12.704 332.96,10.592 327.296,10.592 C324.464,10.592 322.352,11.168 320.672,12.32 C319.232,13.376 318.272,14.816 318.272,16.112 C318.272,17.264 319.184,18.176 320.336,18.176 C321.584,18.176 322.544,17.216 322.544,15.872 C322.544,15.008 322.208,14.384 321.44,13.856 C323.264,12.704 324.848,12.272 327.104,12.272 C331.52,12.272 333.536,13.808 333.536,17.264 L333.536,19.28 C331.808,19.616 331.088,19.712 328.832,20 C323.168,20.72 320.624,21.584 318.848,23.408 C317.744,24.56 317.024,26.192 317.024,27.728 C317.024,29.024 317.552,30.32 318.464,31.232 C319.664,32.48 321.536,33.056 324.08,33.056 C328.016,33.056 330.368,32 333.536,28.88 C333.824,31.856 334.976,33.056 337.616,33.056 Z M323.984,31.376 C320.912,31.376 318.896,29.84 318.896,27.536 C318.896,26.576 319.28,25.712 320.048,24.896 C321.68,23.168 323.744,22.496 329.072,21.824 C331.04,21.584 331.904,21.488 333.536,21.2 L333.536,26.192 C330.752,29.696 327.632,31.376 323.984,31.376 Z" id="path-1"></path>
            </defs>
            <g id="Page-1" stroke="none" stroke-width="1" fill="none" fill-rule="evenodd">
                <g id="SimoneRocha" fill-rule="nonzero">
                    <use fill="#000" xlink:href="#path-1"></use>
                    <use fill="#000" xlink:href="#path-1"></use>
                </g>
            </g>
        </svg>
