<?xml version="1.0" encoding="utf-8"?>
<!-- Generator: Adobe Illustrator 28.3.0, SVG Export Plug-In . SVG Version: 6.00 Build 0)  -->
<svg version="1.1" id="Layer_1" xmlns="http://www.w3.org/2000/svg" xmlns:xlink="http://www.w3.org/1999/xlink" x="0px" y="0px"
	 viewBox="0 0 500 486" style="enable-background:new 0 0 500 486;" xml:space="preserve">
<path id="text2433" d="M102.9,116.6C97.2,103,89,90.9,78.4,80.3c-9.8-9.8-21.8-17.8-36-24.2C30.1,50.6,16,47.8,0,47.8V0
	c21.9,0,42,3.9,60.5,11.8c19.3,8.3,36.5,19.9,51.6,34.7c15.3,15.1,27,32.4,35,51.9c5.7,13.6,13.9,25.7,24.5,36.3
	c9.8,9.8,21.8,17.8,36,24.2c12.3,5.5,26.4,8.3,42.4,8.3c15.3,0,29.4-2.8,42.4-8.3c13.6-5.7,25.6-13.8,36-24.2
	c10.6-10.6,18.8-22.7,24.5-36.3c8.1-19.5,19.7-36.8,35-51.9c15.1-14.9,32.3-26.4,51.6-34.7C458,3.9,478.1,0,500,0v47.8
	c-15.9,0-30,2.8-42.4,8.3c-14.2,6.4-26.2,14.4-36,24.2c-10.6,10.6-18.8,22.7-24.5,36.3c-8.1,19.3-19.7,36.6-35,51.9
	c-7.4,7.4-17.1,15-29,22.6c11.9,7.6,21.5,15.2,29,22.6c15.3,15.3,27,32.6,35,51.9c7.9,19.1,11.8,39.6,11.8,61.5
	c0,21.2-3.9,41.4-11.8,60.5c-8.3,19.5-20,36.8-35,51.9c-15.1,14.9-32.3,26.4-51.6,34.7C292,482.1,271.9,486,250,486
	c-22.9,0-43.1-3.9-60.5-11.8c-20.2-9.1-37.4-20.7-51.6-34.7c-15.1-15.1-26.8-32.4-35-51.9c-7.9-19.1-11.8-39.3-11.8-60.5
	c0-21.9,3.9-42.4,11.8-61.5c8.5-20.6,20.2-37.9,35-51.9c9.1-8.7,18.9-16.2,29.3-22.6c-10.6-6.4-20.4-13.9-29.3-22.6
	C123,154,111.4,136.7,102.9,116.6 M292.4,223.3c-13-5.5-27.1-8.3-42.4-8.3s-29.4,2.8-42.4,8.3c-13.2,5.9-25.2,14-36,24.2
	c-11,11.5-19.2,23.6-24.5,36.3c-5.5,13.4-8.3,27.8-8.3,43.3c0,14.9,2.8,29,8.3,42.4c5.3,12.7,13.5,24.8,24.5,36.3
	c10.8,10.2,22.8,18.3,36,24.2c13,5.5,27.1,8.3,42.4,8.3s29.4-2.8,42.4-8.3c13.2-5.9,25.2-14,36-24.2c11-11.5,19.2-23.6,24.5-36.3
	c5.5-13.4,8.3-27.5,8.3-42.4c0-15.5-2.8-29.9-8.3-43.3c-5.3-12.7-13.5-24.8-24.5-36.3C317.5,237.3,305.5,229.2,292.4,223.3"/>
</svg>
