<?xml version="1.0" standalone="no"?>
<!DOCTYPE svg PUBLIC "-//W3C//DTD SVG 20010904//EN"
 "http://www.w3.org/TR/2001/REC-SVG-20010904/DTD/svg10.dtd">
<svg version="1.0" xmlns="http://www.w3.org/2000/svg"
 width="600.000000pt" height="173.000000pt" viewBox="0 0 600.000000 173.000000"
 preserveAspectRatio="xMidYMid meet">

<g transform="translate(0.000000,173.000000) scale(0.100000,-0.100000)"
fill="#000000" stroke="none">
<path d="M285 1687 c-215 -72 -329 -279 -267 -483 52 -169 195 -274 372 -274
97 0 168 24 241 82 48 38 112 123 106 141 -1 4 -21 17 -45 27 l-42 19 -14 -28
c-19 -37 -90 -99 -132 -117 -66 -28 -64 -32 -64 161 l0 175 165 0 c114 0 165
3 165 11 0 6 -14 40 -30 75 -64 133 -188 215 -335 221 -48 2 -96 -2 -120 -10z
m182 -102 c51 -15 133 -67 133 -85 0 -6 -80 -10 -217 -10 l-216 0 24 26 c13
14 42 35 64 47 76 39 135 45 212 22z m-127 -370 c0 -169 -1 -175 -20 -175 -59
0 -155 83 -191 164 -21 48 -30 150 -15 174 5 8 44 12 117 12 l109 0 0 -175z"/>
<path d="M920 1485 l0 -55 75 0 75 0 0 -210 0 -210 65 0 65 0 0 210 0 210 80
0 80 0 0 55 0 55 -220 0 -220 0 0 -55z"/>
<path d="M1470 1275 l0 -265 200 0 200 0 0 55 0 54 -136 3 -137 3 0 55 0 55
117 3 117 3 -3 47 -3 47 -112 3 -113 3 0 44 0 44 133 3 132 3 0 50 0 50 -197
3 -198 2 0 -265z"/>
<path d="M1990 1275 l0 -265 185 0 185 0 0 55 0 55 -120 0 -120 0 0 210 0 210
-65 0 -65 0 0 -265z"/>
<path d="M2470 1275 l0 -265 65 0 65 0 0 105 0 105 110 0 110 0 0 50 0 50
-110 0 -110 0 0 55 0 55 130 0 130 0 0 55 0 55 -195 0 -195 0 0 -265z"/>
<path d="M3071 1518 c-24 -63 -181 -501 -181 -504 0 -2 29 -4 64 -4 l64 0 17
50 17 51 91 -3 91 -3 17 -45 17 -45 66 -3 c36 -2 66 1 65 5 0 4 -42 123 -93
263 l-93 255 -66 3 c-62 3 -68 1 -76 -20z m129 -310 c0 -5 -27 -8 -61 -8 -50
0 -60 3 -55 15 3 8 17 54 32 101 l27 87 28 -94 c16 -52 29 -97 29 -101z"/>
<path d="M3500 1275 l0 -265 65 0 65 0 0 101 0 101 65 -4 c41 -2 71 -10 81
-19 8 -9 20 -51 27 -95 l12 -79 62 -3 62 -3 -4 33 c-2 18 -6 56 -9 85 -6 63
-28 109 -57 118 -20 7 -19 9 15 37 93 76 59 214 -62 248 -20 5 -101 10 -179
10 l-143 0 0 -265z m291 136 c24 -29 24 -53 1 -82 -16 -19 -29 -22 -88 -23
l-69 -1 -3 69 -3 68 72 -4 c60 -3 74 -8 90 -27z"/>
<path d="M681 648 c-77 -22 -113 -69 -113 -148 0 -85 47 -124 192 -156 111
-25 146 -69 95 -119 -20 -21 -34 -25 -83 -25 -66 0 -108 23 -114 63 -3 19 -10
22 -55 25 -63 4 -67 -7 -30 -78 33 -66 95 -95 202 -95 66 0 88 5 124 25 53 30
81 78 81 138 0 89 -40 124 -191 162 -46 12 -92 29 -101 37 -61 54 39 125 125
89 20 -8 42 -26 49 -40 10 -23 17 -26 60 -26 51 0 54 3 37 47 -34 91 -158 136
-278 101z"/>
<path d="M2030 637 c-47 -25 -77 -70 -87 -131 l-6 -36 51 0 c49 0 50 1 56 35
17 91 156 86 156 -6 0 -42 -23 -78 -78 -119 -120 -90 -176 -158 -183 -225 l-4
-30 188 -3 187 -2 0 45 0 45 -122 0 -122 0 30 31 c16 17 54 48 85 70 125 85
157 178 96 278 -41 69 -163 92 -247 48z"/>
<path d="M2551 638 c-48 -24 -94 -86 -112 -153 -17 -62 -7 -202 19 -251 44
-86 130 -132 222 -120 66 9 120 50 154 120 26 51 30 70 30 145 1 104 -20 174
-67 219 -66 64 -165 80 -246 40z m150 -78 c30 -17 50 -66 56 -139 11 -133 -31
-221 -106 -221 -78 0 -111 55 -111 183 0 93 10 129 42 165 23 24 84 30 119 12z"/>
<path d="M3112 639 c-83 -41 -122 -123 -122 -254 0 -125 31 -196 108 -242 81
-50 187 -38 253 28 95 95 98 327 6 428 -56 60 -167 78 -245 40z m161 -95 c33
-32 52 -118 43 -197 -10 -97 -48 -147 -114 -147 -74 0 -122 105 -107 229 8 61
17 85 48 119 30 32 96 31 130 -4z"/>
<path d="M5691 647 c-49 -19 -108 -72 -133 -120 -30 -59 -36 -177 -13 -247 47
-143 219 -210 356 -139 41 20 83 75 94 122 7 27 7 27 -48 27 -50 0 -55 -2 -61
-25 -8 -33 -61 -65 -107 -65 -83 0 -140 76 -140 185 0 118 51 185 143 185 50
0 82 -19 104 -61 14 -28 19 -30 62 -27 44 3 47 5 44 28 -5 39 -53 101 -97 124
-48 25 -154 31 -204 13z"/>
<path d="M50 385 l0 -265 193 2 192 3 3 42 3 43 -146 0 -146 0 3 72 3 73 123
3 122 3 0 39 0 39 -122 3 -123 3 -3 57 -3 57 143 3 143 3 3 43 3 42 -195 0
-196 0 0 -265z"/>
<path d="M1070 605 l0 -45 80 0 80 0 0 -221 0 -220 53 3 52 3 3 217 2 217 78
3 77 3 1 43 1 42 -213 0 -214 0 0 -45z"/>
<path d="M3600 642 c0 -5 -11 -69 -25 -143 -14 -74 -25 -135 -25 -136 0 -12
93 1 127 18 31 15 53 19 78 15 108 -21 94 -196 -15 -196 -52 0 -83 15 -104 51
-15 25 -23 29 -63 29 l-45 0 6 -31 c26 -131 231 -184 340 -88 97 84 80 245
-30 299 -47 23 -111 26 -158 6 l-33 -14 9 47 c13 75 6 71 133 71 l115 0 0 40
0 40 -155 0 c-85 0 -155 -4 -155 -8z"/>
<path d="M4480 385 l0 -265 50 0 50 0 0 181 0 181 78 -128 c158 -260 137 -234
193 -234 l49 0 0 265 0 265 -50 0 -50 0 0 -182 0 -183 -43 75 c-24 41 -72 123
-107 183 l-63 107 -54 0 -53 0 0 -265z"/>
<path d="M5048 598 c16 -29 57 -104 91 -166 l61 -113 0 -99 0 -100 50 0 50 0
0 102 0 102 85 157 c47 86 85 159 85 163 0 3 -24 6 -53 6 l-53 0 -57 -116 -56
-116 -58 116 -58 116 -58 0 -58 0 29 -52z"/>
<path d="M1530 174 l0 -55 53 3 52 3 3 53 3 52 -55 0 -56 0 0 -56z"/>
<path d="M4052 178 c3 -50 5 -53 31 -56 24 -3 27 -7 21 -25 -3 -12 -17 -33
-30 -48 -23 -24 -32 -49 -16 -49 4 0 21 9 39 20 46 27 63 68 63 145 l0 65 -56
0 -55 0 3 -52z"/>
</g>
</svg>
