<?xml version="1.0" encoding="utf-8"?>
<!-- Generator: Adobe Illustrator 28.3.0, SVG Export Plug-In . SVG Version: 6.00 Build 0)  -->
<svg version="1.1" id="Layer_1" xmlns="http://www.w3.org/2000/svg" xmlns:xlink="http://www.w3.org/1999/xlink" x="0px" y="0px"
	 viewBox="0 0 800 800" style="enable-background:new 0 0 800 800;" xml:space="preserve">
<path id="text2437" d="M530.7,555.8c23.3-23.5,41.1-50.2,53.5-80.2c12.4-30.2,18.6-62.1,18.6-95.7c0-29.2-1.8-50.3-5.3-63.6
	c-5.5-20.3-13-30.5-22.7-30.5c-5.5,0-13.1,9.9-23,29.6c-14.1,28.1-21.1,59.6-21.1,94.4V555.8 M493,642.6c-9,4.8-18.3,9.3-27.7,13.5
	C442,666.4,416.6,673,389.1,676v-47.5c20.8-2.9,40.2-8.3,58.2-16c13-5.7,25.3-12.2,36.8-19.5c-0.4-4.8-0.6-9.9-0.6-15.1V288.3
	c0-37.3-2.2-65.6-6.6-84.6c-6.7-29.4-15-44.1-24.9-44.1c-10.1,0-24,18.8-41.9,56.3c-14.1,29.6-21.1,61-21.1,94.4v267.8h-47.2V288.3
	c0-37.1-2.2-65.3-6.6-84.6c-6.5-29.4-14.8-44.1-24.9-44.1c-10.1,0-24,18.8-41.9,56.3c-14.1,29.6-21.1,61-21.1,94.4v267.8h-47.2
	V288.3c0-43.8-5.7-82.8-17-116.7c-6.5-19.5-17.6-39.2-33.4-59.2h48.5c8.2,8.2,15.4,18.3,21.7,30.2c7.1,13.8,12.8,29.4,17,46.6
	c6.3-18.7,14.7-34.8,25.2-48.5c21.2-27.3,38.5-40.9,51.9-40.9c14.9,0,30.7,14.3,47.5,42.8c6.5,10.9,12.2,26.4,17,46.6
	c6.3-18.7,14.7-34.8,25.2-48.5c21.2-27.3,39.5-40.9,55.1-40.9c14.9,0,30.7,14.3,47.5,42.8c9,15.1,14.7,30.6,17,46.6
	c3.1,22,5.2,47.1,6.3,75.2c4.2-8.6,9.4-16.7,15.7-24.2c15.3-18.2,28.7-27.4,40.3-27.4c16.8,0,31.4,16.6,43.7,49.7
	C643.2,299,650,338.1,650,379.9c0,40.9-7.3,78.8-22,113.6c-15.9,37.8-37.9,70.3-65.8,97.5c-8.8,8.6-18,16.7-27.7,24.2
	c2.3,9.9,5.3,19.4,9.1,28.6c8.2,19.9,20.9,38.7,38.1,56.3h-61c-9.4-15.1-16.4-27.9-20.8-38.4C497.4,655.5,495.1,649.1,493,642.6"/>
</svg>
