<?xml version="1.0" encoding="utf-8"?>
<!-- Generator: Adobe Illustrator 28.3.0, SVG Export Plug-In . SVG Version: 6.00 Build 0)  -->
<svg version="1.1" id="Layer_1" xmlns="http://www.w3.org/2000/svg" xmlns:xlink="http://www.w3.org/1999/xlink" x="0px" y="0px"
	 viewBox="0 0 500.3 600.3" style="enable-background:new 0 0 500.3 600.3;" xml:space="preserve">
<path id="text2437" d="M381,456c23.3-23.5,41.1-50.2,53.5-80.2c12.4-30.2,18.6-62.1,18.6-95.7c0-29.2-1.8-50.3-5.3-63.6
	c-5.5-20.3-13-30.5-22.7-30.5c-5.5,0-13.1,9.9-23,29.6C388,243.7,381,275.2,381,310V456 M343.3,542.8c-9,4.8-18.3,9.3-27.7,13.5
	c-23.3,10.3-48.7,16.9-76.2,19.9v-47.5c20.8-2.9,40.2-8.3,58.2-16c13-5.7,25.3-12.2,36.8-19.5c-0.4-4.8-0.6-9.9-0.6-15.1V188.5
	c0-37.3-2.2-65.6-6.6-84.6c-6.7-29.4-15-44.1-24.9-44.1c-10.1,0-24,18.8-41.9,56.3c-14.1,29.6-21.1,61-21.1,94.4v267.8h-47.2V188.5
	c0-37.1-2.2-65.3-6.6-84.6c-6.5-29.4-14.8-44.1-24.9-44.1s-24,18.8-41.9,56.3c-14.1,29.6-21.1,61-21.1,94.4v267.8H50.4V188.5
	c0-43.8-5.7-82.8-17-116.7C26.9,52.3,15.8,32.6,0,12.6h48.5c8.2,8.2,15.4,18.3,21.7,30.2c7.1,13.8,12.8,29.4,17,46.6
	c6.3-18.7,14.7-34.8,25.2-48.5C133.6,13.6,150.9,0,164.3,0c14.9,0,30.7,14.3,47.5,42.8c6.5,10.9,12.2,26.4,17,46.6
	c6.3-18.7,14.7-34.8,25.2-48.5C275.2,13.6,293.5,0,309.1,0c14.9,0,30.7,14.3,47.5,42.8c9,15.1,14.7,30.6,17,46.6
	c3.1,22,5.2,47.1,6.3,75.2c4.2-8.6,9.4-16.7,15.7-24.2c15.3-18.2,28.7-27.4,40.3-27.4c16.8,0,31.4,16.6,43.7,49.7
	c13.9,36.5,20.7,75.6,20.7,117.4c0,40.9-7.3,78.8-22,113.6c-15.9,37.8-37.9,70.3-65.8,97.5c-8.8,8.6-18,16.7-27.7,24.2
	c2.3,9.9,5.3,19.4,9.1,28.6c8.2,19.9,20.9,38.7,38.1,56.3h-61c-9.4-15.1-16.4-27.9-20.8-38.4C347.7,555.7,345.4,549.3,343.3,542.8"
	/>
</svg>
