<?xml version="1.0" encoding="utf-8"?>
<!-- Generator: Adobe Illustrator 28.3.0, SVG Export Plug-In . SVG Version: 6.00 Build 0)  -->
<svg version="1.1" id="Layer_1" xmlns="http://www.w3.org/2000/svg" xmlns:xlink="http://www.w3.org/1999/xlink" x="0px" y="0px"
	 viewBox="0 0 300 105" style="enable-background:new 0 0 300 105;" xml:space="preserve">
<style type="text/css">
	.st0{fill-rule:evenodd;clip-rule:evenodd;}
</style>
<g id="Layer_1_00000063615394723042585140000008801283976208330132_" focusable="false">
	<path class="st0" d="M44.4,68c0,0-1,0.1-1.3-1c-0.1-0.3-0.7-3.2-0.8-7.4c0-4.2,0.7-7.2,0.8-7.4c0.3-1.2,1.5-1,1.5-1
		c1,0,0.8-1,0.8-1h-9.9c-0.5,0-0.7,1,0.3,1c0,0,1.1-0.1,1.5,1c0.1,0.3,0.7,3.2,0.8,7.4c0,4.2-0.7,7.1-0.8,7.4c-0.3,1.2-1.4,1-1.4,1
		c-1,0-1,1.1-0.2,1.1h8.9C45.4,69,45.4,68,44.4,68z"/>
	<path class="st0" d="M43.2,46.3c0,1.7-1.4,3-3,3s-3-1.4-3-3s1.4-3,3-3S43.2,44.6,43.2,46.3z"/>
	<path class="st0" d="M68.1,68c0,0-1,0.1-1.3-1c-0.1-0.3-0.7-3.2-0.8-7.4c0-4.2,0.3-5.1,0.6-6.6s0.3-1.7,0.5-2.2
		c0.2-0.4,0.1-0.8-0.7-0.8h-7.2c-0.5,0-0.7,1,0.3,1c0,0,1.1-0.1,1.5,1c0.1,0.3,0.7,3.2,0.8,7.4c0,4.2-0.7,7.1-0.8,7.4
		c-0.3,1.2-1.4,1-1.4,1c-1,0-1,1.1-0.2,1.1h8.9C69.1,69,69.1,68,68.1,68L68.1,68L68.1,68z"/>
	<path class="st0" d="M66.9,46.3c0,1.7-1.4,3-3,3s-3-1.4-3-3s1.4-3,3-3S66.9,44.6,66.9,46.3z"/>
	<path class="st0" d="M160.6,100.6c0,0-1.1,0.1-1.5-1c-0.6-3-0.8-6.9-0.8-13.1s0.7-12.2,0.8-12.9s0.2-0.9,0.2-1.2s-0.2-0.8-1-0.8
		h-6.6c-0.9,0-0.9,1,0.1,1c0,0,1-0.1,1.4,1c0.1,0.2,0.7,2.9,0.8,6.7v2.5c-0.2,0.3-0.5,0.5-0.7,0.3c0,0-1.3-1.4-4.1-1.4
		s-7.3,3.8-7.3,10.4s3.1,10.1,5.9,10.1c4,0,4.9-3.6,5.5-3c-0.2,1-0.3,1.3-0.4,1.7c-0.2,0.4-0.1,0.7,0.7,0.7h7.2
		C161.4,101.6,161.6,100.6,160.6,100.6L160.6,100.6L160.6,100.6z M153,96.7c-0.8,1-2.2,1.2-3.4,1c-1.5-0.4-2.7-2.1-3.3-3.5
		c-0.4-1-0.5-2.3-0.6-3.4c-0.2-2.4,0.6-8,4.1-8c2.1,0,3.5,2.1,4.1,4.4v5.1c0,0.9,0,1.6-0.1,2.2C153.8,95.3,153.4,96.1,153,96.7
		L153,96.7L153,96.7z"/>
	<path class="st0" d="M61.2,50.3l-1.7-0.2h-5.7c-0.5,0-0.5,0.5-0.2,0.6c2,1.2,1.9,3,1.8,3.4c-0.5,1.9-1.7,4.2-2.2,5.1
		c-0.2,0.4-0.6,0.5-0.8,0.2c-1.3-2.6-1.9-5.8-2-7.1c0-0.4-0.1-0.9,0.5-1.1c0.6-0.2,0.6-1.1,0-1.1h-7.5c-1.1,0-0.5,0.9,0.3,2.1
		c0.2,0.3,2.3,3.2,4.2,7.5c1.7,4.2,2.5,7.2,2.6,7.6s0.6,2.4,0.7,2.7c0.1,0.3,0.5,0.4,0.6,0c0.8-3.1,1.5-4.5,3.4-6
		c0.9-0.8,0.1-1.2-0.3-1.5c-0.4-0.2-0.8-0.5-1.1-0.9c-0.1-0.2-0.1-0.5,0.1-0.8c0.3-0.7,2.4-5.7,3-6.7s1.8-2.5,3.7-2.9
		C61.5,50.9,61.2,50.3,61.2,50.3L61.2,50.3z"/>
	<path class="st0" d="M84.5,54.9c-0.7-2.8-6.9-7.7-13.3-2.4c-6.7,5.8-2,16.7,5.2,16.7s8-5.6,7.6-7.3c0,0-0.3-1.2-1.1,0
		c-4.7,5-8.7,1.1-9.1-0.2c1-0.6,10.3-5.5,10.3-5.5S84.6,55.5,84.5,54.9L84.5,54.9z M78.9,57.2c-0.7,0.6-5.2,3-5.5,3.1
		s-0.6,0.4-1.1-0.6L72.1,59c-0.2-0.5-0.3-1-0.4-1.5c-1.3-5,3.5-6.5,5.7-5.6C79.7,52.9,79.6,56.5,78.9,57.2L78.9,57.2L78.9,57.2z"/>
	<path class="st0" d="M139.9,54.9c-0.7-2.8-6.9-7.7-13.3-2.4c-6.7,5.8-2,16.7,5.2,16.7s8-5.6,7.6-7.3c0,0-0.3-1.2-1.1,0
		c-4.7,5-8.6,1.1-9.1-0.2c1-0.6,10.3-5.5,10.3-5.5S140.1,55.5,139.9,54.9L139.9,54.9L139.9,54.9z M134.4,57.2
		c-0.7,0.6-5.2,3-5.5,3.1s-0.6,0.4-1.1-0.6l-0.3-0.6c-0.2-0.5-0.3-1-0.4-1.5c-1.3-5,3.5-6.5,5.7-5.6
		C135.1,52.9,135.1,56.5,134.4,57.2L134.4,57.2L134.4,57.2z"/>
	<path class="st0" d="M52.9,86.9c-0.7-3-7.1-8.3-13.7-2.6c-6.9,6.2-2.1,17.9,5.3,17.9s8.2-6,7.8-7.9c0,0-0.3-1.3-1.1,0
		c-4.9,5.4-8.9,1.2-9.4-0.2c1-0.6,10.6-5.9,10.6-5.9S53.1,87.6,52.9,86.9z M47.2,89.3c-0.7,0.7-5.3,3.2-5.6,3.3s-0.7,0.5-1.1-0.7
		l-0.3-0.6c-0.2-0.5-0.3-1-0.5-1.6c-1.3-5.3,3.6-6.9,5.9-5.9S48,88.6,47.2,89.3z"/>
	<path class="st0" d="M121.9,68.4c-0.1-0.2-0.3-0.4-0.7-0.4c0,0-1,0.1-1.3-1c-0.1-0.3,0-0.7,0.1-1.1c0.6-1.6,1.4-3,1.9-4.6
		c0.6-1.8,1-3.9,0.8-5.8c-0.2-1.5-0.9-2.9-2-4c-2.1-1.9-4.8-2.3-7.2-0.8c-0.4,0.2-1.2,0.9-1.6,0.9s-0.5-0.2-0.5-0.5
		c0-0.1,0.1-0.2,0.1-0.2c0.2-0.4,0.1-0.8-0.7-0.8h-7.2c-0.5,0-0.7,1,0.3,1c0,0,1.1-0.1,1.5,1c0.1,0.3,0.7,3.2,0.8,7.4
		c0,4.2-0.7,7.2-0.8,7.4c-0.2,0.7-0.8,1-1.5,1c-0.4,0-0.9,0-1.4-0.1c-0.4,0-0.8-0.1-1.1-0.4c-0.2-0.2-0.4-0.6-0.5-0.9
		c-0.1-0.4,0-0.8,0.1-1.2c0.6-1.5,1.3-2.6,1.8-4.1c0.6-1.8,1-3.9,0.8-5.8c-0.2-1.5-0.9-2.9-2-4c-2.1-1.9-4.8-2.3-7.2-0.8
		c-0.4,0.2-1.2,0.9-1.6,0.9s-0.5-0.2-0.5-0.5c0-0.1,0.1-0.2,0.1-0.2c0.2-0.4,0.1-0.8-0.7-0.8h-7.2c-0.5,0-0.7,1,0.3,1
		c0,0,1.1-0.1,1.5,1c0.1,0.3,0.7,3.2,0.8,7.4c0,4.2-0.7,7.1-0.8,7.4c-0.3,1.2-1.4,1-1.4,1c-1,0-1,1.1-0.2,1.1h8.9c0.9,0,0.9-1-0.1-1
		c0,0-1,0.1-1.3-1c-0.1-0.3-0.7-3.2-0.8-7.4c0-1.8-0.2-4,0.9-5.6c0.5-0.8,1.4-1.4,2.3-1.5c0.7,0,1.4,0.1,1.9,0.6
		c2,1.6,2,6.1,0.2,11.8c-1.2,3.4-0.2,3.9-0.1,4.1C96.7,69,97,69,97.2,69s6.8,0,6.8,0h8.6c0.9,0,0.9-1-0.1-1c0,0-1,0.1-1.3-1
		c-0.1-0.3-0.7-3.2-0.8-7.4c0-1.8-0.2-4,0.9-5.6c0.5-0.8,1.4-1.4,2.3-1.5c0.7,0,1.4,0.1,1.9,0.6c2,1.6,2,6.1,0.2,11.8
		c-1.2,3.4-0.2,3.9-0.1,4.1c0.1,0.1,0.4,0.1,0.6,0.1h5.1C121.8,69,122,68.7,121.9,68.4L121.9,68.4L121.9,68.4z"/>
	<path class="st0" d="M66.5,90.6c-1.8-1-3.8-1.3-5.7-2.1c-1.5-0.6-3.6-1.6-3.4-3.5c0.2-2.6,2.9-3.1,4.7-2.9c0.4,0,1.9,0.4,1.4,1.2
		c-0.8,0.5-1.3,1.4-1.3,2.4c0,1.6,1.4,2.8,3.1,2.8c1.7,0,2.9-1.3,2.9-2.9c0-0.7-0.2-1.3-0.6-1.8l0,0c-0.1-0.1-0.2-0.2-0.3-0.3
		c-1.8-1.8-4.5-2.8-8-2.2c-3.8,0.7-5.9,3.8-5.6,5.8c0.3,2,0.6,4.2,8.8,7.2c3.6,1.3,4.1,4,2.5,5.5c-0.8,0.7-2.1,1.1-3.4,1.1
		c-1.6,0-3.5-0.4-3.3-1.4c0.8-0.5,1.4-1.3,1.4-2.4c0-1.6-1.5-3.2-3.2-3.2s-3,1.5-3.1,3.1c0,0.8,0.3,1.4,0.7,1.9l0,0
		c1.2,1.5,3.3,2.4,5.1,2.8c3.4,0.9,7.4-0.3,9.4-3.2c0.6-0.8,0.9-1.8,0.9-2.8C69.5,93.6,68.3,91.7,66.5,90.6L66.5,90.6z"/>
	<path class="st0" d="M81.6,91.9c-0.7-1.2-1.4-0.3-0.8,0.6c0.4,0.7,0.4,1.6,0.5,2.4c0.2,1.4,0.1,3.1-1,4.2c-0.3,0.3-0.8,0.6-1.3,0.6
		c-1.6,0-2.3-1.3-2.3-3.4v-13c0.3-0.2,0.7-0.4,1.1-0.4c1.1,0,1.8,0.6,2.5,1.6l0.8-2.5h-3.6c-0.3,0-0.6-0.1-0.8-0.2v-5.5l0,0
		c0-0.6-0.6-0.8-0.8,0.2c-0.6,3.2-6.1,5.6-6.6,5.8S68.9,83,69.6,83s1.5-0.6,1.9,0.9c0,3.9,0,11.7,0,12.5c0,1,0.3,5.3,5.5,5.3
		C82.4,101.7,83.6,95.5,81.6,91.9L81.6,91.9L81.6,91.9z"/>
	<path class="st0" d="M107.6,82h-7.4c-0.5,0-0.5,0.5-0.2,0.6c1.9,1.2,1.9,3,1.8,3.4c-0.4,1.9-1.7,4.2-2.2,5.1
		c-0.2,0.4-0.6,0.5-0.8,0.2c-1.3-2.6-1.9-5.8-2-7.1c0-0.4-0.1-0.9,0.5-1.1s0.6-1.1,0-1.1h-7.5c-1.1,0,0,0.9,0.9,2.1
		c0.1,0.1,0.4,0.8,1,1.8c0,0.1,0,0.2,0,0.2c-0.4,1.9-1.7,4.2-2.2,5.1c-0.2,0.4-0.6,0.5-0.8,0.2c-1.3-2.6-1.9-5.8-2-7.1
		c0-0.4-0.1-0.9,0.5-1.1s0.6-1.1,0-1.1h-7.5c-1.1,0-0.5,0.9,0.3,2.1c0.2,0.3,2.3,3.2,4.2,7.4c1.7,4.2,2.5,7.2,2.6,7.6
		s0.6,2.4,0.7,2.7c0.1,0.3,0.5,0.4,0.6,0c0.8-3.1,1.5-4.5,3.4-6c0.9-0.8,0.1-1.2-0.3-1.5c-0.4-0.2-0.8-0.6-1.1-0.9
		C90,93.3,90,93,90.2,92.7c0.3-0.5,1.4-3.4,2.3-5.2c0.6,1.2,1.2,2.6,1.9,4.2c1.7,4.2,2.5,7.2,2.6,7.6s0.6,2.4,0.7,2.7
		c0.1,0.3,0.5,0.4,0.6,0c0.8-3.1,1.5-4.5,3.4-6c0.9-0.8,0.1-1.2-0.3-1.5c-0.4-0.2-0.8-0.6-1.1-0.9c-0.1-0.2-0.1-0.5,0.1-0.8
		c0.3-0.7,2.4-5.7,3-6.7s1.8-2.6,3.7-2.9c0.3-0.1,0.7-0.1,0.8-0.3C108.3,82.4,108.1,82,107.6,82L107.6,82L107.6,82z"/>
	<path class="st0" d="M90.6,83.9c-0.3-0.3-1.1-1.1-1.6-1.1S88.4,82,89.1,82s2.8,0,2.8,0l-0.1,1.7"/>
	<path class="st0" d="M112.8,80.8c-0.3-0.4-1.1-0.1-1.6,0.1c-1.6,0.9-3.2,1.9-4.4,3.3c-2.4,2.8-3.5,7.1-2.3,10.7
		c1.9,6,8.7,9,13.4,5.8c3.1-2.1,4.4-5.8,4.3-9.4c0-1.1-0.2-2.3-0.6-3.4c-0.9-3.1-4-6.4-7.5-5.6c-1,0.2-2.6,1-3.2,1.8
		c-1,1.4,0.2,1.3,1,1.3c4.2-0.1,6.2,4.2,6.8,6.1c0.7,2.3,1.2,6.7-1.7,7.7c-2.6,0.9-5.1-1.5-6.4-3.5c-0.5-0.7-0.9-1.7-1.3-2.5
		c-2.2-4.9-0.7-9.1,2.2-11.1C112.7,81.5,113,81.3,112.8,80.8L112.8,80.8L112.8,80.8z"/>
	<path class="st0" d="M131.7,80.8c-0.3-0.4-1.1-0.1-1.6,0.1c-1.6,0.9-3.2,1.9-4.4,3.3c-2.4,2.8-3.5,7.1-2.3,10.7
		c1.9,6,8.7,9,13.4,5.8c3.1-2.1,4.4-5.8,4.3-9.4c0-1.1-0.2-2.3-0.6-3.4c-0.9-3.1-4-6.4-7.5-5.6c-1,0.2-2.6,1-3.2,1.8
		c-1,1.4,0.2,1.3,1,1.3c4.2-0.1,6.2,4.2,6.8,6.1c0.7,2.3,1.2,6.7-1.7,7.7c-2.6,0.9-5.1-1.5-6.4-3.5c-0.5-0.7-0.9-1.7-1.3-2.5
		c-2.2-4.9-0.7-9.1,2.2-11.1C131.6,81.5,131.9,81.3,131.7,80.8L131.7,80.8L131.7,80.8z"/>
	<path class="st0" d="M41.7,73L41.7,73c-0.5,0-2.2,0-2.2,0H33c-0.6,0-0.5,0.5-0.2,0.7c2.2,1.4,2.6,3.1,2.6,4.5
		c0,1.2-1.9,10.4-2.9,14.3c-0.1,0.2-0.3,0.3-0.4,0c-0.5-1.6-1-3.5-1.5-5.4c-1.2-4.2-2.4-8.6-3-11.2l0,0v-0.1c0-0.2-0.1-0.4-0.1-0.6
		c-0.1-0.6,0.1-1,0.5-1.3c0,0,0,0,0.1,0c0.3-0.2,0.7-0.2,0.9-0.3c0.4-0.3,0.2-0.7-0.2-0.7h-0.1c-0.4,0-2.1,0-2.1,0H20
		c-0.6,0-0.5,0.5-0.2,0.7c1.3,0.8,2,1.8,2.3,2.7c0,0.1,0,0.1,0.1,0.2l0.6,1.9c0.1,0.5,0.1,1.1,0,1.5l0,0c-0.8,3.1-2.4,8.8-3.1,11.9
		c-0.1,0.2-0.3,0.3-0.4,0.1c-0.5-1.5-0.9-3.2-1.3-4.9c-0.8-2.8-1.6-5.8-2.2-8.2c-0.2-1.7,0.7-1.8,1.3-2.4c0.5-0.5-0.2-0.8-0.4-0.8
		c-2.4,0.1-4.6-3.2-8.7-4.2c-0.4-0.1-0.8-0.1-1.2-0.1c-3.7,0-6.7,3-6.7,6.6c0,3.2,2.1,5.9,5.2,6.4c1.2,0.2,3.6-0.3,4.3-2.5
		c0,0,0.3-0.9-0.1-1C8.9,81,8.9,81.5,8.8,82c-0.3,1-1.7,2.1-3.6,1.7c-2.3-0.5-4.1-2.4-4.1-4.9c0-2.8,2.2-5.1,5-5
		c0.3,0,2.3,0.2,3.1,2.1c1.6,5,5.4,18.8,6.6,25.3c0.2,1.4,0.4,3.2,0.4,3.4c0,0.4,0.6,0.5,0.7,0.1c1.1-3.5,2.4-5.3,4.7-6.9
		c1.1-0.8,1-0.6-0.2-1.7c-0.3-0.3-0.6-0.7-0.9-1.1c-0.2-0.4-0.2-0.7-0.1-1.1c0.5-2.4,2.1-8,3-11.4l0,0c0.1-0.3,0.5-0.3,0.6-0.1
		l0.1,0.2c1.8,6.4,4,14.6,4.5,18.6c0.2,1.4,0.2,3.1,0.3,3.4c0.1,0.4,0.6,0.5,0.7,0.1c1.1-3.5,2.4-5.3,4.7-6.9c1.1-0.8,1-0.6-0.2-1.7
		c-0.2-0.2-0.4-0.4-0.6-0.7c-0.3-0.4-0.3-0.8-0.2-1.2c0.8-3.5,2.5-11.3,3-13.1c0.6-1.9,1.7-4.5,3.5-6.3c0.4-0.4,0.9-0.7,1.3-0.9
		c0.3-0.2,0.7-0.2,0.9-0.3C42.3,73.4,42.1,73,41.7,73L41.7,73L41.7,73z"/>
	<path class="st0" d="M39.3,41.6L39.3,41.6c-0.5,0-2.2,0-2.2,0h-6.4c-0.6,0-0.5,0.5-0.2,0.7c2.2,1.4,2.6,3.1,2.6,4.5
		c0,1-2.2,8.4-3.4,12.8c-0.1,0-0.2,0-0.2-0.1c-0.5-1.5-1.2-3.2-1.6-4.9c-0.8-2.8-1.6-5.8-2.2-8.1c-0.2-1.7,0.7-1.8,1.3-2.4
		c0.5-0.5-0.2-0.8-0.4-0.8c-2.4,0.1-4.6-3.1-8.7-4.2c-0.6-0.1-1-0.1-1.4-0.1c-3.7,0-6.7,3-6.7,6.6c0,3.2,2.1,5.8,5.2,6.4
		c1.2,0.2,3.6-0.3,4.3-2.5c0,0,0.3-0.9-0.1-1c-0.4,0-0.5,0.4-0.6,0.9c-0.3,1-1.7,2.1-3.6,1.7c-2.3-0.5-4.1-2.4-4.1-4.9
		c0-2.7,2.2-5.1,5-5c0.3,0,2.3,0.2,3.1,2c1.6,5,5.7,18.7,6.9,25.2c0.2,1.4,0.4,2.3,0.5,2.6c0,0.4,0.6,0.5,0.7,0.1
		c1.1-3.5,2.3-4.4,4.6-6c1.1-0.8,1-0.6-0.2-1.7c-0.3-0.3-0.6-0.7-0.9-1.1c-0.1-0.2-0.1-0.4-0.2-0.5c0.9-3.8,3-10.5,3.5-12.1
		c0.6-1.8,1.7-4.5,3.5-6.3c0.4-0.4,0.9-0.7,1.3-0.9c0.3-0.2,0.7-0.2,0.9-0.3C40,41.9,39.8,41.5,39.3,41.6L39.3,41.6L39.3,41.6z"/>
	<path class="st0" d="M80.5,33.1c-2.3,0-4.4-0.7-6.3-2.1c-0.2-0.1-0.2-0.4-0.1-0.6c0.2-0.2,0.4-0.2,0.6-0.1c1.7,1.2,3.6,1.9,5.7,1.9
		s4.1-0.6,5.7-1.9c0.2-0.1,0.5-0.1,0.6,0.1c0.2,0.2,0.1,0.5-0.1,0.6C84.9,32.4,82.8,33.1,80.5,33.1L80.5,33.1L80.5,33.1z"/>
	<path class="st0" d="M72.2,28.7c-0.1,0-0.3-0.1-0.4-0.2c-1.2-1.8-1.9-3.8-1.9-6c0-5.8,4.8-10.6,10.6-10.6s10.6,4.8,10.6,10.6
		c0,2.1-0.6,4.2-1.8,5.9c-0.1,0.2-0.4,0.3-0.6,0.1c-0.2-0.1-0.3-0.4-0.1-0.6c1.1-1.6,1.6-3.5,1.6-5.4c0-5.3-4.3-9.7-9.7-9.7
		s-9.7,4.3-9.7,9.7c0,2,0.6,3.9,1.7,5.5c0.1,0.2,0.1,0.5-0.1,0.6C72.3,28.7,72.2,28.7,72.2,28.7L72.2,28.7z"/>
	<path class="st0" d="M80.6,26.7c-1.5,0-2.8-1.2-2.8-2.8s1.2-2.8,2.8-2.8s2.8,1.2,2.8,2.8S82.1,26.7,80.6,26.7L80.6,26.7z M80.6,22
		c-1.1,0-2,0.9-2,2s0.9,2,2,2s2-0.9,2-2S81.7,22,80.6,22L80.6,22z"/>
	<path class="st0" d="M78.6,22.8c-0.2,0-0.5-0.2-0.5-0.5v-9.8c0-0.2,0.2-0.5,0.5-0.5s0.5,0.2,0.5,0.5v9.8
		C79,22.6,78.8,22.8,78.6,22.8L78.6,22.8z"/>
	<path class="st0" d="M82.6,22.9c-0.2,0-0.5-0.2-0.5-0.5v-9.8c0-0.2,0.2-0.5,0.5-0.5s0.5,0.2,0.5,0.5v9.8
		C83,22.7,82.8,22.9,82.6,22.9L82.6,22.9z"/>
	<path class="st0" d="M80.6,27c-3.7,0-7.5-0.9-10.1-2.6c-0.2-0.1-0.3-0.4-0.1-0.6s0.4-0.3,0.6-0.1c5,3.3,14.6,3.3,19-0.1
		c0.2-0.1,0.5-0.1,0.6,0.1s0.1,0.5-0.1,0.6C88.1,26,84.4,26.9,80.6,27L80.6,27L80.6,27z"/>
	<path class="st0" d="M82.6,23c-0.2,0-0.4-0.2-0.5-0.4c0-0.2,0.2-0.5,0.4-0.5c3.5-0.3,6-1.5,7.5-2.4c0.2-0.1,0.5-0.1,0.6,0.1
		s0.1,0.5-0.2,0.6C89,21.5,86.3,22.7,82.6,23L82.6,23L82.6,23z"/>
	<path class="st0" d="M78.3,23.1L78.3,23.1c-2.6-0.3-5.1-1.1-7.6-2.5c-0.2-0.1-0.3-0.4-0.2-0.6c0.1-0.2,0.4-0.3,0.6-0.2
		c2.4,1.3,4.8,2.1,7.2,2.4c0.2,0,0.4,0.3,0.4,0.5C78.8,23,78.6,23.1,78.3,23.1L78.3,23.1L78.3,23.1z"/>
	<path class="st0" d="M81.3,14.4c0,0.4-0.3,0.8-0.8,0.8s-0.8-0.3-0.8-0.8s0.3-0.8,0.8-0.8S81.3,14,81.3,14.4z"/>
	<path class="st0" d="M81.3,16.9c0,0.4-0.3,0.8-0.8,0.8s-0.8-0.3-0.8-0.8s0.3-0.8,0.8-0.8S81.3,16.5,81.3,16.9z"/>
	<path class="st0" d="M81.3,19.4c0,0.4-0.3,0.8-0.8,0.8s-0.8-0.3-0.8-0.8s0.3-0.8,0.8-0.8S81.3,19,81.3,19.4z"/>
	<path d="M86.2,24c0,0.4-0.3,0.8-0.7,0.8s-0.7-0.3-0.7-0.8s0.3-0.8,0.7-0.8S86.2,23.6,86.2,24z"/>
	<path class="st0" d="M89.1,23c0,0.4-0.3,0.8-0.7,0.8s-0.7-0.3-0.7-0.8s0.3-0.8,0.7-0.8S89.1,22.6,89.1,23z"/>
	<path d="M76.3,24c0,0.4-0.3,0.8-0.7,0.8s-0.7-0.3-0.7-0.8s0.3-0.8,0.7-0.8S76.3,23.6,76.3,24z"/>
	<path class="st0" d="M73.5,23c0,0.4-0.3,0.8-0.7,0.8S72,23.4,72,23s0.3-0.8,0.7-0.8S73.5,22.6,73.5,23z"/>
	<path class="st0" d="M80.7,31.3c-11.8,0-24-2.6-24-6.9c0-3,5.4-5.3,14.5-6.4l0.7-0.1L71,20.4h-0.3c-5.8,1-7.8,2.5-7.8,3.6
		c0,2,7.2,4.3,17.6,4.3S98,26.1,98,24.1c0-1-2.1-2.6-7.8-3.6h-0.3L89.2,18l0.7,0.1c7.2,0.8,14.8,2.9,14.8,6.4
		C104.7,28.8,92.5,31.3,80.7,31.3L80.7,31.3L80.7,31.3z M70.5,19.1c-8.9,1.1-12.9,3.5-12.9,5.4c0,2.9,9.3,6,23.1,6s23.1-3.1,23.1-6
		c0-2.2-5.4-4.4-13.3-5.4l0.2,0.6c3.2,0.6,8.3,1.9,8.3,4.4c0,3.4-9.5,5.2-18.5,5.2S62,27.4,62,24c0-2.6,5.1-3.9,8.3-4.4L70.5,19.1
		L70.5,19.1L70.5,19.1z"/>
	<path class="st0" d="M84.2,13.6c-1.6-1.3-3-4.2-2.3-5.4c0.2-0.4,0.5-0.6,0.9-0.6c0.9-0.1,2.1,0.7,2.9,1.3V4.6
		c-1.2,1-2.5,1.6-3.6,0.5c-0.8-0.9,0.1-2.9,0.8-4.1h-4.7c1.2,2.2,1.3,3.5,0.8,4c-0.8,0.9-1.9,0.8-3.5-0.4v4.3c0.8-0.6,2-1.4,2.9-1.3
		c0.4,0.1,0.7,0.3,0.9,0.6c0.9,1.5-1,4-2.3,5.2l-0.6-0.7c1.4-1.4,2.7-3.3,2.2-4.1c-0.1-0.1-0.2-0.2-0.3-0.2c-0.7-0.1-2.1,1-2.9,1.7
		l-0.8,0.8V2.6l0.8,0.6c2.3,1.9,2.8,1.3,3,1.1c0.1-0.2,0.2-1.3-1.3-3.7L76.6,0h8l-0.4,0.7c-0.9,1.4-1.7,3.3-1.3,3.7
		c0.4,0.4,1,0.7,3.1-1.2l0.8-0.7v8.4L86,10.1c-0.8-0.8-2.2-1.8-2.9-1.7c-0.1,0-0.2,0.1-0.2,0.2c-0.3,0.6,0.6,3.1,2.1,4.3L84.2,13.6
		L84.2,13.6L84.2,13.6z"/>
	<path class="st0" d="M80.5,9.1c-1.5,0-2.7-1.2-2.7-2.7s1.2-2.7,2.7-2.7s2.7,1.2,2.7,2.7S82,9.1,80.5,9.1L80.5,9.1z M80.5,4.6
		c-1,0-1.9,0.8-1.9,1.9s0.8,1.9,1.9,1.9s1.9-0.8,1.9-1.9S81.6,4.6,80.5,4.6L80.5,4.6z"/>
</g>
</svg>
